<svg width="24" height="24" viewBox="0 0 24 24" fill="none" xmlns="http://www.w3.org/2000/svg">
<path d="M19.0003 19.9942H5.00394C4.73879 19.9942 4.48451 20.0999 4.29702 20.2879C4.10953 20.476 4.0042 20.7311 4.0042 20.9971C4.0042 21.2631 4.10953 21.5182 4.29702 21.7063C4.48451 21.8943 4.73879 22 5.00394 22H19.0003C19.2654 22 19.5197 21.8943 19.7072 21.7063C19.8947 21.5182 20 21.2631 20 20.9971C20 20.7311 19.8947 20.476 19.7072 20.2879C19.5197 20.0999 19.2654 19.9942 19.0003 19.9942ZM5.00394 17.9884H5.09392L9.26282 17.6073C9.7195 17.5617 10.1466 17.3598 10.4725 17.0357L19.4701 8.0096C19.8194 7.63949 20.0081 7.14561 19.995 6.63617C19.9819 6.12672 19.768 5.64327 19.4002 5.29175L16.6609 2.54381C16.3034 2.20693 15.8349 2.01364 15.3446 2.00069C14.8542 1.98775 14.3763 2.15606 14.0016 2.47361L5.00394 11.4997C4.68079 11.8266 4.47958 12.2551 4.43409 12.7132L4.0042 16.8953C3.99073 17.0421 4.00973 17.1902 4.05985 17.3289C4.10996 17.4676 4.18996 17.5935 4.29413 17.6976C4.38754 17.7905 4.49833 17.8641 4.62013 17.914C4.74194 17.9639 4.87237 17.9892 5.00394 17.9884ZM15.2712 3.94787L18.0005 6.68577L16.001 8.64142L13.3218 5.95366L15.2712 3.94787Z" fill="#006A96"/>
</svg>
