<svg xmlns="http://www.w3.org/2000/svg" width="33" height="8" fill="none" viewBox="0 0 33 8">
    <path fill="#fff" stroke="#212529" stroke-width="1.5" d="M7.884 4c0 1.794-1.456 3.25-3.254 3.25S1.375 5.794 1.375 4 2.832.75 4.63.75C6.428.75 7.884 2.206 7.884 4zM19.898 4c0 1.794-1.456 3.25-3.255 3.25-1.798 0-3.254-1.456-3.254-3.25S14.845.75 16.643.75c1.799 0 3.255 1.456 3.255 3.25zM31.912 4c0 1.794-1.457 3.25-3.255 3.25-1.798 0-3.254-1.456-3.254-3.25S26.859.75 28.657.75 31.912 2.206 31.912 4z"/>
</svg>
