<svg xmlns="http://www.w3.org/2000/svg" xmlns:xlink="http://www.w3.org/1999/xlink" width="50" height="50" viewBox="0 0 50 50"><defs><symbol id="a" viewBox="0 0 9.66 26"><path d="M5,13c0-2.79.22-5.33,2-5.33H8.66a1,1,0,0,0,1-1V2a2,2,0,0,0-2-2h-1C3,0,0,4.72,0,13S3,26,6.64,26h1a2,2,0,0,0,2-2V19.33a1,1,0,0,0-1-1H7C5.13,18.33,5,15.79,5,13Z" fill="#00c1d5"/></symbol></defs><rect width="50" height="50" fill="none"/><path d="M25,3A22,22,0,1,1,3,25,22,22,0,0,1,25,3m0-3A25,25,0,1,0,50,25,25,25,0,0,0,25,0Z" fill="#00c1d5"/><use width="9.66" height="26" transform="translate(10.32 20.6) rotate(-45) scale(1.04)" xlink:href="#a"/></svg>