<svg xmlns="http://www.w3.org/2000/svg" width="50" height="50" viewBox="0 0 50 50"><rect width="50" height="50" fill="none"/><path d="M21.44,12.34A10.51,10.51,0,0,1,24.08,12a7.73,7.73,0,0,1,5,1.57,5.1,5.1,0,0,1,1.93,4.14,6.48,6.48,0,0,1-.45,2.45,9.31,9.31,0,0,1-1.1,2c-.44.6-1,1.32-1.77,2.19a22.84,22.84,0,0,0-2.41,3.11,7.37,7.37,0,0,0-1,3.17l-.11.65H22.45v-.9a8.47,8.47,0,0,1,.8-3.85A21.23,21.23,0,0,1,25.6,23a19.62,19.62,0,0,0,1.82-2.65A5.07,5.07,0,0,0,28,17.89a3,3,0,0,0-1.08-2.46,4.55,4.55,0,0,0-3-.9,9.33,9.33,0,0,0-5,1.52V13.34A10.06,10.06,0,0,1,21.44,12.34Zm0,25.66V34.28H25.2V38Z" fill="#00c1d5"/><path d="M25,3A22,22,0,1,1,3,25,22,22,0,0,1,25,3m0-3A25,25,0,1,0,50,25,25,25,0,0,0,25,0Z" fill="#00c1d5"/></svg>