<svg width="19" height="4" viewBox="0 0 19 4" fill="none" xmlns="http://www.w3.org/2000/svg">
<path fill-rule="evenodd" clip-rule="evenodd" d="M17.7454 2.83717C17.856 2.67345 17.9332 2.48949 17.9725 2.29584C18.0118 2.1022 18.0124 1.9027 17.9744 1.70882C17.9363 1.51493 17.8603 1.33047 17.7507 1.16604C17.6412 1.00162 17.5002 0.86047 17.3359 0.750708C17.1716 0.640946 16.9872 0.564735 16.7934 0.526456C16.5995 0.488177 16.4 0.488586 16.2064 0.527656C16.0127 0.566726 15.8286 0.643688 15.6648 0.75412C15.5009 0.864552 15.3605 1.00628 15.2516 1.17115C15.0484 1.50163 14.9812 1.898 15.0641 2.27699C15.147 2.65597 15.3736 2.98808 15.6962 3.20355C16.0188 3.41901 16.4124 3.50106 16.7942 3.43246C17.1761 3.36386 17.5165 3.14996 17.7439 2.83567L17.7454 2.83717ZM10.4995 2.00341C10.4995 2.40112 10.3415 2.78254 10.0602 3.06377C9.77902 3.34499 9.39759 3.50298 8.99988 3.50298C8.60217 3.50298 8.22075 3.34499 7.93952 3.06377C7.6583 2.78254 7.50031 2.40112 7.50031 2.00341C7.50031 1.6057 7.6583 1.22428 7.93952 0.943051C8.22075 0.661827 8.60217 0.503836 8.99988 0.503836C9.39759 0.503836 9.77902 0.661827 10.0602 0.943051C10.3415 1.22428 10.4995 1.6057 10.4995 2.00341ZM3.00159 2.00341C3.00159 2.40112 2.8436 2.78254 2.56237 3.06377C2.28115 3.34499 1.89973 3.50298 1.50201 3.50298C1.1043 3.50298 0.722881 3.34499 0.441656 3.06377C0.160432 2.78254 0.00244141 2.40112 0.00244141 2.00341C0.00244141 1.6057 0.160432 1.22428 0.441656 0.943051C0.722881 0.661827 1.1043 0.503836 1.50201 0.503836C1.89973 0.503836 2.28115 0.661827 2.56237 0.943051C2.8436 1.22428 3.00159 1.6057 3.00159 2.00341Z" fill="white"/>
</svg>
