<svg xmlns="http://www.w3.org/2000/svg" width="163" height="118" fill="none" viewBox="0 0 163 118">
    <path fill="#fff" d="M4.414 4H158.59v110H4.414V4z"/>
    <path fill="#fff" d="M4.414 114V4H158.59v110H4.414z"/>
    <path fill="#212529" d="M4.414 4V0h-4v4h4zM158.59 4h4V0h-4v4zm0 110v4h4v-4h-4zM4.414 114h-4v4h4v-4zM6.89 15.86c-1.735-1.369-4.25-1.071-5.618.663-1.368 1.735-1.07 4.25.664 5.618l4.954-6.282zM80.5 79l-2.477 3.14c1.438 1.135 3.462 1.147 4.914.032L80.5 79zm80.526-56.828c1.752-1.346 2.081-3.857.735-5.61-1.346-1.75-3.858-2.08-5.609-.734l4.874 6.344zM4.414 8H158.59V0H4.414v8zM154.59 4v110h8V4h-8zm4 106H4.414v8H158.59v-8zM8.414 114V4h-8v110h8zM1.937 22.14l76.087 60 4.953-6.28-76.086-60-4.954 6.28zm81 60.032l78.09-60-4.874-6.344-78.09 60 4.875 6.344zm-27.9-24.844l-52.06 40 4.875 6.344 52.06-40-4.875-6.344zm106.026 39.956l-54.107-40-4.756 6.433 54.108 39.999 4.755-6.432z"/>
</svg>
