<svg width="20" height="20" viewBox="0 0 20 20" fill="none" xmlns="http://www.w3.org/2000/svg">
<path d="M9.02686 14.5442L2.82257 7.21629C2.09037 6.3541 2.68544 5 3.79668 5H16.2053C16.4539 4.99978 16.6974 5.07364 16.9065 5.21273C17.1157 5.35182 17.2816 5.55024 17.3843 5.78425C17.4871 6.01825 17.5225 6.27791 17.4861 6.53212C17.4497 6.78634 17.3433 7.02434 17.1794 7.21762L10.9751 14.5429C10.8537 14.6864 10.7039 14.8015 10.5359 14.8804C10.3679 14.9592 10.1855 15 10.001 15C9.81644 15 9.63405 14.9592 9.46603 14.8804C9.29802 14.8015 9.14828 14.6864 9.02686 14.5429V14.5442Z" fill="white"/>
</svg>
