<svg width="20" height="20" viewBox="0 0 20 20" fill="none" xmlns="http://www.w3.org/2000/svg">
<path fill-rule="evenodd" clip-rule="evenodd" d="M9.14235 11.602C9.17626 11.5212 9.2085 11.4432 9.23864 11.3691C9.17981 11.1343 9.12865 10.9141 9.0886 10.7083C9.06401 10.5819 9.0436 10.461 9.02818 10.3455C9.01014 10.2105 8.99891 10.0829 8.99574 9.96271C8.99068 9.77085 9.00617 9.59778 9.04735 9.44336C9.07693 9.32917 9.1465 9.23094 9.24107 9.15837C9.3584 9.06834 9.51423 9.01782 9.67992 9.02539C9.70723 9.02665 9.73504 9.02965 9.76301 9.03452C9.92315 9.06241 10.0888 9.15154 10.1973 9.3261C10.2004 9.33119 10.2035 9.33635 10.2066 9.34159C10.2507 9.41701 10.2844 9.50763 10.303 9.61523C10.3338 9.76531 10.3445 9.91982 10.3417 10.0748C10.3396 10.1885 10.3302 10.3025 10.316 10.4152C10.3039 10.5113 10.2882 10.6065 10.2706 10.6998C10.2387 10.8692 10.2003 11.0324 10.1647 11.1837L10.1629 11.1914L10.1572 11.2188C10.2066 11.3512 10.2602 11.474 10.3188 11.588C10.32 11.5904 10.3212 11.5927 10.3224 11.595C10.4721 11.8842 10.6542 12.1171 10.8832 12.31C10.9657 12.3796 11.0543 12.444 11.1496 12.5039C11.2101 12.4962 11.2692 12.4892 11.327 12.483C11.4681 12.4678 11.6009 12.4572 11.7253 12.4512C11.7407 12.4505 11.7559 12.4498 11.771 12.4492C11.8717 12.4452 11.9667 12.4442 12.0561 12.4464C12.0915 12.4472 12.126 12.4486 12.1597 12.4504C12.2236 12.4539 12.2843 12.4592 12.3418 12.4662C12.4554 12.4801 12.5561 12.5008 12.6439 12.5285C12.6452 12.5289 12.6465 12.5293 12.6477 12.5297C12.7797 12.5718 12.8821 12.6296 12.9545 12.7031C12.9917 12.7414 13.0232 12.7869 13.0487 12.8373C13.0741 12.8873 13.0935 12.9423 13.1067 12.9999C13.1418 13.1535 13.1325 13.3261 13.072 13.4766C13.0683 13.4857 13.0642 13.4953 13.0597 13.5051C13.0588 13.5072 13.0578 13.5093 13.0568 13.5115C13.0331 13.5622 12.9986 13.62 12.949 13.6745C12.9432 13.6809 12.9372 13.6872 12.931 13.6934C12.8642 13.7606 12.7727 13.8205 12.6477 13.8525C12.6465 13.8528 12.6452 13.8531 12.6439 13.8535C12.5843 13.8684 12.517 13.877 12.4413 13.877C12.3423 13.877 12.2322 13.8661 12.1145 13.8455C12.0252 13.8298 11.9316 13.8086 11.8353 13.7822C11.7423 13.7568 11.6468 13.7266 11.5502 13.6922C11.5388 13.6881 11.5274 13.684 11.516 13.6798C11.3976 13.6364 11.2779 13.5866 11.1595 13.5314C11.0672 13.4883 10.9757 13.4419 10.8864 13.3926C10.7901 13.4093 10.6919 13.4302 10.5921 13.4542C10.3561 13.5112 10.1118 13.5863 9.86659 13.6677C9.83737 13.6774 9.80814 13.6872 9.77891 13.6971C9.75618 13.7048 9.73345 13.7125 9.71072 13.7202C9.69143 13.7268 9.67213 13.7334 9.65285 13.7401C9.62169 13.7508 9.59055 13.7615 9.55944 13.7723C9.55874 13.7725 9.55805 13.7728 9.55735 13.773C9.4966 13.7941 9.43599 13.8152 9.37562 13.8363L9.35417 13.8438C9.34156 13.8482 9.3289 13.8527 9.3162 13.8572C9.21828 13.8918 9.11807 13.9261 9.02083 13.959C8.93564 14.1097 8.85296 14.2465 8.77286 14.3705C8.73264 14.4328 8.69308 14.4918 8.65416 14.5478C8.6508 14.5526 8.64744 14.5575 8.64409 14.5622C8.61329 14.6062 8.58291 14.6483 8.55295 14.6886C8.39476 14.9009 8.24811 15.0618 8.11339 15.1823C8.03733 15.2503 7.96508 15.3055 7.89671 15.3497C7.88366 15.3582 7.87075 15.3662 7.85798 15.3739C7.68962 15.4751 7.54592 15.5098 7.42803 15.5098C7.34849 15.5098 7.2803 15.4922 7.22348 15.4707C7.0928 15.4199 6.98106 15.3145 6.91098 15.1777C6.84848 15.0547 6.82197 14.918 6.8447 14.8105C6.85895 14.7363 6.88363 14.664 6.917 14.5938C6.92247 14.5823 6.92818 14.5708 6.93412 14.5594C6.97497 14.4808 7.02655 14.4049 7.08637 14.3318C7.22517 14.1621 7.40834 14.0072 7.6048 13.8688C7.64027 13.8438 7.67618 13.8193 7.71234 13.7954C7.72213 13.7889 7.73194 13.7825 7.74177 13.7761C7.82914 13.7192 7.91767 13.6655 8.00482 13.615C8.09531 13.5627 8.18431 13.5139 8.26894 13.4688C8.34195 13.3362 8.42141 13.1816 8.50359 13.0146C8.70313 12.609 8.91862 12.1295 9.09635 11.711C9.11198 11.6741 9.12733 11.6378 9.14235 11.602ZM9.51442 13.1603C9.52842 13.1545 9.54248 13.1487 9.5566 13.1428C9.67199 13.0953 9.79161 13.0477 9.9153 13.0029C10.0157 12.9666 10.1187 12.9322 10.2244 12.9012C10.2415 12.8961 10.2587 12.8912 10.276 12.8863C10.3329 12.8704 10.3905 12.8554 10.4489 12.8418C10.3991 12.8012 10.3502 12.7581 10.3023 12.7126C10.29 12.701 10.2778 12.6892 10.2657 12.6773C10.1979 12.6107 10.1322 12.5395 10.069 12.4641C9.98672 12.3659 9.90864 12.2607 9.83568 12.1493C9.83157 12.143 9.82747 12.1367 9.82339 12.1304C9.78341 12.0686 9.745 12.0048 9.70833 11.9395C9.68931 11.9904 9.66919 12.0438 9.64803 12.0991C9.63151 12.1423 9.61435 12.1868 9.59657 12.2322C9.53872 12.3799 9.47437 12.5382 9.40436 12.6993C9.3795 12.7565 9.35393 12.8141 9.32769 12.8717C9.3098 12.911 9.2916 12.9503 9.2731 12.9895C9.26555 13.0055 9.25796 13.0215 9.25031 13.0374C9.25015 13.0378 9.24999 13.0381 9.24984 13.0384C9.21618 13.1086 9.18156 13.1784 9.14605 13.2471C9.14525 13.2487 9.14445 13.2502 9.14365 13.2517C9.12937 13.2793 9.11494 13.3068 9.10038 13.334C9.12129 13.3254 9.14235 13.3166 9.16355 13.3077C9.16461 13.3073 9.16567 13.3068 9.16673 13.3064C9.18989 13.2967 9.21323 13.2868 9.23673 13.2769C9.26414 13.2654 9.29178 13.2537 9.31966 13.242C9.32421 13.2401 9.32877 13.2382 9.33333 13.2363L9.34351 13.232C9.39938 13.2085 9.45635 13.1844 9.51442 13.1603ZM11.8011 13.0742C11.8125 13.0788 11.8237 13.0833 11.8347 13.0877C11.996 13.1519 12.1263 13.1942 12.231 13.2214C12.2641 13.2299 12.2946 13.237 12.3227 13.2427C12.3454 13.2474 12.3665 13.2512 12.3862 13.2543C12.3887 13.2547 12.3912 13.255 12.3936 13.2554C12.4106 13.258 12.4264 13.26 12.4413 13.2615C12.4841 13.2659 12.5184 13.2664 12.5456 13.2648C12.5459 13.2648 12.5453 13.2649 12.5456 13.2648C12.5515 13.2645 12.5579 13.264 12.5631 13.2635C12.591 13.2606 12.6099 13.2555 12.6221 13.2509C12.6323 13.2471 12.6378 13.2437 12.6402 13.2422L12.6439 13.2363H12.6477C12.6591 13.2285 12.6572 13.2227 12.6553 13.2188C12.6552 13.2187 12.6555 13.2191 12.6553 13.2188C12.6545 13.2174 12.652 13.2132 12.6477 13.2082C12.6466 13.2068 12.6454 13.2054 12.6439 13.2039C12.6362 13.1955 12.6235 13.1843 12.6034 13.1719C12.5992 13.1692 12.5946 13.1666 12.5897 13.1639C12.5713 13.1537 12.5479 13.143 12.5183 13.1327C12.5167 13.1321 12.515 13.1315 12.5133 13.131C12.4957 13.125 12.4759 13.1191 12.4538 13.1134C12.4497 13.1124 12.4455 13.1114 12.4413 13.1103C12.4386 13.1097 12.436 13.1091 12.4332 13.1085C12.4093 13.1029 12.3829 13.0978 12.3537 13.0931C12.2736 13.0803 12.1725 13.0712 12.0451 13.0695C11.9824 13.0686 11.9134 13.0695 11.8374 13.0726C11.8255 13.0731 11.8134 13.0736 11.8011 13.0742ZM7.62495 14.7591C7.73752 14.6471 7.89223 14.4663 8.07955 14.1855C7.92051 14.3352 7.72623 14.5316 7.59112 14.7293C7.5605 14.774 7.53291 14.8189 7.50947 14.8633C7.54061 14.8385 7.57932 14.8044 7.62495 14.7591ZM9.73496 9.57925C9.72291 9.55847 9.71072 9.54865 9.69697 9.54688C9.68874 9.55654 9.68203 9.57713 9.6769 9.60646C9.67664 9.60796 9.67638 9.60949 9.67613 9.61103C9.67569 9.6137 9.67526 9.61644 9.67485 9.61924C9.6747 9.62026 9.67455 9.62129 9.6744 9.62233C9.67036 9.65072 9.66754 9.68559 9.66597 9.72544C9.66571 9.73209 9.66548 9.73887 9.66529 9.74579C9.66482 9.76268 9.66456 9.78036 9.6645 9.79873C9.66445 9.81739 9.66461 9.83676 9.66499 9.85673C9.6689 10.0625 9.69593 10.3323 9.74811 10.5508C9.80467 10.3524 9.8264 10.0093 9.79277 9.77577C9.79006 9.75696 9.78699 9.73884 9.78355 9.72158C9.78247 9.7162 9.78137 9.71089 9.78022 9.70568C9.7744 9.67917 9.76764 9.65489 9.75989 9.63337C9.75917 9.63135 9.75843 9.62936 9.75769 9.62739C9.75188 9.61199 9.74553 9.5981 9.73864 9.58594C9.73741 9.58359 9.73619 9.58136 9.73496 9.57925ZM16.4583 18.125C16.4583 18.4707 16.1875 18.75 15.8523 18.75H3.73106C3.39583 18.75 3.125 18.4707 3.125 18.125V1.875C3.125 1.5293 3.39583 1.25 3.73106 1.25H11.7765C11.9375 1.25 12.0909 1.31641 12.2045 1.43359L16.2803 5.63672C16.3939 5.75391 16.4583 5.91406 16.4583 6.08008V18.125ZM11.4962 2.69141V6.36719H15.0606L11.4962 2.69141ZM15.0947 17.3438V7.69531H11.0038C10.7928 7.69531 10.5905 7.60889 10.4413 7.45505C10.2921 7.30121 10.2083 7.09256 10.2083 6.875V2.65625H4.48864V17.3438H15.0947Z" fill="url(#paint0_linear_3241_20981)"/>
<defs>
<linearGradient id="paint0_linear_3241_20981" x1="-10.2658" y1="36.0417" x2="17.2431" y2="34.6871" gradientUnits="userSpaceOnUse">
<stop stop-color="#00C6D7"/>
<stop offset="1" stop-color="#006A96"/>
</linearGradient>
</defs>
</svg>
