<svg width="28" height="28" viewBox="0 0 28 28" fill="none" xmlns="http://www.w3.org/2000/svg">
<path fill-rule="evenodd" clip-rule="evenodd" d="M14.0003 0.666016C15.163 0.666016 16.1056 1.60857 16.1056 2.77128V11.8941H25.2284C26.3911 11.8941 27.3337 12.8366 27.3337 13.9993C27.3337 15.1621 26.3911 16.1046 25.2284 16.1046H16.1056V25.2274C16.1056 26.3901 15.163 27.3327 14.0003 27.3327C12.8376 27.3327 11.8951 26.3901 11.8951 25.2274V16.1046H2.77226C1.60955 16.1046 0.666992 15.1621 0.666992 13.9993C0.666992 12.8366 1.60955 11.8941 2.77226 11.8941H11.8951V2.77128C11.8951 1.60857 12.8376 0.666016 14.0003 0.666016Z" fill="#006A96"/>
</svg>
