<svg width="24" height="24" viewBox="0 0 24 24" fill="none" xmlns="http://www.w3.org/2000/svg">
<g clip-path="url(#clip0_1030_13093)">
<path d="M24 12C24 18.629 18.6271 24 12 24C5.3729 24 0 18.629 0 12C0 5.37484 5.3729 0 12 0C18.6271 0 24 5.37484 24 12ZM12.3218 3.96774C9.68468 3.96774 8.00274 5.07871 6.68226 7.0529C6.51097 7.30887 6.56855 7.65339 6.81339 7.83968L8.49242 9.11274C8.74452 9.30387 9.10306 9.25839 9.29903 9.01016C10.1632 7.91371 10.756 7.2779 12.0716 7.2779C13.0602 7.2779 14.2829 7.91419 14.2829 8.87274C14.2829 9.59758 13.6848 9.96968 12.7089 10.5169C11.5708 11.1547 10.0645 11.9487 10.0645 13.9355V14.129C10.0645 14.4498 10.3244 14.7097 10.6452 14.7097H13.3548C13.6756 14.7097 13.9355 14.4498 13.9355 14.129V14.0647C13.9355 12.6876 17.9608 12.63 17.9608 8.90322C17.9608 6.09677 15.0494 3.96774 12.3218 3.96774ZM12 15.9677C10.7724 15.9677 9.77419 16.9665 9.77419 18.1935C9.77419 19.4206 10.7724 20.4194 12 20.4194C13.2276 20.4194 14.2258 19.4206 14.2258 18.1935C14.2258 16.9665 13.2271 15.9677 12 15.9677Z" fill="#0000FF"/>
</g>
<defs>
<clipPath id="clip0_1030_13093">
<rect width="24" height="24" fill="white"/>
</clipPath>
</defs>
</svg>
