<svg width="90" height="90" viewBox="0 0 90 90" fill="none" xmlns="http://www.w3.org/2000/svg">
<path fill-rule="evenodd" clip-rule="evenodd" d="M48.75 61.875H55.3125C68.2568 61.875 78.75 51.3818 78.75 38.4375C78.75 25.4932 68.2568 15 55.3125 15H34.6875C21.7432 15 11.25 25.4932 11.25 38.4375C11.25 53.2772 21.0313 62.3507 31.7323 67.9241C37.0472 70.6922 42.4005 72.4811 46.449 73.5776C47.2779 73.8021 48.0488 73.9967 48.75 74.1641V61.875ZM52.5 78.75C52.5 78.75 51.0823 78.5432 48.75 78.0144C37.9429 75.5638 7.5 66.1969 7.5 38.4375C7.5 23.4223 19.6723 11.25 34.6875 11.25H55.3125C70.3277 11.25 82.5 23.4223 82.5 38.4375C82.5 53.4527 70.3277 65.625 55.3125 65.625H52.5V78.75Z" fill="#006A96"/>
<path fill-rule="evenodd" clip-rule="evenodd" d="M45 41.25C46.0356 41.25 46.875 40.4106 46.875 39.375C46.875 38.3394 46.0356 37.5 45 37.5C43.9644 37.5 43.125 38.3394 43.125 39.375C43.125 40.4106 43.9644 41.25 45 41.25ZM45 45C48.1067 45 50.625 42.4817 50.625 39.375C50.625 36.2683 48.1067 33.75 45 33.75C41.8933 33.75 39.375 36.2683 39.375 39.375C39.375 42.4817 41.8933 45 45 45Z" fill="#00C6D7"/>
<path fill-rule="evenodd" clip-rule="evenodd" d="M60 41.25C61.0356 41.25 61.875 40.4106 61.875 39.375C61.875 38.3394 61.0356 37.5 60 37.5C58.9644 37.5 58.125 38.3394 58.125 39.375C58.125 40.4106 58.9644 41.25 60 41.25ZM60 45C63.1067 45 65.625 42.4817 65.625 39.375C65.625 36.2683 63.1067 33.75 60 33.75C56.8933 33.75 54.375 36.2683 54.375 39.375C54.375 42.4817 56.8933 45 60 45Z" fill="#00C6D7"/>
<path fill-rule="evenodd" clip-rule="evenodd" d="M30 41.25C31.0356 41.25 31.875 40.4106 31.875 39.375C31.875 38.3394 31.0356 37.5 30 37.5C28.9644 37.5 28.125 38.3394 28.125 39.375C28.125 40.4106 28.9644 41.25 30 41.25ZM30 45C33.1067 45 35.625 42.4817 35.625 39.375C35.625 36.2683 33.1067 33.75 30 33.75C26.8933 33.75 24.375 36.2683 24.375 39.375C24.375 42.4817 26.8933 45 30 45Z" fill="#00C6D7"/>
</svg>
