<svg width="90" height="90" viewBox="0 0 90 90" fill="none" xmlns="http://www.w3.org/2000/svg">
<path d="M22.9688 11.25C19.8607 11.25 16.88 12.4847 14.6823 14.6823C12.4847 16.88 11.25 19.8607 11.25 22.9688V67.0312C11.25 70.1393 12.4847 73.12 14.6823 75.3177C16.88 77.5154 19.8607 78.75 22.9688 78.75H45.0825C44.145 77.2875 43.3594 75.7162 42.75 74.0625H22.9688C21.1039 74.0625 19.3155 73.3217 17.9969 72.0031C16.6783 70.6845 15.9375 68.8961 15.9375 67.0312V22.9688C15.9375 21.1039 16.6783 19.3155 17.9969 17.9969C19.3155 16.6783 21.1039 15.9375 22.9688 15.9375H67.0312C68.8961 15.9375 70.6845 16.6783 72.0031 17.9969C73.3217 19.3155 74.0625 21.1039 74.0625 22.9688V42.75C75.7162 43.3594 77.2875 44.145 78.75 45.0825V22.9688C78.75 19.8607 77.5154 16.88 75.3177 14.6823C73.12 12.4847 70.1393 11.25 67.0312 11.25H22.9688ZM65.625 41.25C66.2344 41.25 66.84 41.2725 67.4381 41.3156C67.5187 40.9717 67.5204 40.6141 67.4433 40.2694C67.3661 39.9247 67.2121 39.6019 66.9927 39.3252C66.7732 39.0484 66.4941 38.8248 66.1761 38.6711C65.8581 38.5174 65.5095 38.4375 65.1562 38.4375H45.4688C44.8471 38.4375 44.251 38.6844 43.8115 39.124C43.3719 39.5635 43.125 40.1596 43.125 40.7812C43.125 41.4029 43.3719 41.999 43.8115 42.4385C44.251 42.8781 44.8471 43.125 45.4688 43.125H56.2331C59.2084 41.8832 62.401 41.2458 65.625 41.25ZM22.5 24.8438C22.5 23.55 23.55 22.5 24.8438 22.5H65.1562C65.7779 22.5 66.374 22.7469 66.8135 23.1865C67.2531 23.626 67.5 24.2221 67.5 24.8438C67.5 25.4654 67.2531 26.0615 66.8135 26.501C66.374 26.9406 65.7779 27.1875 65.1562 27.1875H24.8438C23.55 27.1875 22.5 26.1375 22.5 24.8438ZM39.375 40.3125C39.375 41.4205 39.1568 42.5177 38.7327 43.5414C38.3087 44.5651 37.6872 45.4952 36.9037 46.2787C36.1202 47.0622 35.1901 47.6837 34.1664 48.1077C33.1427 48.5318 32.0455 48.75 30.9375 48.75C29.8295 48.75 28.7323 48.5318 27.7086 48.1077C26.6849 47.6837 25.7548 47.0622 24.9713 46.2787C24.1878 45.4952 23.5663 44.5651 23.1423 43.5414C22.7182 42.5177 22.5 41.4205 22.5 40.3125C22.5 38.0747 23.3889 35.9286 24.9713 34.3463C26.5536 32.7639 28.6997 31.875 30.9375 31.875C33.1753 31.875 35.3214 32.7639 36.9037 34.3463C38.4861 35.9286 39.375 38.0747 39.375 40.3125ZM34.6875 40.3125C34.6875 39.3179 34.2924 38.3641 33.5891 37.6609C32.8859 36.9576 31.9321 36.5625 30.9375 36.5625C29.9429 36.5625 28.9891 36.9576 28.2859 37.6609C27.5826 38.3641 27.1875 39.3179 27.1875 40.3125C27.1875 41.3071 27.5826 42.2609 28.2859 42.9641C28.9891 43.6674 29.9429 44.0625 30.9375 44.0625C31.9321 44.0625 32.8859 43.6674 33.5891 42.9641C34.2924 42.2609 34.6875 41.3071 34.6875 40.3125ZM30.9375 69.375C33.1753 69.375 35.3214 68.486 36.9037 66.9037C38.4861 65.3214 39.375 63.1753 39.375 60.9375C39.375 58.6997 38.4861 56.5536 36.9037 54.9713C35.3214 53.389 33.1753 52.5 30.9375 52.5C28.6997 52.5 26.5536 53.389 24.9713 54.9713C23.3889 56.5536 22.5 58.6997 22.5 60.9375C22.5 63.1753 23.3889 65.3214 24.9713 66.9037C26.5536 68.486 28.6997 69.375 30.9375 69.375ZM30.9375 64.6875C29.9429 64.6875 28.9891 64.2924 28.2859 63.5892C27.5826 62.8859 27.1875 61.9321 27.1875 60.9375C27.1875 59.9429 27.5826 58.9891 28.2859 58.2859C28.9891 57.5826 29.9429 57.1875 30.9375 57.1875C31.9321 57.1875 32.8859 57.5826 33.5891 58.2859C34.2924 58.9891 34.6875 59.9429 34.6875 60.9375C34.6875 61.9321 34.2924 62.8859 33.5891 63.5892C32.8859 64.2924 31.9321 64.6875 30.9375 64.6875Z" fill="#747678"/>
<circle cx="65.625" cy="65.625" r="20.625" fill="#747678"/>
<path d="M65.6359 60H68.5984L56.8046 71.775C56.6289 71.9493 56.4894 72.1567 56.3942 72.3852C56.299 72.6137 56.25 72.8587 56.25 73.1062C56.25 73.3538 56.299 73.5988 56.3942 73.8273C56.4894 74.0558 56.6289 74.2632 56.8046 74.4375C56.9789 74.6132 57.1863 74.7527 57.4148 74.8479C57.6433 74.9431 57.8883 74.9921 58.1359 74.9921C58.3834 74.9921 58.6285 74.9431 58.857 74.8479C59.0854 74.7527 59.2928 74.6132 59.4671 74.4375L71.2609 62.6625V65.625C71.2609 66.1223 71.4584 66.5992 71.81 66.9508C72.1617 67.3025 72.6386 67.5 73.1359 67.5C73.6332 67.5 74.1101 67.3025 74.4617 66.9508C74.8133 66.5992 75.0109 66.1223 75.0109 65.625V58.125C75.0109 57.6277 74.8133 57.1508 74.4617 56.7992C74.1101 56.4475 73.6332 56.25 73.1359 56.25H65.6359C65.1386 56.25 64.6617 56.4475 64.31 56.7992C63.9584 57.1508 63.7609 57.6277 63.7609 58.125C63.7609 58.6223 63.9584 59.0992 64.31 59.4508C64.6617 59.8025 65.1386 60 65.6359 60Z" fill="#E5E5E5"/>
</svg>
