<svg width="90" height="90" viewBox="0 0 90 90" fill="none" xmlns="http://www.w3.org/2000/svg">
<path fill-rule="evenodd" clip-rule="evenodd" d="M45 30C42.9289 30 41.25 31.6789 41.25 33.75C41.25 35.8211 42.9289 37.5 45 37.5C47.0711 37.5 48.75 35.8211 48.75 33.75C48.75 31.6789 47.0711 30 45 30ZM37.5 33.75C37.5 29.6079 40.8579 26.25 45 26.25C49.1421 26.25 52.5 29.6079 52.5 33.75C52.5 37.8921 49.1421 41.25 45 41.25C40.8579 41.25 37.5 37.8921 37.5 33.75Z" fill="#00C6D7"/>
<path fill-rule="evenodd" clip-rule="evenodd" d="M35.7519 48.6573C38.2196 46.3071 41.5477 45.002 45 45.002C48.4522 45.002 51.7804 46.3071 54.2481 48.6573C56.7188 51.0104 58.125 54.2221 58.125 57.5913V64.0199C58.125 65.0553 57.2856 65.8949 56.25 65.8949H53.3254L51.3469 77.2002C51.1899 78.0974 50.4109 78.752 49.5 78.752H40.5C39.5891 78.752 38.8101 78.0974 38.6531 77.2002L36.6746 65.8949H33.75C32.7144 65.8949 31.875 65.0553 31.875 64.0199V57.5913C31.875 54.2221 33.2812 51.0104 35.7519 48.6573ZM45 48.752C42.4849 48.752 40.0901 49.7043 38.3381 51.3728C36.5893 53.0384 35.625 55.2773 35.625 57.5913V62.1449H38.25C39.1609 62.1449 39.9399 62.7995 40.0969 63.6966L42.0754 75.002H47.9246L49.9031 63.6966C50.0601 62.7995 50.8391 62.1449 51.75 62.1449H54.375V57.5913C54.375 55.2773 53.4107 53.0384 51.6619 51.3728C49.9099 49.7043 47.5151 48.752 45 48.752Z" fill="#00C6D7"/>
<path fill-rule="evenodd" clip-rule="evenodd" d="M43.8711 11.6299C44.5393 11.126 45.4607 11.126 46.1289 11.63L76.9357 34.8633C76.9867 34.9017 77.0359 34.9428 77.0826 34.9863C78.072 35.9048 78.6681 37.1701 78.7468 38.5176C78.7489 38.554 78.75 38.5906 78.75 38.627V74.1059V74.1117C78.7462 75.3411 78.2561 76.5192 77.3867 77.3886C76.5173 78.2581 75.3392 78.7482 74.1097 78.752H74.1039H15.896H15.8903C14.6608 78.7482 13.4827 78.2581 12.6133 77.3886C11.7439 76.5192 11.2538 75.3411 11.25 74.1117V74.1059V38.6241C11.25 38.5876 11.2511 38.5512 11.2532 38.5148C11.3319 37.1671 11.9281 35.902 12.9174 34.9835C12.9642 34.94 13.0132 34.8989 13.0643 34.8605L43.8711 11.6299ZM15.4141 37.7851C15.1764 38.0298 15.0299 38.3493 15 38.6898V74.1023C15.0013 74.3405 15.0965 74.5686 15.2649 74.737C15.4334 74.9056 15.6617 75.0008 15.8999 75.002C15.9005 75.002 15.8994 75.002 15.8999 75.002H74.0983C74.0989 75.002 74.0978 75.002 74.0983 75.002C74.3366 75.0008 74.5665 74.9056 74.7351 74.737C74.9036 74.5685 74.9989 74.3403 75 74.102C75 74.1014 75 74.1025 75 74.102V38.6926C74.97 38.3521 74.8236 38.0326 74.5858 37.7879L45 15.4753L15.4141 37.7851Z" fill="#006A96"/>
</svg>
