<svg width="91" height="90" viewBox="0 0 91 90" fill="none" xmlns="http://www.w3.org/2000/svg">
<path fill-rule="evenodd" clip-rule="evenodd" d="M36.2591 50.5923C36.2599 51.6278 35.4212 52.468 34.3856 52.4688C33.3501 52.4697 32.5099 51.6308 32.5091 50.5954C32.5082 49.5599 33.3469 48.7197 34.3824 48.7188C35.418 48.718 36.2582 49.5567 36.2591 50.5923ZM45.6356 52.4596C45.6364 53.4951 44.7977 54.3353 43.7621 54.3361C42.7266 54.337 41.8864 53.4981 41.8856 52.4628C41.8847 51.4272 42.7236 50.587 43.7589 50.5861C44.7945 50.5853 45.6347 51.424 45.6356 52.4596ZM38.1433 61.8407C39.1787 61.8398 40.0176 60.9998 40.0166 59.9643C40.0159 58.9287 39.1757 58.0898 38.1401 58.0907C37.1046 58.0917 36.2659 58.9317 36.2666 59.9673C36.2676 61.0028 37.1078 61.8417 38.1433 61.8407ZM49.3901 58.0816C49.3911 59.1171 48.5522 59.9573 47.5166 59.9581C46.4813 59.959 45.6411 59.1201 45.6401 58.0846C45.6394 57.049 46.4781 56.209 47.5136 56.2081C48.5492 56.2073 49.3894 57.046 49.3901 58.0816ZM51.2728 67.4551C52.3084 67.4541 53.1473 66.6139 53.1463 65.5784C53.1454 64.543 52.3054 63.7041 51.2698 63.7051C50.2343 63.7058 49.3954 64.546 49.3963 65.5816C49.3973 66.6171 50.2373 67.4558 51.2728 67.4551ZM56.8901 58.0754C56.8911 59.1109 56.0522 59.9511 55.0166 59.9519C53.9813 59.9528 53.1411 59.1139 53.1401 58.0784C53.1394 57.043 53.9781 56.2028 55.0136 56.2019C56.0492 56.2011 56.8894 57.0398 56.8901 58.0754ZM41.8993 69.3378C42.9349 69.3368 43.7738 68.4966 43.7728 67.4611C43.7721 66.4257 42.9319 65.5868 41.8963 65.5878C40.8608 65.5885 40.0221 66.4287 40.0228 67.4642C40.0238 68.4998 40.8639 69.3385 41.8993 69.3378ZM34.3963 65.5938C34.3973 66.6293 33.5584 67.4695 32.5228 67.4704C31.4873 67.4712 30.6473 66.6325 30.6463 65.5969C30.6456 64.5614 31.4843 63.7212 32.5198 63.7204C33.5554 63.7195 34.3956 64.5584 34.3963 65.5938ZM28.7666 59.9734C29.8022 59.9725 30.6411 59.1325 30.6401 58.0969C30.6394 57.0614 29.7992 56.2225 28.7636 56.2234C27.7281 56.2242 26.8894 57.0644 26.8901 58.0999C26.8911 59.1355 27.7313 59.9742 28.7666 59.9734Z" fill="#00C6D7"/>
<path fill-rule="evenodd" clip-rule="evenodd" d="M42.854 11.252C44.4073 11.252 45.6665 12.5111 45.6665 14.0645V43.1269H49.4165V19.6895C49.4165 18.1361 50.6758 16.877 52.229 16.877C53.7823 16.877 55.0415 18.1361 55.0415 19.6895V48.9123C55.0415 52.4828 59.5595 54.0329 61.7516 51.2144L67.7263 43.5327C68.8786 42.0511 71.1243 42.0708 72.2506 43.5724C72.9483 44.5028 73.01 45.7639 72.4064 46.7581L58.8989 69.0004C55.2219 75.055 48.6517 78.7519 41.5679 78.7519C30.3695 78.7519 21.2915 69.6739 21.2915 58.4755V30.9394C21.2915 29.3862 22.5508 28.127 24.104 28.127C25.6573 28.127 26.9165 29.3862 26.9165 30.9394V47.0974H30.6665V19.6895C30.6665 18.1361 31.9258 16.877 33.479 16.877C35.0323 16.877 36.2915 18.1361 36.2915 19.6895V43.1269H40.0415V14.0645C40.0415 12.5111 41.3008 11.252 42.854 11.252ZM36.2984 13.7618C36.4565 10.2779 39.3311 7.50195 42.854 7.50195C46.3769 7.50195 49.2515 10.2779 49.4096 13.7618C50.2638 13.3548 51.2199 13.127 52.229 13.127C55.8534 13.127 58.7915 16.0651 58.7915 19.6895V48.9123L64.7662 41.2304C67.4366 37.7971 72.6408 37.8426 75.2506 41.3224C76.8676 43.4783 77.0105 46.4011 75.6116 48.7045L62.1041 70.9469C57.7471 78.1214 49.9618 82.5019 41.5679 82.5019C28.2986 82.5019 17.5415 71.7449 17.5415 58.4755V30.9394C17.5415 27.3151 20.4796 24.377 24.104 24.377C25.1105 24.377 26.0641 24.6035 26.9165 25.0084V19.6895C26.9165 16.0651 29.8546 13.127 33.479 13.127C34.4881 13.127 35.4442 13.3548 36.2984 13.7618Z" fill="#006A96"/>
</svg>
