<svg width="70" height="70" viewBox="0 0 70 70" fill="none" xmlns="http://www.w3.org/2000/svg">
<path d="M34.9999 25.4423C33.6956 24.7901 33.6951 24.791 33.6951 24.791L33.6935 24.7942L33.6903 24.8006L33.681 24.8196L33.6508 24.8825C33.6257 24.9351 33.5913 25.009 33.5496 25.1021C33.4662 25.2882 33.3532 25.5518 33.2286 25.8759C32.981 26.5196 32.6793 27.4218 32.4761 28.4376C32.0908 30.3643 31.9629 33.2177 33.9687 35.2235C34.8796 36.1344 35.0075 37.656 34.6636 39.3751C34.5022 40.1823 34.257 40.9206 34.0489 41.4618C33.9457 41.7303 33.8535 41.945 33.7888 42.0895C33.7565 42.1615 33.7312 42.2158 33.7148 42.2499L33.6976 42.2859L33.6951 42.2909C33.6951 42.2909 33.6956 42.2901 34.9999 42.9423C36.3042 43.5945 36.3051 43.5927 36.3051 43.5927L36.3063 43.5904L36.3095 43.5841L36.3188 43.565L36.349 43.5023C36.3741 43.4497 36.4085 43.3756 36.4502 43.2825C36.5336 43.0965 36.6467 42.8328 36.7712 42.5087C37.0188 41.865 37.3206 40.9628 37.5237 39.947C37.909 38.0203 38.0369 35.1669 36.0311 33.1611C35.1202 32.2502 34.9923 30.7286 35.3362 29.0095C35.4976 28.2023 35.7428 27.464 35.9509 26.9228C36.0541 26.6543 36.1463 26.4397 36.2111 26.2951C36.2433 26.2231 36.2687 26.1688 36.285 26.1347L36.3022 26.0987L36.3047 26.0937C36.3047 26.0937 36.3042 26.0945 34.9999 25.4423Z" fill="#00C6D7"/>
<path fill-rule="evenodd" clip-rule="evenodd" d="M5.83301 48.0482C5.83301 47.2427 6.48593 46.5898 7.29134 46.5898H62.708C63.5134 46.5898 64.1663 47.2427 64.1663 48.0482C64.1663 48.8536 63.5134 49.5065 62.708 49.5065H58.333C58.333 55.9499 53.1097 61.1732 46.6663 61.1732H23.333C16.8897 61.1732 11.6663 55.9499 11.6663 49.5065H7.29134C6.48593 49.5065 5.83301 48.8536 5.83301 48.0482ZM14.583 49.5065H55.4163C55.4163 54.339 51.4988 58.2565 46.6663 58.2565H23.333C18.5005 58.2565 14.583 54.339 14.583 49.5065Z" fill="#006A96"/>
<path d="M22.1241 28.2754C22.1241 28.2754 22.1248 28.2745 23.3335 29.0905C24.5422 29.9064 24.5428 29.9057 24.5428 29.9057L24.5248 29.9334C24.508 29.9595 24.4812 30.0021 24.4465 30.0591C24.3772 30.1737 24.2778 30.3453 24.1664 30.56C23.9402 30.9958 23.6801 31.5785 23.511 32.205C23.1597 33.5061 23.286 34.5321 24.2015 35.2103C26.5672 36.9627 26.4409 39.5826 25.9719 41.3196C25.7309 42.2122 25.3756 42.9965 25.0892 43.5482C24.9444 43.8273 24.813 44.0546 24.7157 44.2153C24.667 44.2958 24.6266 44.3601 24.5969 44.4063L24.5667 44.453L24.5607 44.462L24.549 44.4795L24.5451 44.4855L24.5435 44.4878C24.5435 44.4878 24.5422 44.4897 23.3335 43.6738C22.1248 42.8578 22.1243 42.8587 22.1243 42.8587L22.1422 42.8309C22.159 42.8048 22.1858 42.7623 22.2205 42.7052C22.2898 42.5905 22.3892 42.419 22.5006 42.2042C22.7268 41.7686 22.9869 41.1857 23.156 40.5592C23.5073 39.2581 23.381 38.2322 22.4655 37.554C20.0998 35.8016 20.2261 33.1817 20.6951 31.4446C20.9361 30.5521 21.2914 29.7677 21.5778 29.216C21.7226 28.937 21.854 28.7098 21.9513 28.549C22 28.4685 22.0404 28.4042 22.0701 28.3579C22.085 28.3349 22.0971 28.3162 22.1063 28.3022L22.118 28.2847L22.1219 28.2787L22.1241 28.2754Z" fill="#00C6D7"/>
<path d="M48.1245 29.0905C46.9159 28.2745 46.9151 28.2754 46.9151 28.2754L46.9129 28.2787L46.909 28.2847L46.8973 28.3022C46.8881 28.3162 46.876 28.3349 46.8612 28.3579C46.8314 28.4042 46.791 28.4685 46.7423 28.549C46.645 28.7098 46.5136 28.937 46.3688 29.216C46.0824 29.7677 45.7272 30.5521 45.4861 31.4446C45.0171 33.1817 44.8908 35.8016 47.2565 37.554C48.1721 38.2322 48.2983 39.2581 47.947 40.5592C47.7779 41.1857 47.5179 41.7686 47.2917 42.2042C47.1802 42.419 47.0808 42.5905 47.0114 42.7052C46.9768 42.7623 46.95 42.8048 46.9332 42.8309L46.9153 42.8587C46.9153 42.8587 46.9159 42.8578 48.1245 43.6738C49.3332 44.4897 49.3345 44.4878 49.3345 44.4878L49.3361 44.4855L49.34 44.4795L49.3517 44.462L49.3747 44.4267L49.3879 44.4063C49.4176 44.3601 49.458 44.2958 49.5067 44.2153C49.604 44.0546 49.7354 43.8273 49.8802 43.5482C50.1666 42.9965 50.5219 42.2122 50.7629 41.3196C51.2319 39.5826 51.3582 36.9627 48.9925 35.2103C48.077 34.5321 47.9507 33.5061 48.302 32.205C48.4712 31.5785 48.7312 30.9958 48.9574 30.56C49.0688 30.3453 49.1682 30.1737 49.2375 30.0591C49.2722 30.0021 49.2991 29.9595 49.3158 29.9334L49.3338 29.9057C49.3338 29.9057 49.3332 29.9064 48.1245 29.0905Z" fill="#00C6D7"/>
<path d="M56.8747 11.6673C56.8747 10.8619 56.2218 10.209 55.4163 10.209C54.6109 10.209 53.958 10.8619 53.958 11.6673V15.0256L55.6612 17.5804C56.108 18.2505 57.0135 18.4317 57.6836 17.985C58.3537 17.5381 58.5348 16.6327 58.0882 15.9625L56.8747 14.1424V11.6673Z" fill="#00C6D7"/>
<path fill-rule="evenodd" clip-rule="evenodd" d="M55.417 23.334C60.2495 23.334 64.167 19.4165 64.167 14.584C64.167 9.75149 60.2495 5.83398 55.417 5.83398C50.5845 5.83398 46.667 9.75149 46.667 14.584C46.667 19.4165 50.5845 23.334 55.417 23.334ZM55.417 20.4173C58.6386 20.4173 61.2503 17.8056 61.2503 14.584C61.2503 11.3623 58.6386 8.75065 55.417 8.75065C52.1954 8.75065 49.5837 11.3623 49.5837 14.584C49.5837 17.8056 52.1954 20.4173 55.417 20.4173Z" fill="#006A96"/>
</svg>
