<svg width="90" height="90" viewBox="0 0 90 90" fill="none" xmlns="http://www.w3.org/2000/svg">
<path fill-rule="evenodd" clip-rule="evenodd" d="M9.4261 22.5055C9.70756 27.5514 11.1437 30.6749 13.2469 32.5998C12.22 33.3646 11.6246 34.6484 11.8432 36.0365C12.9164 42.8514 15.5994 57.2664 21.0995 73.5149C22.1926 76.7444 26.5585 76.7444 27.6516 73.5149C33.1516 57.2664 35.8347 42.8514 36.908 36.0365C37.1264 34.6484 36.5311 33.3646 35.5041 32.5996C37.6073 30.6749 39.0434 27.5514 39.3248 22.5055C39.3826 21.4717 38.5332 20.62 37.4978 20.6349C34.4451 20.6787 32.0206 20.8642 30.1291 21.5C29.3483 19.4405 27.772 17.496 25.3998 15.721C24.7938 15.2675 23.9571 15.2675 23.3511 15.721C20.9982 17.4816 19.4281 19.4088 18.641 21.4497C16.8041 20.908 14.3988 20.6932 11.258 20.6382C10.2226 20.62 9.36842 21.4717 9.4261 22.5055ZM27.9021 26.2047L26.6226 22.8292C26.2683 21.8947 25.5758 20.8437 24.3755 19.7352C23.1876 20.8321 22.4973 21.8725 22.1397 22.7994L20.8958 26.0244L17.5802 25.0465C16.6021 24.7582 15.2665 24.5656 13.3902 24.4631C13.9476 28.0782 15.2876 29.6062 16.5091 30.3963C18.2557 31.5258 20.8006 31.8695 24.3194 31.873H24.4315C27.9505 31.8695 30.4953 31.5258 32.2418 30.3963C33.4645 29.6054 34.8059 28.0754 35.3624 24.4527C33.544 24.548 32.2675 24.7374 31.324 25.0544L27.9021 26.2047ZM15.5744 35.623H33.1767C32.6395 39.0119 31.7069 44.2466 30.2333 50.6231H22.5003V54.3731H29.3346C28.0396 59.5899 26.4087 65.4027 24.3755 71.4918C23.7113 69.5024 23.09 67.5423 22.5093 65.6231H24.3753V61.8731H21.4101C19.6148 55.5468 18.2716 49.7756 17.2898 44.998H22.5003V41.248H16.5518C16.1372 39.0427 15.8159 37.1465 15.5744 35.623Z" fill="#00C6D7"/>
<path d="M71.7046 52.5544C72.7092 52.8057 73.3201 53.8236 73.0688 54.8283C71.9635 59.2501 68.6264 62.587 64.2046 63.6925C63.2 63.9438 62.182 63.3329 61.931 62.3283C61.6797 61.3236 62.2906 60.3057 63.2952 60.0544C66.3734 59.2849 68.6613 56.9969 69.431 53.9187C69.682 52.9141 70.7 52.3034 71.7046 52.5544Z" fill="#006A96"/>
<path fill-rule="evenodd" clip-rule="evenodd" d="M61.2202 39.426C59.1412 34.5643 59.5016 29.3996 63.2008 25.7005L60.5492 23.0488C56.1816 27.4163 55.4231 33.1315 56.8881 38.3824C48.3086 34.5008 39.375 41.6391 39.375 52.4996C39.375 62.8549 48.6092 71.2496 60 71.2496C71.3908 71.2496 80.625 62.8549 80.625 52.4996C80.625 40.8368 70.3228 33.4665 61.2202 39.426ZM60 45.1144L57.6574 43.2403C54.1738 40.4533 50.7416 40.6082 48.1425 42.2136C45.3945 43.9108 43.125 47.545 43.125 52.4996C43.125 60.4555 50.3359 67.4996 60 67.4996C69.6641 67.4996 76.875 60.4555 76.875 52.4996C76.875 47.545 74.6055 43.9108 71.8575 42.2136C69.2584 40.6082 65.8262 40.4533 62.3426 43.2403L60 45.1144Z" fill="#006A96"/>
<path d="M63.75 33.748C69.375 33.748 73.125 29.998 73.125 24.373C67.5 24.373 63.75 28.123 63.75 33.748Z" fill="#00C6D7"/>
</svg>
