<svg width="91" height="90" viewBox="0 0 91 90" fill="none" xmlns="http://www.w3.org/2000/svg">
<path fill-rule="evenodd" clip-rule="evenodd" d="M43.8779 8H54.8779L54.8776 20.5161L54.7985 20.7701L54.7498 20.9193C54.8776 20.5161 54.7985 20.7701 54.7985 20.7701L54.7981 20.7713L54.7977 20.7727L54.7966 20.7762L54.7935 20.7861L54.7836 20.8168C54.7755 20.842 54.7642 20.8765 54.7498 20.9193C54.7211 21.0048 54.6799 21.1238 54.627 21.268C54.5218 21.5547 54.3668 21.9496 54.1675 22.3815C53.8084 23.1597 53.1639 24.3811 52.2039 25.1299C49.6384 27.1309 47.1589 27.4614 44.8543 27.7686C44.3665 27.8337 43.8866 27.8976 43.4153 27.9762C43.016 28.0427 42.5929 28.0727 42.2523 28.0968L42.2238 28.0988C41.8649 28.1242 41.565 28.1454 41.2785 28.1848C40.6592 28.27 40.4496 28.402 40.375 28.4777C40.0338 28.8242 39.8899 29.0235 39.8294 29.1509C39.8065 29.1992 39.8053 29.2182 39.8053 29.2182C39.8053 29.2182 39.8048 29.2245 39.8056 29.234C39.8061 29.2399 39.8072 29.2495 39.8099 29.2632C39.836 29.2952 39.9417 29.4079 40.2644 29.5594C40.7243 29.7753 41.3333 29.9268 41.9153 30.0238C43.2938 30.2536 44.1846 30.3775 45.0346 30.4957C45.0939 30.5039 45.153 30.5122 45.212 30.5204C46.1284 30.648 47.0278 30.7765 48.4348 31.0271C51.1946 31.5187 52.8359 31.8732 55.552 32.5522L55.5971 32.5635C56.548 32.8012 57.3997 33.0141 58.2072 33.3469C59.0723 33.7034 59.8402 34.1747 60.725 34.8866C60.7911 34.9398 60.8572 34.9929 60.9232 35.0459C63.0909 36.7875 65.1516 38.443 65.844 41.907C66.1007 43.1917 66.2527 44.2008 66.2527 45.25C66.2527 46.2992 66.1007 47.3083 65.844 48.593C65.6188 49.7194 65.3474 50.749 64.8781 51.7311C64.3996 52.7326 63.7529 53.6083 62.8594 54.4933C61.1464 56.1901 59.3607 56.6743 57.6793 57.1303C57.3269 57.2258 56.9791 57.3202 56.6375 57.4242C54.598 58.045 53.0775 58.1824 51.4095 58.3333C50.901 58.3792 50.3787 58.4265 49.8239 58.489C47.892 58.7067 46.3009 58.6732 44.8679 58.643C44.6856 58.6392 44.5059 58.6354 44.3284 58.6322C42.7563 58.6038 41.2943 58.6164 39.4575 58.9687C39.0086 59.0548 38.5447 59.1189 38.1315 59.1744C38.0815 59.1811 38.0323 59.1877 37.9839 59.1942C37.6151 59.2435 37.2934 59.2866 36.9989 59.3372C36.7502 59.38 36.5709 59.4203 36.4462 59.4561C36.4122 59.5267 36.3968 59.5764 36.3876 59.614C36.3688 59.6913 36.3504 59.8254 36.3727 60.1158C36.3928 60.3768 36.4738 60.5312 36.7311 60.7431C37.0694 61.0217 37.5335 61.2511 38.2929 61.6266C38.3292 61.6445 38.3662 61.6628 38.4039 61.6815C38.8973 61.9256 39.3067 61.9906 39.8407 61.9998C40.0672 62.0037 40.2863 61.9977 40.5563 61.9904C40.6514 61.9878 40.7527 61.9851 40.8629 61.9825C41.2623 61.9733 41.7262 61.969 42.2454 62.004C43.2117 62.069 43.9847 61.9863 44.8769 61.8909C45.0727 61.8699 45.2743 61.8483 45.4849 61.8276C46.6455 61.7132 47.9446 61.6485 49.5541 62.0527C49.7849 62.1107 50.0266 62.1643 50.2764 62.2197C51.7306 62.5422 53.4613 62.9261 54.9367 64.5883C55.7731 65.5306 56.2322 66.8675 56.4783 67.7456C56.6123 68.2238 56.7063 68.6543 56.7669 68.9656C56.7974 69.1221 56.82 69.2507 56.8353 69.3428C56.8429 69.3888 56.8488 69.4259 56.8529 69.4529L56.8579 69.4858L56.8594 69.4964L56.8602 69.5017C56.8602 69.5017 56.8353 69.3428 56.8779 69.6258V82.5H45.8779V74.5527C45.823 74.5537 45.7673 74.5547 45.7109 74.5557C44.5944 74.5745 43.1568 74.5759 42.0064 74.4958C41.5923 74.4669 41.194 74.4454 40.8046 74.4244C38.9263 74.3228 37.2544 74.2325 35.0112 73.3877C34.9281 73.3564 34.8453 73.3253 34.7627 73.2943C32.2629 72.3552 29.9987 71.5047 28.1648 68.7101C26.7774 66.596 26.2392 64.9068 25.895 62.4975C25.505 59.7678 25.5638 57.9082 26.4677 55.1966C27.2435 52.8693 28.2001 51.5502 29.9492 49.9565C31.6944 48.3663 33.0851 47.819 35.025 47.1071C36.4447 46.5862 38.2506 46.3198 39.5988 46.1778C40.2935 46.1047 40.9078 46.0606 41.3491 46.0348C41.5702 46.0219 41.7491 46.0135 41.8743 46.0082C41.9369 46.0056 41.9862 46.0038 42.0207 46.0026L42.0612 46.0012L42.0765 46.0008L42.0777 46.0007C42.0777 46.0007 42.0207 46.0026 42.0612 46.0012L42.0777 46.0007L42.1032 46H53.6716L53.7094 46.0019L53.7106 46.002L53.7124 46.002L53.7137 46.0021L53.7165 46.0022C53.7225 46.0024 53.7318 46.0027 53.7444 46.003C53.7509 46.0031 53.7582 46.0033 53.7663 46.0034C53.8143 46.0042 53.8889 46.0047 53.9819 46.0024C54.1728 45.9977 54.4177 45.9822 54.6605 45.9435C54.7863 45.9234 54.8928 45.9 54.9797 45.876C54.9675 45.858 54.9532 45.8383 54.9365 45.8169C54.8452 45.7 54.7195 45.581 54.584 45.4766C54.4445 45.369 54.3449 45.3152 54.3449 45.3152C54.2992 45.2924 54.2538 45.2697 54.2088 45.2471C53.2741 44.7792 52.4625 44.373 51.0742 43.9102C50.9206 43.859 50.4756 43.7858 49.5882 43.6967C49.292 43.6669 48.9442 43.635 48.5666 43.6003C47.9685 43.5454 47.2958 43.4836 46.6356 43.4129C44.4354 43.1772 41.7238 42.7846 39.4706 41.872C38.9087 41.6444 38.334 41.4405 37.7561 41.2354C35.1525 40.3113 32.4826 39.3638 30.6124 36.1251C29.6325 34.428 29.0449 32.7939 28.8666 31.0575C28.6893 29.3308 28.9284 27.6165 29.4426 25.7785C29.905 24.1258 30.5197 22.8028 31.3839 21.6053C32.2343 20.4268 33.2794 19.4363 34.503 18.4095C36.4086 16.8103 39.2414 15.8594 41.3794 15.3081C42.326 15.0639 43.194 14.8843 43.8779 14.7585V8ZM45.8411 17.987L45.831 17.9883L45.7827 17.9946C45.7384 18.0005 45.6703 18.0099 45.581 18.0229C45.4023 18.049 45.1392 18.0897 44.8118 18.1468C44.1554 18.2613 43.2496 18.4403 42.2534 18.6972C40.1838 19.2309 38.0166 20.03 36.7528 21.0905C35.6115 22.0483 34.8225 22.8213 34.2221 23.6533C33.6354 24.4663 33.1826 25.401 32.8132 26.7215C32.3746 28.2891 32.2295 29.5436 32.3483 30.6999C32.4661 31.8465 32.8549 33.0095 33.6434 34.3749C34.8234 36.4183 36.1221 36.8923 38.5203 37.7675C39.1839 38.0097 39.9317 38.2826 40.7845 38.628C42.5498 39.343 44.8382 39.7003 47.0084 39.9328C47.6667 40.0033 48.2577 40.0573 48.8185 40.1086C49.2018 40.1436 49.5709 40.1774 49.9378 40.2142C50.7193 40.2927 51.5845 40.391 52.181 40.5898C53.8081 41.1322 54.8041 41.6309 55.7635 42.1114C55.8125 42.1359 55.8614 42.1603 55.9102 42.1848C56.301 42.3802 57.0862 42.8828 57.6954 43.6632C58.3406 44.4897 58.946 45.8792 58.221 47.4742C57.8601 48.2683 57.2096 48.7141 56.7006 48.9583C56.1843 49.206 55.6423 49.3311 55.212 49.3997C54.7687 49.4705 54.3594 49.4942 54.0677 49.5013C53.9194 49.505 53.7955 49.5044 53.7054 49.5029C53.6602 49.5021 53.6232 49.501 53.5954 49.5001L53.5935 49.5H42.1559L42.1421 49.5005C42.1155 49.5014 42.0746 49.5029 42.0207 49.5051C41.9129 49.5097 41.7534 49.5172 41.5535 49.5288C41.1528 49.5523 40.5942 49.5924 39.9654 49.6586C38.6663 49.7954 37.2222 50.0291 36.2308 50.3929C34.3961 51.0661 33.5334 51.4257 32.3066 52.5435C30.9333 53.7949 30.3481 54.6233 29.7881 56.3034C29.0865 58.4081 29.0318 59.7064 29.3598 62.0025C29.6453 64.0011 30.0354 65.1813 31.091 66.7899C32.2866 68.6118 33.572 69.1058 36.2446 70.1123C37.9506 70.7547 39.0584 70.8173 40.8702 70.9196C41.2874 70.9432 41.7418 70.9689 42.2494 71.0042C43.2417 71.0733 44.5541 71.0747 45.6519 71.0562C46.1937 71.0471 46.6704 71.0334 47.0113 71.022C47.1816 71.0163 47.3176 71.0111 47.4105 71.0075L47.5161 71.0032L47.5488 71.0018L47.5501 71.0017L49.3779 70.9205V79H53.3779V69.8885C53.3673 69.8261 53.352 69.74 53.3316 69.6353C53.2841 69.3915 53.2107 69.056 53.1081 68.6902C52.8811 67.8802 52.5902 67.2171 52.3191 66.9117C51.6391 66.1456 51.0866 66.0154 49.7039 65.6894C49.4103 65.6202 49.0793 65.5421 48.7017 65.4473C47.6598 65.1857 46.8227 65.2127 45.828 65.3107C45.6684 65.3265 45.501 65.3447 45.3258 65.3638C44.4201 65.4624 43.3085 65.5834 42.0104 65.496C41.6475 65.4716 41.306 65.4732 40.9439 65.4816C40.8691 65.4833 40.79 65.4855 40.7079 65.4877C40.4189 65.4956 40.0922 65.5046 39.7805 65.4992C38.9019 65.4841 37.9433 65.3585 36.8519 64.8185C36.7875 64.7867 36.7204 64.7538 36.651 64.7197C36.0101 64.4055 35.1762 63.9966 34.5062 63.4449C33.6665 62.7534 32.9901 61.7752 32.8831 60.3842C32.8436 59.8719 32.8519 59.3409 32.9869 58.7863C33.1236 58.2246 33.3658 57.7383 33.6718 57.2793C34.0922 56.6488 34.7232 56.3572 35.1081 56.2139C35.5347 56.055 35.9998 55.9577 36.4058 55.8878C36.7697 55.8253 37.1617 55.7729 37.5211 55.7249C37.57 55.7184 37.6182 55.7119 37.6656 55.7056C38.0809 55.6498 38.4565 55.5969 38.7983 55.5313C40.9932 55.1104 42.7415 55.1029 44.3917 55.1327C44.5775 55.1361 44.7613 55.1399 44.9439 55.1436C46.3815 55.1732 47.7445 55.2012 49.4319 55.011C50.139 54.9313 50.7438 54.8762 51.2909 54.8263C52.8557 54.6836 53.9493 54.5839 55.6183 54.0758C56.1488 53.9144 56.6102 53.7854 57.0198 53.6709C58.5737 53.2366 59.3831 53.0103 60.3964 52.0067C61.0539 51.3554 61.4433 50.8015 61.7201 50.2222C62.0061 49.6236 62.2091 48.9213 62.4118 47.907C62.6547 46.6917 62.7527 45.9508 62.7527 45.25C62.7527 44.5492 62.6547 43.8083 62.4118 42.593C61.9772 40.4183 60.8555 39.4839 58.5308 37.6134C57.8493 37.0651 57.3671 36.7863 56.8736 36.5829C56.3352 36.361 55.734 36.2055 54.7031 35.9478C52.0613 35.2873 50.4984 34.9498 47.821 34.4729C46.4756 34.2332 45.6248 34.1117 44.7291 33.9869C44.6699 33.9787 44.6105 33.9704 44.5507 33.9621C43.6951 33.8431 42.7655 33.7138 41.3399 33.4762C40.6298 33.3578 39.659 33.1417 38.7771 32.7277C37.9427 32.336 36.8095 31.5858 36.4377 30.205C35.8947 28.1878 37.1132 26.802 37.8808 26.0223C38.7907 25.098 39.9719 24.8315 40.8018 24.7174C41.2065 24.6618 41.6118 24.6333 41.9408 24.6101C41.962 24.6086 41.983 24.6071 42.0036 24.6057C42.373 24.5795 42.6307 24.5587 42.8398 24.5238C43.5038 24.4131 44.1031 24.3295 44.6548 24.2525C46.8466 23.9466 48.2879 23.7455 50.0513 22.3701C50.2937 22.181 50.6493 21.6524 50.9895 20.915C51.1399 20.5892 51.2595 20.285 51.3414 20.0619C51.3545 20.0261 51.3666 19.9927 51.3776 19.9618L51.3778 11.5H47.3779V17.7979L45.8411 17.987Z" fill="#006A96"/>
</svg>
