<svg width="91" height="90" viewBox="0 0 91 90" fill="none" xmlns="http://www.w3.org/2000/svg">
<path fill-rule="evenodd" clip-rule="evenodd" d="M45.333 22.498C48.4397 22.498 50.958 19.9797 50.958 16.873C50.958 13.7665 48.4397 11.248 45.333 11.248C42.2263 11.248 39.708 13.7665 39.708 16.873C39.708 19.9797 42.2263 22.498 45.333 22.498ZM45.333 26.248C50.5106 26.248 54.708 22.0507 54.708 16.873C54.708 11.6954 50.5106 7.49805 45.333 7.49805C40.1554 7.49805 35.958 11.6954 35.958 16.873C35.958 22.0507 40.1554 26.248 45.333 26.248Z" fill="#00C6D7"/>
<path fill-rule="evenodd" clip-rule="evenodd" d="M32.9092 34.3408C34.678 34.6776 35.9579 36.2241 35.9579 38.0248V76.8763C35.9579 77.9119 36.7973 78.7513 37.8329 78.7513H37.9957C38.9654 78.7513 39.7752 78.0118 39.863 77.046L41.5829 58.1263C41.5883 56.0591 43.2657 54.3861 45.3329 54.3861C47.4001 54.3861 49.0775 56.059 49.0829 58.1261L50.8028 77.046C50.8906 78.0118 51.7004 78.7513 52.6702 78.7513H52.8329C53.8685 78.7513 54.7079 77.9119 54.7079 76.8763V38.0955C54.7079 36.2946 55.9882 34.7481 57.7574 34.4115C61.0499 33.7855 64.5314 32.9166 68.3575 31.8015C69.3518 31.5118 69.9228 30.471 69.6331 29.4767C69.3434 28.4826 68.3026 27.9116 67.3083 28.2013C58.6193 30.7337 51.953 31.9056 45.341 31.876C38.7222 31.8461 32.0478 30.6124 23.3343 28.1948C22.3364 27.9178 21.3031 28.5023 21.0262 29.5001C20.7494 30.498 21.3339 31.5313 22.3317 31.8081C26.1438 32.866 29.6178 33.7144 32.9092 34.3408ZM43.4165 78.381C42.7538 80.776 40.5614 82.5013 37.9957 82.5013H37.8329C34.7262 82.5013 32.2079 79.983 32.2079 76.8763V38.0248C28.7845 37.3733 25.2054 36.4973 21.329 35.4216C18.3355 34.591 16.5821 31.491 17.4128 28.4974C18.2434 25.504 21.3434 23.7506 24.3369 24.5813C32.9045 26.9586 39.215 28.0984 45.3577 28.126C51.4807 28.1533 57.7668 27.0761 66.259 24.6011C69.2416 23.7319 72.364 25.4451 73.2333 28.4275C74.1025 31.41 72.3893 34.5325 69.4068 35.4017C65.4989 36.5406 61.8976 37.4415 58.4579 38.0955V76.8763C58.4579 79.983 55.9396 82.5013 52.8329 82.5013H52.6702C50.1044 82.5013 47.912 80.776 47.2493 78.381C47.1886 78.1609 47.1406 77.9351 47.1063 77.7045C47.0907 77.5993 47.078 77.4928 47.0682 77.3856L45.3483 58.4659C45.3383 58.3556 45.3333 58.2458 45.3329 58.1361C45.3325 58.2458 45.3275 58.3556 45.3175 58.4659L43.5976 77.3856C43.5878 77.4928 43.5751 77.5993 43.5595 77.7045C43.5252 77.9351 43.4772 78.1609 43.4165 78.381Z" fill="#006A96"/>
</svg>
