<svg width="91" height="90" viewBox="0 0 91 90" fill="none" xmlns="http://www.w3.org/2000/svg">
<path d="M23.6353 11.25C20.5272 11.25 17.5465 12.4847 15.3488 14.6823C13.1512 16.88 11.9165 19.8607 11.9165 22.9688V67.0312C11.9165 70.1393 13.1512 73.12 15.3488 75.3177C17.5465 77.5154 20.5272 78.75 23.6353 78.75H45.749C44.8115 77.2875 44.0259 75.7162 43.4165 74.0625H23.6353C21.7705 74.0625 19.982 73.3217 18.6634 72.0031C17.3448 70.6845 16.604 68.8961 16.604 67.0312V22.9688C16.604 21.1039 17.3448 19.3155 18.6634 17.9969C19.982 16.6783 21.7705 15.9375 23.6353 15.9375H67.6978C69.5626 15.9375 71.351 16.6783 72.6696 17.9969C73.9882 19.3155 74.729 21.1039 74.729 22.9688V42.75C76.3828 43.3594 77.954 44.145 79.4165 45.0825V22.9688C79.4165 19.8607 78.1819 16.88 75.9842 14.6823C73.7865 12.4847 70.8058 11.25 67.6978 11.25H23.6353ZM66.2915 41.25C66.9009 41.25 67.5065 41.2725 68.1046 41.3156C68.1852 40.9717 68.1869 40.6141 68.1098 40.2694C68.0326 39.9247 67.8786 39.6019 67.6592 39.3252C67.4397 39.0484 67.1606 38.8248 66.8426 38.6711C66.5246 38.5174 66.176 38.4375 65.8228 38.4375H46.1353C45.5137 38.4375 44.9175 38.6844 44.478 39.124C44.0384 39.5635 43.7915 40.1596 43.7915 40.7812C43.7915 41.4029 44.0384 41.999 44.478 42.4385C44.9175 42.8781 45.5137 43.125 46.1353 43.125H56.8996C59.8749 41.8832 63.0675 41.2458 66.2915 41.25ZM23.1665 24.8438C23.1665 23.55 24.2165 22.5 25.5103 22.5H65.8228C66.4444 22.5 67.0405 22.7469 67.48 23.1865C67.9196 23.626 68.1665 24.2221 68.1665 24.8438C68.1665 25.4654 67.9196 26.0615 67.48 26.501C67.0405 26.9406 66.4444 27.1875 65.8228 27.1875H25.5103C24.2165 27.1875 23.1665 26.1375 23.1665 24.8438ZM40.0415 40.3125C40.0415 41.4205 39.8233 42.5177 39.3992 43.5414C38.9752 44.5651 38.3537 45.4952 37.5702 46.2787C36.7867 47.0622 35.8566 47.6837 34.8329 48.1077C33.8092 48.5318 32.712 48.75 31.604 48.75C30.496 48.75 29.3988 48.5318 28.3751 48.1077C27.3514 47.6837 26.4213 47.0622 25.6378 46.2787C24.8543 45.4952 24.2328 44.5651 23.8088 43.5414C23.3847 42.5177 23.1665 41.4205 23.1665 40.3125C23.1665 38.0747 24.0555 35.9286 25.6378 34.3463C27.2201 32.7639 29.3662 31.875 31.604 31.875C33.8418 31.875 35.9879 32.7639 37.5702 34.3463C39.1526 35.9286 40.0415 38.0747 40.0415 40.3125ZM35.354 40.3125C35.354 39.3179 34.9589 38.3641 34.2557 37.6609C33.5524 36.9576 32.5986 36.5625 31.604 36.5625C30.6094 36.5625 29.6556 36.9576 28.9524 37.6609C28.2491 38.3641 27.854 39.3179 27.854 40.3125C27.854 41.3071 28.2491 42.2609 28.9524 42.9641C29.6556 43.6674 30.6094 44.0625 31.604 44.0625C32.5986 44.0625 33.5524 43.6674 34.2557 42.9641C34.9589 42.2609 35.354 41.3071 35.354 40.3125ZM31.604 69.375C33.8418 69.375 35.9879 68.486 37.5702 66.9037C39.1526 65.3214 40.0415 63.1753 40.0415 60.9375C40.0415 58.6997 39.1526 56.5536 37.5702 54.9713C35.9879 53.389 33.8418 52.5 31.604 52.5C29.3662 52.5 27.2201 53.389 25.6378 54.9713C24.0555 56.5536 23.1665 58.6997 23.1665 60.9375C23.1665 63.1753 24.0555 65.3214 25.6378 66.9037C27.2201 68.486 29.3662 69.375 31.604 69.375ZM31.604 64.6875C30.6094 64.6875 29.6556 64.2924 28.9524 63.5892C28.2491 62.8859 27.854 61.9321 27.854 60.9375C27.854 59.9429 28.2491 58.9891 28.9524 58.2859C29.6556 57.5826 30.6094 57.1875 31.604 57.1875C32.5986 57.1875 33.5524 57.5826 34.2557 58.2859C34.9589 58.9891 35.354 59.9429 35.354 60.9375C35.354 61.9321 34.9589 62.8859 34.2557 63.5892C33.5524 64.2924 32.5986 64.6875 31.604 64.6875Z" fill="#006A96"/>
<circle cx="66.2915" cy="65.625" r="20.625" fill="#006A96"/>
<path d="M66.3024 60H69.2649L57.4711 71.775C57.2954 71.9493 57.1559 72.1567 57.0607 72.3852C56.9655 72.6137 56.9165 72.8587 56.9165 73.1062C56.9165 73.3538 56.9655 73.5988 57.0607 73.8273C57.1559 74.0558 57.2954 74.2632 57.4711 74.4375C57.6454 74.6132 57.8528 74.7527 58.0813 74.8479C58.3098 74.9431 58.5549 74.9921 58.8024 74.9921C59.0499 74.9921 59.295 74.9431 59.5235 74.8479C59.7519 74.7527 59.9593 74.6132 60.1336 74.4375L71.9274 62.6625V65.625C71.9274 66.1223 72.1249 66.5992 72.4765 66.9508C72.8282 67.3025 73.3051 67.5 73.8024 67.5C74.2997 67.5 74.7766 67.3025 75.1282 66.9508C75.4798 66.5992 75.6774 66.1223 75.6774 65.625V58.125C75.6774 57.6277 75.4798 57.1508 75.1282 56.7992C74.7766 56.4475 74.2997 56.25 73.8024 56.25H66.3024C65.8051 56.25 65.3282 56.4475 64.9766 56.7992C64.6249 57.1508 64.4274 57.6277 64.4274 58.125C64.4274 58.6223 64.6249 59.0992 64.9766 59.4508C65.3282 59.8025 65.8051 60 66.3024 60Z" fill="#00C6D7"/>
</svg>
