<svg width="91" height="90" viewBox="0 0 91 90" fill="none" xmlns="http://www.w3.org/2000/svg">
<mask id="path-1-outside-1_3071_1931" maskUnits="userSpaceOnUse" x="27.6665" y="4" width="53" height="53" fill="black">
<rect fill="white" x="27.6665" y="4" width="53" height="53"/>
<path fill-rule="evenodd" clip-rule="evenodd" d="M51.4478 5C50.7487 5 50.1821 5.56665 50.1821 6.26562C50.1821 6.9646 50.7487 7.53125 51.4478 7.53125H52.7134V11.3696C48.4232 11.652 44.5223 13.3596 41.4796 16.0233L38.7652 13.3088L39.6601 12.4139C40.1543 11.9197 40.1543 11.1183 39.6601 10.6241C39.1659 10.1298 38.3645 10.1298 37.8703 10.6241L34.2905 14.2038C33.7962 14.6981 33.7962 15.4994 34.2905 15.9937C34.7848 16.488 35.5861 16.488 36.0804 15.9937L36.9753 15.0987L39.6897 17.8132C37.026 20.8559 35.3184 24.7569 35.0361 29.0471H31.1978V27.7815C31.1978 27.0826 30.6311 26.5159 29.9321 26.5159C29.2331 26.5159 28.6665 27.0826 28.6665 27.7815V32.844C28.6665 33.543 29.2331 34.1096 29.9321 34.1096C30.6311 34.1096 31.1978 33.543 31.1978 32.844V31.5784H35.0362C35.3186 35.8685 37.0261 39.7691 39.6897 42.8117L36.9752 45.5262L36.0803 44.6313C35.586 44.137 34.7847 44.137 34.2904 44.6313C33.7962 45.1255 33.7962 45.9269 34.2904 46.4211L37.8701 50.0008C38.3644 50.4952 39.1657 50.4952 39.66 50.0008C40.1543 49.5066 40.1543 48.7052 39.66 48.211L38.7651 47.316L41.4796 44.6017C44.5223 47.2654 48.4232 48.973 52.7134 49.2554V53.0938H51.4478C50.7487 53.0938 50.1821 53.6604 50.1821 54.3594C50.1821 55.0584 50.7487 55.625 51.4478 55.625H56.5103C57.2093 55.625 57.7759 55.0584 57.7759 54.3594C57.7759 53.6604 57.2093 53.0938 56.5103 53.0938H55.2446V49.2554C59.5347 48.973 63.4356 47.2654 66.4783 44.6018L69.1928 47.3163L68.2979 48.2112C67.8037 48.7054 67.8037 49.5068 68.2979 50.0011C68.7921 50.4953 69.5935 50.4953 70.0878 50.0011L73.6674 46.4214C74.1618 45.9272 74.1618 45.1258 73.6674 44.6315C73.1732 44.1372 72.372 44.1372 71.8776 44.6315L70.9827 45.5265L68.2682 42.8119C70.9319 39.7692 72.6394 35.8685 72.9219 31.5784H76.7603V32.844C76.7603 33.543 77.3269 34.1096 78.0259 34.1096C78.7249 34.1096 79.2915 33.543 79.2915 32.844V27.7815C79.2915 27.0826 78.7249 26.5159 78.0259 26.5159C77.3269 26.5159 76.7603 27.0826 76.7603 27.7815V29.0471H72.9219C72.6395 24.7568 70.9319 20.8558 68.2682 17.8131L70.9827 15.0985L71.8776 15.9935C72.3718 16.4877 73.1732 16.4877 73.6674 15.9935C74.1617 15.4991 74.1617 14.6979 73.6674 14.2036L70.0878 10.6238C69.5934 10.1296 68.7921 10.1296 68.2979 10.6238C67.8036 11.1181 67.8036 11.9195 68.2979 12.4137L69.1928 13.3087L66.4782 16.0232C63.4356 13.3595 59.5347 11.652 55.2446 11.3696V7.53125H56.5103C57.2093 7.53125 57.7759 6.9646 57.7759 6.26562C57.7759 5.56665 57.2093 5 56.5103 5H51.4478ZM43.2741 17.8177C45.8518 15.6072 49.1214 14.1806 52.7134 13.9073V15.125C52.7134 15.824 53.28 16.3906 53.979 16.3906C54.678 16.3906 55.2446 15.824 55.2446 15.125V13.9073C58.8366 14.1806 62.1061 15.6072 64.6838 17.8176L63.8232 18.6782C63.3289 19.1725 63.3289 19.9739 63.8232 20.4681C64.3174 20.9623 65.1188 20.9623 65.613 20.4681L66.4736 19.6075C68.6843 22.1853 70.111 25.455 70.3842 29.0471H69.1665C68.4675 29.0471 67.9009 29.6139 67.9009 30.3128C67.9009 31.0118 68.4675 31.5784 69.1665 31.5784H70.3842C70.1108 35.1703 68.6842 38.4398 66.4738 41.0174L65.6131 40.1568C65.1189 39.6626 64.3175 39.6626 63.8233 40.1568C63.3289 40.6511 63.3289 41.4524 63.8233 41.9468L64.6839 42.8074C62.1062 45.0178 58.8366 46.4444 55.2446 46.7177V45.5C55.2446 44.801 54.678 44.2344 53.979 44.2344C53.28 44.2344 52.7134 44.801 52.7134 45.5V46.7177C49.1213 46.4444 45.8517 45.0178 43.274 42.8071L44.1347 41.9465C44.6289 41.4521 44.6289 40.6509 44.1347 40.1567C43.6404 39.6623 42.8391 39.6623 42.3449 40.1567L41.4841 41.0173C39.2737 38.4397 37.8472 35.1702 37.5738 31.5784H38.7915C39.4905 31.5784 40.0571 31.0118 40.0571 30.3128C40.0571 29.6139 39.4905 29.0471 38.7915 29.0471H37.5738C37.847 25.455 39.2736 22.1854 41.4841 19.6076L42.3449 20.4683C42.8391 20.9626 43.6405 20.9626 44.1347 20.4683C44.6289 19.9741 44.6289 19.1727 44.1347 18.6785L43.2741 17.8177Z"/>
</mask>
<path fill-rule="evenodd" clip-rule="evenodd" d="M51.4478 5C50.7487 5 50.1821 5.56665 50.1821 6.26562C50.1821 6.9646 50.7487 7.53125 51.4478 7.53125H52.7134V11.3696C48.4232 11.652 44.5223 13.3596 41.4796 16.0233L38.7652 13.3088L39.6601 12.4139C40.1543 11.9197 40.1543 11.1183 39.6601 10.6241C39.1659 10.1298 38.3645 10.1298 37.8703 10.6241L34.2905 14.2038C33.7962 14.6981 33.7962 15.4994 34.2905 15.9937C34.7848 16.488 35.5861 16.488 36.0804 15.9937L36.9753 15.0987L39.6897 17.8132C37.026 20.8559 35.3184 24.7569 35.0361 29.0471H31.1978V27.7815C31.1978 27.0826 30.6311 26.5159 29.9321 26.5159C29.2331 26.5159 28.6665 27.0826 28.6665 27.7815V32.844C28.6665 33.543 29.2331 34.1096 29.9321 34.1096C30.6311 34.1096 31.1978 33.543 31.1978 32.844V31.5784H35.0362C35.3186 35.8685 37.0261 39.7691 39.6897 42.8117L36.9752 45.5262L36.0803 44.6313C35.586 44.137 34.7847 44.137 34.2904 44.6313C33.7962 45.1255 33.7962 45.9269 34.2904 46.4211L37.8701 50.0008C38.3644 50.4952 39.1657 50.4952 39.66 50.0008C40.1543 49.5066 40.1543 48.7052 39.66 48.211L38.7651 47.316L41.4796 44.6017C44.5223 47.2654 48.4232 48.973 52.7134 49.2554V53.0938H51.4478C50.7487 53.0938 50.1821 53.6604 50.1821 54.3594C50.1821 55.0584 50.7487 55.625 51.4478 55.625H56.5103C57.2093 55.625 57.7759 55.0584 57.7759 54.3594C57.7759 53.6604 57.2093 53.0938 56.5103 53.0938H55.2446V49.2554C59.5347 48.973 63.4356 47.2654 66.4783 44.6018L69.1928 47.3163L68.2979 48.2112C67.8037 48.7054 67.8037 49.5068 68.2979 50.0011C68.7921 50.4953 69.5935 50.4953 70.0878 50.0011L73.6674 46.4214C74.1618 45.9272 74.1618 45.1258 73.6674 44.6315C73.1732 44.1372 72.372 44.1372 71.8776 44.6315L70.9827 45.5265L68.2682 42.8119C70.9319 39.7692 72.6394 35.8685 72.9219 31.5784H76.7603V32.844C76.7603 33.543 77.3269 34.1096 78.0259 34.1096C78.7249 34.1096 79.2915 33.543 79.2915 32.844V27.7815C79.2915 27.0826 78.7249 26.5159 78.0259 26.5159C77.3269 26.5159 76.7603 27.0826 76.7603 27.7815V29.0471H72.9219C72.6395 24.7568 70.9319 20.8558 68.2682 17.8131L70.9827 15.0985L71.8776 15.9935C72.3718 16.4877 73.1732 16.4877 73.6674 15.9935C74.1617 15.4991 74.1617 14.6979 73.6674 14.2036L70.0878 10.6238C69.5934 10.1296 68.7921 10.1296 68.2979 10.6238C67.8036 11.1181 67.8036 11.9195 68.2979 12.4137L69.1928 13.3087L66.4782 16.0232C63.4356 13.3595 59.5347 11.652 55.2446 11.3696V7.53125H56.5103C57.2093 7.53125 57.7759 6.9646 57.7759 6.26562C57.7759 5.56665 57.2093 5 56.5103 5H51.4478ZM43.2741 17.8177C45.8518 15.6072 49.1214 14.1806 52.7134 13.9073V15.125C52.7134 15.824 53.28 16.3906 53.979 16.3906C54.678 16.3906 55.2446 15.824 55.2446 15.125V13.9073C58.8366 14.1806 62.1061 15.6072 64.6838 17.8176L63.8232 18.6782C63.3289 19.1725 63.3289 19.9739 63.8232 20.4681C64.3174 20.9623 65.1188 20.9623 65.613 20.4681L66.4736 19.6075C68.6843 22.1853 70.111 25.455 70.3842 29.0471H69.1665C68.4675 29.0471 67.9009 29.6139 67.9009 30.3128C67.9009 31.0118 68.4675 31.5784 69.1665 31.5784H70.3842C70.1108 35.1703 68.6842 38.4398 66.4738 41.0174L65.6131 40.1568C65.1189 39.6626 64.3175 39.6626 63.8233 40.1568C63.3289 40.6511 63.3289 41.4524 63.8233 41.9468L64.6839 42.8074C62.1062 45.0178 58.8366 46.4444 55.2446 46.7177V45.5C55.2446 44.801 54.678 44.2344 53.979 44.2344C53.28 44.2344 52.7134 44.801 52.7134 45.5V46.7177C49.1213 46.4444 45.8517 45.0178 43.274 42.8071L44.1347 41.9465C44.6289 41.4521 44.6289 40.6509 44.1347 40.1567C43.6404 39.6623 42.8391 39.6623 42.3449 40.1567L41.4841 41.0173C39.2737 38.4397 37.8472 35.1702 37.5738 31.5784H38.7915C39.4905 31.5784 40.0571 31.0118 40.0571 30.3128C40.0571 29.6139 39.4905 29.0471 38.7915 29.0471H37.5738C37.847 25.455 39.2736 22.1854 41.4841 19.6076L42.3449 20.4683C42.8391 20.9626 43.6405 20.9626 44.1347 20.4683C44.6289 19.9741 44.6289 19.1727 44.1347 18.6785L43.2741 17.8177Z" fill="#006A96"/>
<path fill-rule="evenodd" clip-rule="evenodd" d="M51.4478 5C50.7487 5 50.1821 5.56665 50.1821 6.26562C50.1821 6.9646 50.7487 7.53125 51.4478 7.53125H52.7134V11.3696C48.4232 11.652 44.5223 13.3596 41.4796 16.0233L38.7652 13.3088L39.6601 12.4139C40.1543 11.9197 40.1543 11.1183 39.6601 10.6241C39.1659 10.1298 38.3645 10.1298 37.8703 10.6241L34.2905 14.2038C33.7962 14.6981 33.7962 15.4994 34.2905 15.9937C34.7848 16.488 35.5861 16.488 36.0804 15.9937L36.9753 15.0987L39.6897 17.8132C37.026 20.8559 35.3184 24.7569 35.0361 29.0471H31.1978V27.7815C31.1978 27.0826 30.6311 26.5159 29.9321 26.5159C29.2331 26.5159 28.6665 27.0826 28.6665 27.7815V32.844C28.6665 33.543 29.2331 34.1096 29.9321 34.1096C30.6311 34.1096 31.1978 33.543 31.1978 32.844V31.5784H35.0362C35.3186 35.8685 37.0261 39.7691 39.6897 42.8117L36.9752 45.5262L36.0803 44.6313C35.586 44.137 34.7847 44.137 34.2904 44.6313C33.7962 45.1255 33.7962 45.9269 34.2904 46.4211L37.8701 50.0008C38.3644 50.4952 39.1657 50.4952 39.66 50.0008C40.1543 49.5066 40.1543 48.7052 39.66 48.211L38.7651 47.316L41.4796 44.6017C44.5223 47.2654 48.4232 48.973 52.7134 49.2554V53.0938H51.4478C50.7487 53.0938 50.1821 53.6604 50.1821 54.3594C50.1821 55.0584 50.7487 55.625 51.4478 55.625H56.5103C57.2093 55.625 57.7759 55.0584 57.7759 54.3594C57.7759 53.6604 57.2093 53.0938 56.5103 53.0938H55.2446V49.2554C59.5347 48.973 63.4356 47.2654 66.4783 44.6018L69.1928 47.3163L68.2979 48.2112C67.8037 48.7054 67.8037 49.5068 68.2979 50.0011C68.7921 50.4953 69.5935 50.4953 70.0878 50.0011L73.6674 46.4214C74.1618 45.9272 74.1618 45.1258 73.6674 44.6315C73.1732 44.1372 72.372 44.1372 71.8776 44.6315L70.9827 45.5265L68.2682 42.8119C70.9319 39.7692 72.6394 35.8685 72.9219 31.5784H76.7603V32.844C76.7603 33.543 77.3269 34.1096 78.0259 34.1096C78.7249 34.1096 79.2915 33.543 79.2915 32.844V27.7815C79.2915 27.0826 78.7249 26.5159 78.0259 26.5159C77.3269 26.5159 76.7603 27.0826 76.7603 27.7815V29.0471H72.9219C72.6395 24.7568 70.9319 20.8558 68.2682 17.8131L70.9827 15.0985L71.8776 15.9935C72.3718 16.4877 73.1732 16.4877 73.6674 15.9935C74.1617 15.4991 74.1617 14.6979 73.6674 14.2036L70.0878 10.6238C69.5934 10.1296 68.7921 10.1296 68.2979 10.6238C67.8036 11.1181 67.8036 11.9195 68.2979 12.4137L69.1928 13.3087L66.4782 16.0232C63.4356 13.3595 59.5347 11.652 55.2446 11.3696V7.53125H56.5103C57.2093 7.53125 57.7759 6.9646 57.7759 6.26562C57.7759 5.56665 57.2093 5 56.5103 5H51.4478ZM43.2741 17.8177C45.8518 15.6072 49.1214 14.1806 52.7134 13.9073V15.125C52.7134 15.824 53.28 16.3906 53.979 16.3906C54.678 16.3906 55.2446 15.824 55.2446 15.125V13.9073C58.8366 14.1806 62.1061 15.6072 64.6838 17.8176L63.8232 18.6782C63.3289 19.1725 63.3289 19.9739 63.8232 20.4681C64.3174 20.9623 65.1188 20.9623 65.613 20.4681L66.4736 19.6075C68.6843 22.1853 70.111 25.455 70.3842 29.0471H69.1665C68.4675 29.0471 67.9009 29.6139 67.9009 30.3128C67.9009 31.0118 68.4675 31.5784 69.1665 31.5784H70.3842C70.1108 35.1703 68.6842 38.4398 66.4738 41.0174L65.6131 40.1568C65.1189 39.6626 64.3175 39.6626 63.8233 40.1568C63.3289 40.6511 63.3289 41.4524 63.8233 41.9468L64.6839 42.8074C62.1062 45.0178 58.8366 46.4444 55.2446 46.7177V45.5C55.2446 44.801 54.678 44.2344 53.979 44.2344C53.28 44.2344 52.7134 44.801 52.7134 45.5V46.7177C49.1213 46.4444 45.8517 45.0178 43.274 42.8071L44.1347 41.9465C44.6289 41.4521 44.6289 40.6509 44.1347 40.1567C43.6404 39.6623 42.8391 39.6623 42.3449 40.1567L41.4841 41.0173C39.2737 38.4397 37.8472 35.1702 37.5738 31.5784H38.7915C39.4905 31.5784 40.0571 31.0118 40.0571 30.3128C40.0571 29.6139 39.4905 29.0471 38.7915 29.0471H37.5738C37.847 25.455 39.2736 22.1854 41.4841 19.6076L42.3449 20.4683C42.8391 20.9626 43.6405 20.9626 44.1347 20.4683C44.6289 19.9741 44.6289 19.1727 44.1347 18.6785L43.2741 17.8177Z" stroke="#006A96" mask="url(#path-1-outside-1_3071_1931)"/>
<mask id="path-2-outside-2_3071_1931" maskUnits="userSpaceOnUse" x="11.6665" y="52" width="34" height="34" fill="black">
<rect fill="white" x="11.6665" y="52" width="34" height="34"/>
<path fill-rule="evenodd" clip-rule="evenodd" d="M27.0103 53C26.5701 53 26.2134 53.3568 26.2134 53.7969C26.2134 54.237 26.5701 54.5938 27.0103 54.5938H27.8071V57.0105C25.1059 57.1883 22.6498 58.2634 20.734 59.9406L19.0249 58.2315L19.5884 57.668C19.8996 57.3568 19.8996 56.8523 19.5884 56.5411C19.2772 56.2299 18.7726 56.2299 18.4615 56.5411L16.2075 58.795C15.8963 59.1062 15.8963 59.6107 16.2075 59.922C16.5187 60.2332 17.0233 60.2332 17.3345 59.922L17.898 59.3584L19.607 61.0676C17.9299 62.9833 16.8548 65.4395 16.677 68.1408H14.2603V67.3439C14.2603 66.9039 13.9035 66.547 13.4634 66.547C13.0233 66.547 12.6665 66.9039 12.6665 67.3439V70.5314C12.6665 70.9715 13.0233 71.3283 13.4634 71.3283C13.9035 71.3283 14.2603 70.9715 14.2603 70.5314V69.7345H16.677C16.8549 72.4357 17.9299 74.8917 19.607 76.8074L17.8979 78.5165L17.3344 77.953C17.0232 77.6418 16.5187 77.6418 16.2075 77.953C15.8963 78.2642 15.8963 78.7688 16.2075 79.08L18.4614 81.3338C18.7726 81.6451 19.2771 81.6451 19.5883 81.3338C19.8996 81.0227 19.8996 80.5181 19.5883 80.2069L19.0248 79.6434L20.734 77.9344C22.6498 79.6116 25.1059 80.6867 27.8071 80.8645V83.2812H27.0103C26.5701 83.2812 26.2134 83.638 26.2134 84.0781C26.2134 84.5182 26.5701 84.875 27.0103 84.875H30.1978C30.6379 84.875 30.9946 84.5182 30.9946 84.0781C30.9946 83.638 30.6379 83.2812 30.1978 83.2812H29.4009V80.8645C32.102 80.6867 34.5582 79.6116 36.4739 77.9345L38.1831 79.6436L37.6196 80.2071C37.3084 80.5182 37.3084 81.0228 37.6196 81.334C37.9308 81.6452 38.4354 81.6452 38.7465 81.334L41.0004 79.0801C41.3117 78.7689 41.3117 78.2644 41.0004 77.9532C40.6893 77.6419 40.1847 77.6419 39.8735 77.9532L39.31 78.5167L37.6009 76.8075C39.2781 74.8917 40.3531 72.4357 40.531 69.7345H42.9478V70.5314C42.9478 70.9715 43.3045 71.3283 43.7446 71.3283C44.1847 71.3283 44.5415 70.9715 44.5415 70.5314V67.3439C44.5415 66.9039 44.1847 66.547 43.7446 66.547C43.3045 66.547 42.9478 66.9039 42.9478 67.3439V68.1408H40.531C40.3532 65.4395 39.2781 62.9833 37.6009 61.0675L39.31 59.3583L39.8735 59.9218C40.1847 60.233 40.6893 60.233 41.0004 59.9218C41.3116 59.6106 41.3116 59.1061 41.0004 58.7949L38.7465 56.5409C38.4353 56.2297 37.9308 56.2297 37.6196 56.5409C37.3083 56.8521 37.3083 57.3567 37.6196 57.6679L38.1831 58.2314L36.4739 59.9405C34.5582 58.2634 32.102 57.1883 29.4009 57.0105V54.5938H30.1978C30.6379 54.5938 30.9946 54.237 30.9946 53.7969C30.9946 53.3568 30.6379 53 30.1978 53H27.0103ZM21.8639 61.0704C23.4869 59.6786 25.5455 58.7804 27.8071 58.6083V59.375C27.8071 59.8151 28.1639 60.1719 28.604 60.1719C29.0441 60.1719 29.4009 59.8151 29.4009 59.375V58.6083C31.6625 58.7804 33.7211 59.6786 35.3441 61.0704L34.8022 61.6122C34.491 61.9234 34.491 62.428 34.8022 62.7392C35.1134 63.0503 35.6179 63.0503 35.9291 62.7392L36.471 62.1973C37.8629 63.8204 38.7612 65.8791 38.9332 68.1408H38.1665C37.7264 68.1408 37.3696 68.4976 37.3696 68.9377C37.3696 69.3778 37.7264 69.7345 38.1665 69.7345H38.9332C38.7611 71.9961 37.8628 74.0547 36.4711 75.6776L35.9292 75.1358C35.618 74.8246 35.1134 74.8246 34.8023 75.1358C34.491 75.447 34.491 75.9515 34.8023 76.2628L35.3441 76.8046C33.7211 78.1964 31.6625 79.0946 29.4009 79.2667V78.5C29.4009 78.0599 29.0441 77.7031 28.604 77.7031C28.1639 77.7031 27.8071 78.0599 27.8071 78.5V79.2667C25.5454 79.0946 23.4868 78.1964 21.8638 76.8045L22.4058 76.2626C22.7169 75.9514 22.7169 75.4469 22.4058 75.1357C22.0945 74.8244 21.59 74.8244 21.2788 75.1357L20.7369 75.6775C19.3451 74.0546 18.447 71.9961 18.2748 69.7345H19.0415C19.4816 69.7345 19.8384 69.3778 19.8384 68.9377C19.8384 68.4976 19.4816 68.1408 19.0415 68.1408H18.2748C18.4468 65.8791 19.345 63.8204 20.7369 62.1974L21.2788 62.7393C21.59 63.0505 22.0946 63.0505 22.4058 62.7393C22.7169 62.4281 22.7169 61.9236 22.4058 61.6124L21.8639 61.0704Z"/>
</mask>
<path fill-rule="evenodd" clip-rule="evenodd" d="M27.0103 53C26.5701 53 26.2134 53.3568 26.2134 53.7969C26.2134 54.237 26.5701 54.5938 27.0103 54.5938H27.8071V57.0105C25.1059 57.1883 22.6498 58.2634 20.734 59.9406L19.0249 58.2315L19.5884 57.668C19.8996 57.3568 19.8996 56.8523 19.5884 56.5411C19.2772 56.2299 18.7726 56.2299 18.4615 56.5411L16.2075 58.795C15.8963 59.1062 15.8963 59.6107 16.2075 59.922C16.5187 60.2332 17.0233 60.2332 17.3345 59.922L17.898 59.3584L19.607 61.0676C17.9299 62.9833 16.8548 65.4395 16.677 68.1408H14.2603V67.3439C14.2603 66.9039 13.9035 66.547 13.4634 66.547C13.0233 66.547 12.6665 66.9039 12.6665 67.3439V70.5314C12.6665 70.9715 13.0233 71.3283 13.4634 71.3283C13.9035 71.3283 14.2603 70.9715 14.2603 70.5314V69.7345H16.677C16.8549 72.4357 17.9299 74.8917 19.607 76.8074L17.8979 78.5165L17.3344 77.953C17.0232 77.6418 16.5187 77.6418 16.2075 77.953C15.8963 78.2642 15.8963 78.7688 16.2075 79.08L18.4614 81.3338C18.7726 81.6451 19.2771 81.6451 19.5883 81.3338C19.8996 81.0227 19.8996 80.5181 19.5883 80.2069L19.0248 79.6434L20.734 77.9344C22.6498 79.6116 25.1059 80.6867 27.8071 80.8645V83.2812H27.0103C26.5701 83.2812 26.2134 83.638 26.2134 84.0781C26.2134 84.5182 26.5701 84.875 27.0103 84.875H30.1978C30.6379 84.875 30.9946 84.5182 30.9946 84.0781C30.9946 83.638 30.6379 83.2812 30.1978 83.2812H29.4009V80.8645C32.102 80.6867 34.5582 79.6116 36.4739 77.9345L38.1831 79.6436L37.6196 80.2071C37.3084 80.5182 37.3084 81.0228 37.6196 81.334C37.9308 81.6452 38.4354 81.6452 38.7465 81.334L41.0004 79.0801C41.3117 78.7689 41.3117 78.2644 41.0004 77.9532C40.6893 77.6419 40.1847 77.6419 39.8735 77.9532L39.31 78.5167L37.6009 76.8075C39.2781 74.8917 40.3531 72.4357 40.531 69.7345H42.9478V70.5314C42.9478 70.9715 43.3045 71.3283 43.7446 71.3283C44.1847 71.3283 44.5415 70.9715 44.5415 70.5314V67.3439C44.5415 66.9039 44.1847 66.547 43.7446 66.547C43.3045 66.547 42.9478 66.9039 42.9478 67.3439V68.1408H40.531C40.3532 65.4395 39.2781 62.9833 37.6009 61.0675L39.31 59.3583L39.8735 59.9218C40.1847 60.233 40.6893 60.233 41.0004 59.9218C41.3116 59.6106 41.3116 59.1061 41.0004 58.7949L38.7465 56.5409C38.4353 56.2297 37.9308 56.2297 37.6196 56.5409C37.3083 56.8521 37.3083 57.3567 37.6196 57.6679L38.1831 58.2314L36.4739 59.9405C34.5582 58.2634 32.102 57.1883 29.4009 57.0105V54.5938H30.1978C30.6379 54.5938 30.9946 54.237 30.9946 53.7969C30.9946 53.3568 30.6379 53 30.1978 53H27.0103ZM21.8639 61.0704C23.4869 59.6786 25.5455 58.7804 27.8071 58.6083V59.375C27.8071 59.8151 28.1639 60.1719 28.604 60.1719C29.0441 60.1719 29.4009 59.8151 29.4009 59.375V58.6083C31.6625 58.7804 33.7211 59.6786 35.3441 61.0704L34.8022 61.6122C34.491 61.9234 34.491 62.428 34.8022 62.7392C35.1134 63.0503 35.6179 63.0503 35.9291 62.7392L36.471 62.1973C37.8629 63.8204 38.7612 65.8791 38.9332 68.1408H38.1665C37.7264 68.1408 37.3696 68.4976 37.3696 68.9377C37.3696 69.3778 37.7264 69.7345 38.1665 69.7345H38.9332C38.7611 71.9961 37.8628 74.0547 36.4711 75.6776L35.9292 75.1358C35.618 74.8246 35.1134 74.8246 34.8023 75.1358C34.491 75.447 34.491 75.9515 34.8023 76.2628L35.3441 76.8046C33.7211 78.1964 31.6625 79.0946 29.4009 79.2667V78.5C29.4009 78.0599 29.0441 77.7031 28.604 77.7031C28.1639 77.7031 27.8071 78.0599 27.8071 78.5V79.2667C25.5454 79.0946 23.4868 78.1964 21.8638 76.8045L22.4058 76.2626C22.7169 75.9514 22.7169 75.4469 22.4058 75.1357C22.0945 74.8244 21.59 74.8244 21.2788 75.1357L20.7369 75.6775C19.3451 74.0546 18.447 71.9961 18.2748 69.7345H19.0415C19.4816 69.7345 19.8384 69.3778 19.8384 68.9377C19.8384 68.4976 19.4816 68.1408 19.0415 68.1408H18.2748C18.4468 65.8791 19.345 63.8204 20.7369 62.1974L21.2788 62.7393C21.59 63.0505 22.0946 63.0505 22.4058 62.7393C22.7169 62.4281 22.7169 61.9236 22.4058 61.6124L21.8639 61.0704Z" fill="#00C6D7"/>
<path fill-rule="evenodd" clip-rule="evenodd" d="M27.0103 53C26.5701 53 26.2134 53.3568 26.2134 53.7969C26.2134 54.237 26.5701 54.5938 27.0103 54.5938H27.8071V57.0105C25.1059 57.1883 22.6498 58.2634 20.734 59.9406L19.0249 58.2315L19.5884 57.668C19.8996 57.3568 19.8996 56.8523 19.5884 56.5411C19.2772 56.2299 18.7726 56.2299 18.4615 56.5411L16.2075 58.795C15.8963 59.1062 15.8963 59.6107 16.2075 59.922C16.5187 60.2332 17.0233 60.2332 17.3345 59.922L17.898 59.3584L19.607 61.0676C17.9299 62.9833 16.8548 65.4395 16.677 68.1408H14.2603V67.3439C14.2603 66.9039 13.9035 66.547 13.4634 66.547C13.0233 66.547 12.6665 66.9039 12.6665 67.3439V70.5314C12.6665 70.9715 13.0233 71.3283 13.4634 71.3283C13.9035 71.3283 14.2603 70.9715 14.2603 70.5314V69.7345H16.677C16.8549 72.4357 17.9299 74.8917 19.607 76.8074L17.8979 78.5165L17.3344 77.953C17.0232 77.6418 16.5187 77.6418 16.2075 77.953C15.8963 78.2642 15.8963 78.7688 16.2075 79.08L18.4614 81.3338C18.7726 81.6451 19.2771 81.6451 19.5883 81.3338C19.8996 81.0227 19.8996 80.5181 19.5883 80.2069L19.0248 79.6434L20.734 77.9344C22.6498 79.6116 25.1059 80.6867 27.8071 80.8645V83.2812H27.0103C26.5701 83.2812 26.2134 83.638 26.2134 84.0781C26.2134 84.5182 26.5701 84.875 27.0103 84.875H30.1978C30.6379 84.875 30.9946 84.5182 30.9946 84.0781C30.9946 83.638 30.6379 83.2812 30.1978 83.2812H29.4009V80.8645C32.102 80.6867 34.5582 79.6116 36.4739 77.9345L38.1831 79.6436L37.6196 80.2071C37.3084 80.5182 37.3084 81.0228 37.6196 81.334C37.9308 81.6452 38.4354 81.6452 38.7465 81.334L41.0004 79.0801C41.3117 78.7689 41.3117 78.2644 41.0004 77.9532C40.6893 77.6419 40.1847 77.6419 39.8735 77.9532L39.31 78.5167L37.6009 76.8075C39.2781 74.8917 40.3531 72.4357 40.531 69.7345H42.9478V70.5314C42.9478 70.9715 43.3045 71.3283 43.7446 71.3283C44.1847 71.3283 44.5415 70.9715 44.5415 70.5314V67.3439C44.5415 66.9039 44.1847 66.547 43.7446 66.547C43.3045 66.547 42.9478 66.9039 42.9478 67.3439V68.1408H40.531C40.3532 65.4395 39.2781 62.9833 37.6009 61.0675L39.31 59.3583L39.8735 59.9218C40.1847 60.233 40.6893 60.233 41.0004 59.9218C41.3116 59.6106 41.3116 59.1061 41.0004 58.7949L38.7465 56.5409C38.4353 56.2297 37.9308 56.2297 37.6196 56.5409C37.3083 56.8521 37.3083 57.3567 37.6196 57.6679L38.1831 58.2314L36.4739 59.9405C34.5582 58.2634 32.102 57.1883 29.4009 57.0105V54.5938H30.1978C30.6379 54.5938 30.9946 54.237 30.9946 53.7969C30.9946 53.3568 30.6379 53 30.1978 53H27.0103ZM21.8639 61.0704C23.4869 59.6786 25.5455 58.7804 27.8071 58.6083V59.375C27.8071 59.8151 28.1639 60.1719 28.604 60.1719C29.0441 60.1719 29.4009 59.8151 29.4009 59.375V58.6083C31.6625 58.7804 33.7211 59.6786 35.3441 61.0704L34.8022 61.6122C34.491 61.9234 34.491 62.428 34.8022 62.7392C35.1134 63.0503 35.6179 63.0503 35.9291 62.7392L36.471 62.1973C37.8629 63.8204 38.7612 65.8791 38.9332 68.1408H38.1665C37.7264 68.1408 37.3696 68.4976 37.3696 68.9377C37.3696 69.3778 37.7264 69.7345 38.1665 69.7345H38.9332C38.7611 71.9961 37.8628 74.0547 36.4711 75.6776L35.9292 75.1358C35.618 74.8246 35.1134 74.8246 34.8023 75.1358C34.491 75.447 34.491 75.9515 34.8023 76.2628L35.3441 76.8046C33.7211 78.1964 31.6625 79.0946 29.4009 79.2667V78.5C29.4009 78.0599 29.0441 77.7031 28.604 77.7031C28.1639 77.7031 27.8071 78.0599 27.8071 78.5V79.2667C25.5454 79.0946 23.4868 78.1964 21.8638 76.8045L22.4058 76.2626C22.7169 75.9514 22.7169 75.4469 22.4058 75.1357C22.0945 74.8244 21.59 74.8244 21.2788 75.1357L20.7369 75.6775C19.3451 74.0546 18.447 71.9961 18.2748 69.7345H19.0415C19.4816 69.7345 19.8384 69.3778 19.8384 68.9377C19.8384 68.4976 19.4816 68.1408 19.0415 68.1408H18.2748C18.4468 65.8791 19.345 63.8204 20.7369 62.1974L21.2788 62.7393C21.59 63.0505 22.0946 63.0505 22.4058 62.7393C22.7169 62.4281 22.7169 61.9236 22.4058 61.6124L21.8639 61.0704Z" stroke="#00C6D7" mask="url(#path-2-outside-2_3071_1931)"/>
</svg>
