<svg width="90" height="90" viewBox="0 0 90 90" fill="none" xmlns="http://www.w3.org/2000/svg">
<mask id="mask0_6377_586064" style="mask-type:alpha" maskUnits="userSpaceOnUse" x="14" y="13" width="60" height="60">
<circle cx="44" cy="43" r="30" fill="#D9D9D9"/>
</mask>
<g mask="url(#mask0_6377_586064)">
<path d="M8.89453 56.0338C13.3715 56.0557 14.5746 51.9957 19.05 52.0869C23.304 52.1736 24.3054 55.9893 28.5606 56.0338C32.9261 56.0794 34.0287 52.0176 38.3937 52.0869C42.5935 52.1536 43.5459 55.9054 47.7431 56.0338C52.2722 56.1724 53.5277 52.0202 58.0598 52.0869C62.4248 52.1511 63.5268 56.0338 67.8928 56.0338C72.2587 56.0338 72.8899 51.2482 77.7258 52.0869" stroke="#006A96" stroke-width="2.96669" stroke-linecap="round"/>
<path d="M8.89453 46.9256C8.89453 46.9256 31.7648 46.9256 34.0485 46.9256C36.3322 46.9256 36.9749 42.4105 39.1303 40.3722C41.2857 38.334 43.7578 38.3341 44.3224 38.334C44.8871 38.3338 47.6197 38.3616 49.5138 40.3722C51.408 42.3829 51.4006 46.9256 54.3758 46.9256C57.3511 46.9256 77.7258 46.9256 77.7258 46.9256" stroke="#00C6D7" stroke-width="2.96669" stroke-linecap="round" stroke-linejoin="round"/>
<circle cx="44.3257" cy="44.9039" r="1.55333" stroke="#00C6D7" stroke-width="2.96669"/>
<path d="M29.2207 32.7559L33.733 37.2682" stroke="#00C6D7" stroke-width="2.96669" stroke-linecap="round"/>
<path d="M44.4277 33.0684V26.6869" stroke="#00C6D7" stroke-width="2.96669" stroke-linecap="round"/>
<path d="M55.5625 37.2695L60.0748 32.7572" stroke="#00C6D7" stroke-width="2.96669" stroke-linecap="round"/>
<circle cx="23.1085" cy="62.7647" r="1.09331" stroke="#006A96" stroke-width="2.18661"/>
<circle cx="37.3214" cy="62.7647" r="1.09331" stroke="#006A96" stroke-width="2.18661"/>
<circle cx="51.5343" cy="62.7647" r="1.09331" stroke="#006A96" stroke-width="2.18661"/>
<circle cx="65.7474" cy="62.7647" r="1.09331" stroke="#006A96" stroke-width="2.18661"/>
<circle cx="30.214" cy="69.3233" r="1.09331" stroke="#006A96" stroke-width="2.18661"/>
<circle cx="44.4268" cy="69.3233" r="1.09331" stroke="#006A96" stroke-width="2.18661"/>
<circle cx="58.6397" cy="69.3233" r="1.09331" stroke="#006A96" stroke-width="2.18661"/>
<circle cx="72.8529" cy="69.3233" r="1.09331" stroke="#006A96" stroke-width="2.18661"/>
</g>
<mask id="path-16-inside-1_6377_586064" fill="white">
<path d="M37.6667 81.24C37.5621 82.0554 36.8157 82.6348 36.0055 82.4956C29.0975 81.3088 22.7051 78.0694 17.663 73.2004C17.0717 72.6294 17.0976 71.6848 17.6932 71.1183C18.2889 70.5519 19.2287 70.5784 19.8223 71.147C24.3897 75.5227 30.155 78.4443 36.3846 79.5401C37.1941 79.6825 37.7712 80.4247 37.6667 81.24Z"/>
</mask>
<path d="M37.6667 81.24C37.5621 82.0554 36.8157 82.6348 36.0055 82.4956C29.0975 81.3088 22.7051 78.0694 17.663 73.2004C17.0717 72.6294 17.0976 71.6848 17.6932 71.1183C18.2889 70.5519 19.2287 70.5784 19.8223 71.147C24.3897 75.5227 30.155 78.4443 36.3846 79.5401C37.1941 79.6825 37.7712 80.4247 37.6667 81.24Z" stroke="#006A96" stroke-width="6.16216" mask="url(#path-16-inside-1_6377_586064)"/>
<mask id="path-17-inside-2_6377_586064" fill="white">
<path d="M58.3354 10.0455C58.5784 9.29021 59.3889 8.87209 60.1335 9.14593C64.8014 10.8626 69.0491 13.5568 72.5915 17.0479C73.1566 17.6048 73.1238 18.5162 72.5441 19.0579C71.9645 19.5996 71.0576 19.5663 70.4905 19.0115C67.2847 15.8754 63.456 13.4469 59.2527 11.8835C58.5091 11.6069 58.0924 10.8007 58.3354 10.0455Z"/>
</mask>
<path d="M58.3354 10.0455C58.5784 9.29021 59.3889 8.87209 60.1335 9.14593C64.8014 10.8626 69.0491 13.5568 72.5915 17.0479C73.1566 17.6048 73.1238 18.5162 72.5441 19.0579C71.9645 19.5996 71.0576 19.5663 70.4905 19.0115C67.2847 15.8754 63.456 13.4469 59.2527 11.8835C58.5091 11.6069 58.0924 10.8007 58.3354 10.0455Z" stroke="#006A96" stroke-width="6.16216" mask="url(#path-17-inside-2_6377_586064)"/>
<path d="M65.7459 65.7459L78.8918 78.8918M13.1621 43.836C13.1621 47.8641 13.9555 51.8528 15.497 55.5744C17.0385 59.2959 19.2979 62.6774 22.1463 65.5257C24.9946 68.374 28.3761 70.6334 32.0976 72.175C35.8191 73.7165 39.8078 74.5099 43.836 74.5099C47.8641 74.5099 51.8528 73.7165 55.5744 72.175C59.2959 70.6334 62.6774 68.374 65.5257 65.5257C68.374 62.6774 70.6334 59.2959 72.175 55.5744C73.7165 51.8528 74.5099 47.8641 74.5099 43.836C74.5099 39.8078 73.7165 35.8191 72.175 32.0976C70.6334 28.3761 68.374 24.9946 65.5257 22.1463C62.6774 19.2979 59.2959 17.0385 55.5744 15.497C51.8528 13.9555 47.8641 13.1621 43.836 13.1621C39.8078 13.1621 35.8191 13.9555 32.0976 15.497C28.3761 17.0385 24.9946 19.2979 22.1463 22.1463C19.2979 24.9946 17.0385 28.3761 15.497 32.0976C13.9555 35.8191 13.1621 39.8078 13.1621 43.836Z" stroke="#00C6D7" stroke-width="3" stroke-linecap="round" stroke-linejoin="round"/>
</svg>
