<svg width="91" height="90" viewBox="0 0 91 90" fill="none" xmlns="http://www.w3.org/2000/svg">
<path fill-rule="evenodd" clip-rule="evenodd" d="M19.7291 22.4777C16.9917 25.9612 15.333 30.7207 15.333 35.6897C15.333 38.5729 15.8289 41.3316 16.7018 43.9583H32.9865L39.339 32.6647L43.3086 46.5577L48.1659 40.3125H60.333V44.0625H50.0001L41.7324 54.6922L38.202 42.3352L35.1795 47.7082H7.83301V43.9583H12.7753C12.0149 41.3357 11.583 38.5747 11.583 35.6897C11.583 29.9235 13.4978 24.3383 16.7805 20.1608C20.0723 15.9717 24.8132 13.125 30.3915 13.125C36.9608 13.125 41.9563 16.8063 45.333 22.0009C48.7095 16.8066 53.7051 13.125 60.2745 13.125C65.8534 13.125 70.5943 15.9722 73.8859 20.1613C77.1684 24.3392 79.083 29.9244 79.083 35.6897C79.083 48.0319 70.5636 58.3386 62.5035 65.3737C58.4273 68.9316 54.36 71.7478 51.3158 73.6734C49.7918 74.6376 48.5192 75.3816 47.6237 75.8865C47.1758 76.1391 46.8218 76.3322 46.5773 76.4632C46.4552 76.5289 46.3603 76.5789 46.2947 76.6132L46.2188 76.6528L46.1976 76.6637L46.1914 76.6671L46.1893 76.668C46.1893 76.668 46.188 76.6687 45.333 75C44.5196 76.6894 44.5191 76.6892 44.5191 76.6892L44.5078 76.6837L44.4818 76.671L44.3871 76.6245C44.3057 76.5842 44.1878 76.5251 44.0363 76.4481C43.7333 76.2936 43.2954 76.0657 42.7448 75.7671C41.6438 75.1697 40.089 74.2873 38.2564 73.1377C34.5979 70.8428 29.7988 67.4631 25.2859 63.1389C22.8786 60.8325 20.5404 58.2458 18.4972 55.3989C17.8934 54.5576 18.086 53.3861 18.9272 52.7824C19.7685 52.1786 20.94 52.3712 21.5438 53.2125C23.4272 55.8366 25.6046 58.251 27.8801 60.4312C32.1533 64.5253 36.7292 67.7529 40.2491 69.9609C42.0058 71.0629 43.4912 71.9057 44.5329 72.4708C44.8286 72.6313 45.0885 72.7693 45.3083 72.8842C45.4498 72.8062 45.6079 72.7181 45.7817 72.6201C46.6292 72.1421 47.8468 71.4306 49.3112 70.5043C52.2435 68.6494 56.145 65.9462 60.0375 62.5485C67.9149 55.6729 75.333 46.3243 75.333 35.6897C75.333 30.7215 73.6746 25.962 70.9373 22.4783C68.2089 19.0059 64.4831 16.875 60.2745 16.875C54.4568 16.875 49.9444 20.664 47.016 26.6284L45.333 30.0564L43.65 26.6284C40.7214 20.6636 36.2091 16.875 30.3915 16.875C26.1833 16.875 22.4574 19.0056 19.7291 22.4777ZM45.333 75L44.5191 76.6892L45.3591 77.0934L46.1893 76.668L45.333 75Z" fill="#006A96"/>
<path d="M16.7018 43.9576H12.7753H7.83301V47.7076H35.1795L38.202 42.3346L41.7324 54.6916L50.0001 44.0618H60.333V40.3118H48.1659L43.3086 46.5571L39.339 32.6641L32.9865 43.9576H16.7018Z" fill="#00C6D7"/>
</svg>
