<svg width="49" height="48" viewBox="0 0 49 48" fill="none" xmlns="http://www.w3.org/2000/svg">
<path d="M13.6665 20C13.6665 13.9249 18.5914 9 24.6665 9C30.7417 9 35.6665 13.9249 35.6665 20C35.6665 26.0751 30.7417 31 24.6665 31C18.5914 31 13.6665 26.0751 13.6665 20Z" fill="#3C763D"/>
<path fill-rule="evenodd" clip-rule="evenodd" d="M31.6666 34.391C36.9945 31.7942 40.6655 26.3258 40.6655 20C40.6655 11.1634 33.5021 4 24.6655 4C15.829 4 8.66553 11.1634 8.66553 20C8.66553 26.3267 12.3376 31.7957 17.6666 34.3921V43.0001C17.6666 43.3689 17.8696 43.7078 18.1948 43.8818C18.5199 44.0558 18.9145 44.0367 19.2213 43.8322L24.6666 40.202L30.1119 43.8322C30.4188 44.0367 30.8133 44.0558 31.1385 43.8818C31.4636 43.7078 31.6666 43.3689 31.6666 43.0001V34.391ZM24.6655 34C32.3975 34 38.6655 27.732 38.6655 20C38.6655 12.268 32.3975 6 24.6655 6C16.9335 6 10.6655 12.268 10.6655 20C10.6655 27.732 16.9335 34 24.6655 34Z" fill="#3C763D"/>
</svg>
