<svg width="90" height="90" viewBox="0 0 90 90" fill="none" xmlns="http://www.w3.org/2000/svg">
<path d="M35.6667 52C34.5778 52 33.6569 51.6236 32.904 50.8707C32.1511 50.1178 31.7757 49.1979 31.7778 48.1111C31.7798 47.0243 32.1563 46.1034 32.9071 45.3484C33.6579 44.5935 34.5778 44.2181 35.6667 44.2222C36.7555 44.2264 37.6764 44.6028 38.4293 45.3516C39.1822 46.1003 39.5576 47.0201 39.5555 48.1111C39.5535 49.2021 39.177 50.123 38.4262 50.8738C37.6754 51.6246 36.7555 52 35.6667 52ZM54.3333 52C53.2444 52 52.3235 51.6236 51.5707 50.8707C50.8178 50.1178 50.4424 49.1979 50.4444 48.1111C50.4465 47.0243 50.823 46.1034 51.5738 45.3484C52.3246 44.5935 53.2444 44.2181 54.3333 44.2222C55.4222 44.2264 56.3431 44.6028 57.096 45.3516C57.8489 46.1003 58.2243 47.0201 58.2222 48.1111C58.2201 49.2021 57.8437 50.123 57.0929 50.8738C56.3421 51.6246 55.4222 52 54.3333 52ZM45 69.8889C51.9481 69.8889 57.8333 67.4778 62.6555 62.6555C67.4778 57.8333 69.8889 51.9481 69.8889 45C69.8889 43.7556 69.8111 42.5505 69.6555 41.3849C69.5 40.2193 69.2148 39.091 68.8 38C67.7111 38.2593 66.6222 38.4542 65.5333 38.5849C64.4444 38.7156 63.3037 38.7799 62.1111 38.7778C57.3926 38.7778 52.9333 37.7667 48.7333 35.7444C44.5333 33.7222 40.9555 30.8963 38 27.2667C36.3407 31.3111 33.969 34.8246 30.8849 37.8071C27.8007 40.7896 24.2095 43.0317 20.1111 44.5333V45C20.1111 51.9481 22.5222 57.8333 27.3444 62.6555C32.1667 67.4778 38.0518 69.8889 45 69.8889ZM45.0093 73C41.137 73 37.497 72.2658 34.0893 70.7973C30.6816 69.3268 27.7167 67.3326 25.1947 64.8147C22.6726 62.2967 20.6763 59.3339 19.2058 55.9262C17.7353 52.5185 17 48.8796 17 45.0093C17 41.1391 17.7353 37.4991 19.2058 34.0893C20.6763 30.6796 22.6684 27.7147 25.1822 25.1947C27.696 22.6747 30.6588 20.6784 34.0707 19.2058C37.4825 17.7332 41.1225 16.9979 44.9907 17C48.8588 17.0021 52.4988 17.7373 55.9107 19.2058C59.3225 20.6742 62.2874 22.6674 64.8053 25.1853C67.3232 27.7033 69.3195 30.6661 70.7942 34.0738C72.2689 37.4815 73.0041 41.1204 73 44.9907C72.9958 48.8609 72.2616 52.5009 70.7973 55.9107C69.333 59.3204 67.3378 62.2853 64.8115 64.8053C62.2853 67.3253 59.3235 69.3216 55.9262 70.7942C52.5289 72.2668 48.8899 73.0021 45.0093 73Z" fill="#006A96"/>
<path d="M13.7945 8.93505C14.1923 7.68832 15.8077 7.68831 16.2055 8.93505L17.5654 13.197C17.6878 13.5806 17.9575 13.8868 18.3038 14.0354L22.1905 15.7033C23.2698 16.1665 23.2698 17.8335 22.1905 18.2967L18.3038 19.9646C17.9575 20.1132 17.6878 20.4194 17.5654 20.803L16.2055 25.0649C15.8077 26.3117 14.1923 26.3117 13.7945 25.0649L12.4346 20.803C12.3122 20.4194 12.0425 20.1132 11.6962 19.9646L7.80945 18.2967C6.73018 17.8335 6.73018 16.1665 7.80945 15.7033L11.6962 14.0354C12.0425 13.8868 12.3122 13.5806 12.4346 13.197L13.7945 8.93505Z" stroke="#00C6D7" stroke-width="3"/>
<path d="M72.0959 66.7013C72.3942 65.7662 73.6058 65.7662 73.9041 66.7013L74.9241 69.8978C75.0159 70.1855 75.2181 70.4151 75.4779 70.5266L78.3929 71.7775C79.2024 72.1248 79.2024 73.3752 78.3929 73.7225L75.4779 74.9734C75.2181 75.0849 75.0159 75.3145 74.9241 75.6022L73.9041 78.7987C73.6058 79.7338 72.3942 79.7338 72.0959 78.7987L71.0759 75.6022C70.9841 75.3145 70.7819 75.0849 70.5221 74.9734L67.6071 73.7225C66.7976 73.3752 66.7976 72.1248 67.6071 71.7775L70.5221 70.5266C70.7819 70.4151 70.9841 70.1855 71.0759 69.8978L72.0959 66.7013Z" stroke="#00C6D7" stroke-width="2.5"/>
</svg>
