<svg width="91" height="90" viewBox="0 0 91 90" fill="none" xmlns="http://www.w3.org/2000/svg">
<path fill-rule="evenodd" clip-rule="evenodd" d="M25.0415 16.875C24.0059 16.875 23.1665 17.7145 23.1665 18.75V76.875C23.1665 77.9106 24.0059 78.75 25.0415 78.75H66.2915C67.3271 78.75 68.1665 77.9106 68.1665 76.875V18.75C68.1665 17.7145 67.3271 16.875 66.2915 16.875H55.8228V13.125H66.2915C69.3982 13.125 71.9165 15.6434 71.9165 18.75V76.875C71.9165 79.9817 69.3982 82.5 66.2915 82.5H25.0415C21.9348 82.5 19.4165 79.9817 19.4165 76.875V18.75C19.4165 15.6434 21.9348 13.125 25.0415 13.125H35.5102V16.875H25.0415Z" fill="#006A96"/>
<path fill-rule="evenodd" clip-rule="evenodd" d="M32.5415 13.127C32.5415 10.0204 35.0598 7.50195 38.1665 7.50195H53.1665C56.2732 7.50195 58.7915 10.0204 58.7915 13.127V16.877C58.7915 19.9836 56.2732 22.502 53.1665 22.502H38.1665C35.0598 22.502 32.5415 19.9836 32.5415 16.877V13.127ZM38.1665 11.252C37.1309 11.252 36.2915 12.0914 36.2915 13.127V16.877C36.2915 17.9125 37.1309 18.752 38.1665 18.752H53.1665C54.2021 18.752 55.0415 17.9125 55.0415 16.877V13.127C55.0415 12.0914 54.2021 11.252 53.1665 11.252H38.1665Z" fill="#006A96"/>
<path fill-rule="evenodd" clip-rule="evenodd" d="M28.7915 39.373C28.7915 38.3375 29.6309 37.498 30.6665 37.498H43.7915C44.8271 37.498 45.6665 38.3375 45.6665 39.373C45.6665 40.4086 44.8271 41.248 43.7915 41.248H30.6665C29.6309 41.248 28.7915 40.4086 28.7915 39.373Z" fill="#00C6D7"/>
<path fill-rule="evenodd" clip-rule="evenodd" d="M28.7915 29.998C28.7915 28.9625 29.6309 28.123 30.6665 28.123H59.729C60.7646 28.123 61.604 28.9625 61.604 29.998C61.604 31.0336 60.7646 31.873 59.729 31.873H30.6665C29.6309 31.873 28.7915 31.0336 28.7915 29.998Z" fill="#00C6D7"/>
<path fill-rule="evenodd" clip-rule="evenodd" d="M32.5415 54.375V58.125H36.2915V54.375H32.5415ZM30.6665 50.625C29.6309 50.625 28.7915 51.4644 28.7915 52.5V60C28.7915 61.0356 29.6309 61.875 30.6665 61.875H38.1665C39.2021 61.875 40.0415 61.0356 40.0415 60V52.5C40.0415 51.4644 39.2021 50.625 38.1665 50.625H30.6665Z" fill="#00C6D7"/>
<path fill-rule="evenodd" clip-rule="evenodd" d="M53.1665 54.375C54.2032 54.375 55.0415 53.5367 55.0415 52.5C55.0415 51.4633 54.2032 50.625 53.1665 50.625C52.1298 50.625 51.2915 51.4633 51.2915 52.5C51.2915 53.5367 52.1298 54.375 53.1665 54.375ZM53.1665 58.125C56.2743 58.125 58.7915 55.6078 58.7915 52.5C58.7915 49.3922 56.2743 46.875 53.1665 46.875C50.0587 46.875 47.5415 49.3922 47.5415 52.5C47.5415 55.6078 50.0587 58.125 53.1665 58.125Z" fill="#006A96"/>
<path fill-rule="evenodd" clip-rule="evenodd" d="M45.6665 66.1467C45.6903 66.119 45.7237 66.0826 45.7694 66.0378C46.0764 65.7374 46.6702 65.3395 47.6 64.9447C49.4748 64.148 51.788 63.748 53.1665 63.748C54.545 63.748 56.8582 64.148 58.733 64.9447C59.6628 65.3395 60.2566 65.7374 60.5636 66.0378C60.6093 66.0826 60.6427 66.119 60.6665 66.1467V69.373H45.6665V66.1467ZM53.1665 59.998C49.4118 59.998 41.9165 61.9966 41.9165 65.9639V73.123H64.4165V65.9639C64.4165 61.9966 56.9212 59.998 53.1665 59.998Z" fill="#006A96"/>
</svg>
