<svg width="91" height="90" viewBox="0 0 91 90" fill="none" xmlns="http://www.w3.org/2000/svg">
<path fill-rule="evenodd" clip-rule="evenodd" d="M32.2082 15.002H24.708C21.6013 15.002 19.083 17.5204 19.083 20.627V65.6269C19.083 68.7336 21.6013 71.2519 24.708 71.2519H56.583C59.6897 71.2519 62.208 68.7336 62.208 65.6269V20.627C62.208 17.5204 59.6897 15.002 56.583 15.002H54.7082V18.752H56.583C57.6186 18.752 58.458 19.5914 58.458 20.627V65.6269C58.458 66.6625 57.6186 67.5019 56.583 67.5019H24.708C23.6724 67.5019 22.833 66.6625 22.833 65.6269V20.627C22.833 19.5914 23.6724 18.752 24.708 18.752H32.2082V15.002ZM35.9582 18.752H50.9582V15.002H35.9582V18.752Z" fill="#006A96"/>
<path fill-rule="evenodd" clip-rule="evenodd" d="M26.583 35.625C26.583 34.5894 27.4224 33.75 28.458 33.75H52.833C53.8686 33.75 54.708 34.5894 54.708 35.625C54.708 36.6606 53.8686 37.5 52.833 37.5H28.458C27.4224 37.5 26.583 36.6606 26.583 35.625Z" fill="#00C6D7"/>
<path fill-rule="evenodd" clip-rule="evenodd" d="M26.583 45.002C26.583 43.9664 27.4224 43.127 28.458 43.127H41.583C42.6186 43.127 43.458 43.9664 43.458 45.002C43.458 46.0375 42.6186 46.877 41.583 46.877H28.458C27.4224 46.877 26.583 46.0375 26.583 45.002Z" fill="#00C6D7"/>
<path fill-rule="evenodd" clip-rule="evenodd" d="M26.583 54.377C26.583 53.3414 27.4224 52.502 28.458 52.502H49.083C50.1186 52.502 50.958 53.3414 50.958 54.377C50.958 55.4125 50.1186 56.252 49.083 56.252H28.458C27.4224 56.252 26.583 55.4125 26.583 54.377Z" fill="#00C6D7"/>
<path fill-rule="evenodd" clip-rule="evenodd" d="M15.333 18.75V65.625C15.333 70.8026 19.5304 75 24.708 75H56.583V78.75H24.708C17.4593 78.75 11.583 72.8737 11.583 65.625V18.75H15.333Z" fill="#00C6D7"/>
<path fill-rule="evenodd" clip-rule="evenodd" d="M67.833 24.375C67.833 21.2683 70.3513 18.75 73.458 18.75C76.5647 18.75 79.083 21.2683 79.083 24.375V62.4427L73.458 70.8802L67.833 62.4427V24.375ZM73.458 22.5C72.4224 22.5 71.583 23.3394 71.583 24.375V61.3072L73.458 64.1197L75.333 61.3072V24.375C75.333 23.3394 74.4936 22.5 73.458 22.5Z" fill="#006A96"/>
<path fill-rule="evenodd" clip-rule="evenodd" d="M77.208 31.877H69.708V28.127H77.208V31.877Z" fill="#00C6D7"/>
<path fill-rule="evenodd" clip-rule="evenodd" d="M49.083 11.252C50.1186 11.252 50.958 12.0914 50.958 13.127V20.627C50.958 21.6625 50.1186 22.502 49.083 22.502C48.0474 22.502 47.208 21.6625 47.208 20.627V13.127C47.208 12.0914 48.0474 11.252 49.083 11.252Z" fill="#00C6D7"/>
<path fill-rule="evenodd" clip-rule="evenodd" d="M30.333 11.252C31.3686 11.252 32.208 12.0914 32.208 13.127V20.627C32.208 21.6625 31.3686 22.502 30.333 22.502C29.2974 22.502 28.458 21.6625 28.458 20.627V13.127C28.458 12.0914 29.2974 11.252 30.333 11.252Z" fill="#00C6D7"/>
</svg>
