<svg width="90" height="90" viewBox="0 0 90 90" fill="none" xmlns="http://www.w3.org/2000/svg">
<path fill-rule="evenodd" clip-rule="evenodd" d="M37.5 7.50195C34.3933 7.50195 31.875 10.0204 31.875 13.127H26.25C23.1433 13.127 20.625 15.6454 20.625 18.752V71.2519C20.625 74.3586 23.1433 76.8769 26.25 76.8769H48.75V73.1269H26.25C25.2144 73.1269 24.375 72.2875 24.375 71.2519V18.752C24.375 17.7164 25.2144 16.877 26.25 16.877H31.875C31.875 19.9836 34.3933 22.502 37.5 22.502H52.5C55.6067 22.502 58.125 19.9836 58.125 16.877H63.75C64.7856 16.877 65.625 17.7164 65.625 18.752V46.8769H69.375V18.752C69.375 15.6454 66.8567 13.127 63.75 13.127H58.125C58.125 10.0204 55.6067 7.50195 52.5 7.50195H37.5ZM35.625 13.127C35.625 12.0914 36.4644 11.252 37.5 11.252H52.5C53.5356 11.252 54.375 12.0914 54.375 13.127V16.877C54.375 17.9125 53.5356 18.752 52.5 18.752H37.5C36.4644 18.752 35.625 17.9125 35.625 16.877V13.127ZM43.125 35.6269V30.0019H46.875V35.6269H52.5V39.3769H46.875V45.0019H43.125V39.3769H37.5V35.6269H43.125ZM50.625 52.5019C50.625 51.4664 51.4644 50.6269 52.5 50.6269H75C76.0356 50.6269 76.875 51.4664 76.875 52.5019V65.2311C76.875 69.6196 74.6818 73.7176 71.0304 76.1519L64.7901 80.3121C64.1602 80.7319 63.3397 80.7319 62.7099 80.3121L56.4696 76.1519C52.8182 73.7176 50.625 69.6196 50.625 65.2311V52.5019ZM54.375 54.3769V65.2311C54.375 68.3657 55.9416 71.2928 58.5497 73.0317L63.75 76.4984L68.9503 73.0317C71.5584 71.2928 73.125 68.3657 73.125 65.2311V54.3769H54.375ZM63.2008 68.8279L70.7008 61.3279L68.049 58.6763L61.875 64.8505L59.4508 62.4263L56.799 65.0779L60.549 68.8279C61.2814 69.5601 62.4684 69.5601 63.2008 68.8279Z" fill="#006A96"/>
<path fill-rule="evenodd" clip-rule="evenodd" d="M43.125 35.627V30.002H46.875V35.627H52.5V39.377H46.875V45.0019H43.125V39.377H37.5V35.627H43.125ZM63.2008 68.8279L70.7008 61.3279L68.049 58.6763L61.875 64.8505L59.4508 62.4263L56.799 65.0779L60.549 68.8279C61.2814 69.5601 62.4684 69.5601 63.2008 68.8279Z" fill="#00C6D7"/>
</svg>
