<svg width="38" height="38" viewBox="0 0 38 38" fill="none" xmlns="http://www.w3.org/2000/svg">
<rect width="38" height="38" rx="19" fill="white"/>
<path fill-rule="evenodd" clip-rule="evenodd" d="M19 6.5C19.6276 6.5 20.1364 7.00634 20.1364 7.63095V8.7619C20.1364 9.38651 19.6276 9.89286 19 9.89286C18.3724 9.89286 17.8636 9.38651 17.8636 8.7619V7.63095C17.8636 7.00634 18.3724 6.5 19 6.5ZM9.67374 9.65863C10.1175 9.21696 10.837 9.21696 11.2808 9.65863L12.4172 10.7896C12.8609 11.2312 12.8609 11.9473 12.4172 12.389C11.9734 12.8307 11.2539 12.8307 10.8101 12.389L9.67374 11.258C9.22996 10.8164 9.22996 10.1003 9.67374 9.65863ZM28.3263 9.65863C28.77 10.1003 28.77 10.8164 28.3263 11.258L27.1899 12.389C26.7461 12.8307 26.0266 12.8307 25.5828 12.389C25.1391 11.9473 25.1391 11.2312 25.5828 10.7896L26.7192 9.65863C27.163 9.21696 27.8825 9.21696 28.3263 9.65863ZM6.5 18.9405C6.5 18.3159 7.00877 17.8095 7.63636 17.8095H8.77273C9.40032 17.8095 9.90909 18.3159 9.90909 18.9405C9.90909 19.5651 9.40032 20.0714 8.77273 20.0714H7.63636C7.00877 20.0714 6.5 19.5651 6.5 18.9405ZM28.0909 18.9405C28.0909 18.3159 28.5997 17.8095 29.2273 17.8095H30.3636C30.9912 17.8095 31.5 18.3159 31.5 18.9405C31.5 19.5651 30.9912 20.0714 30.3636 20.0714H29.2273C28.5997 20.0714 28.0909 19.5651 28.0909 18.9405Z" fill="#FC8900"/>
<path d="M12.1818 18.7287C12.1818 15.0834 15.2491 12.1548 19 12.1548C22.7509 12.1548 25.8182 15.0834 25.8182 18.7287C25.8182 20.8584 24.9336 22.7801 23.2773 23.9916C23.1759 24.0606 23.1025 24.1632 23.07 24.2811C23.0209 24.4874 22.9673 24.7235 22.9118 24.9768C22.8987 25.0377 22.865 25.0923 22.8164 25.1315C22.7678 25.1707 22.7071 25.1921 22.6445 25.1922H15.3555C15.2929 25.1921 15.2322 25.1707 15.1836 25.1315C15.135 25.0923 15.1013 25.0377 15.0882 24.9768C15.0327 24.7235 14.9791 24.4874 14.93 24.2802C14.8974 24.1626 14.8239 24.0603 14.7227 23.9916C13.0664 22.7792 12.1818 20.8584 12.1818 18.7287ZM15.7273 26.5493C15.6874 26.5495 15.6481 26.5584 15.612 26.5752C15.576 26.5921 15.544 26.6166 15.5184 26.647C15.4928 26.6773 15.4742 26.7129 15.4638 26.7512C15.4534 26.7895 15.4515 26.8296 15.4582 26.8687C15.5427 27.3717 15.6055 27.8214 15.6245 28.1326C15.6818 29.0744 16.3791 29.8507 17.3109 30.0507L17.4891 30.0896C18.4849 30.3035 19.5151 30.3035 20.5109 30.0896L20.6891 30.0507C21.6209 29.8507 22.3182 29.0744 22.3755 28.1326C22.3945 27.8223 22.4573 27.3726 22.5427 26.8687C22.5496 26.8294 22.5478 26.7892 22.5374 26.7507C22.527 26.7122 22.5083 26.6765 22.4826 26.646C22.4569 26.6155 22.4248 26.5909 22.3885 26.5741C22.3523 26.5572 22.3127 26.5484 22.2727 26.5484L15.7273 26.5493Z" fill="#FC8900"/>
</svg>
