<svg width="38" height="39" viewBox="0 0 38 39" fill="none" xmlns="http://www.w3.org/2000/svg">
<rect y="0.5" width="38" height="38" rx="19" fill="#FC8900" fill-opacity="0.2"/>
<path fill-rule="evenodd" clip-rule="evenodd" d="M19 7C19.6276 7 20.1364 7.50634 20.1364 8.13095V9.2619C20.1364 9.88651 19.6276 10.3929 19 10.3929C18.3724 10.3929 17.8636 9.88651 17.8636 9.2619V8.13095C17.8636 7.50634 18.3724 7 19 7ZM9.67374 10.1586C10.1175 9.71696 10.837 9.71696 11.2808 10.1586L12.4172 11.2896C12.8609 11.7312 12.8609 12.4473 12.4172 12.889C11.9734 13.3307 11.2539 13.3307 10.8101 12.889L9.67374 11.758C9.22996 11.3164 9.22996 10.6003 9.67374 10.1586ZM28.3263 10.1586C28.77 10.6003 28.77 11.3164 28.3263 11.758L27.1899 12.889C26.7461 13.3307 26.0266 13.3307 25.5828 12.889C25.1391 12.4473 25.1391 11.7312 25.5828 11.2896L26.7192 10.1586C27.163 9.71696 27.8825 9.71696 28.3263 10.1586ZM6.5 19.4405C6.5 18.8159 7.00877 18.3095 7.63636 18.3095H8.77273C9.40032 18.3095 9.90909 18.8159 9.90909 19.4405C9.90909 20.0651 9.40032 20.5714 8.77273 20.5714H7.63636C7.00877 20.5714 6.5 20.0651 6.5 19.4405ZM28.0909 19.4405C28.0909 18.8159 28.5997 18.3095 29.2273 18.3095H30.3636C30.9912 18.3095 31.5 18.8159 31.5 19.4405C31.5 20.0651 30.9912 20.5714 30.3636 20.5714H29.2273C28.5997 20.5714 28.0909 20.0651 28.0909 19.4405Z" fill="#FC8900"/>
<path d="M12.1818 19.2287C12.1818 15.5834 15.2491 12.6548 19 12.6548C22.7509 12.6548 25.8182 15.5834 25.8182 19.2287C25.8182 21.3584 24.9336 23.2801 23.2773 24.4916C23.1759 24.5606 23.1025 24.6632 23.07 24.7811C23.0209 24.9874 22.9673 25.2235 22.9118 25.4768C22.8987 25.5377 22.865 25.5923 22.8164 25.6315C22.7678 25.6707 22.7071 25.6921 22.6445 25.6922H15.3555C15.2929 25.6921 15.2322 25.6707 15.1836 25.6315C15.135 25.5923 15.1013 25.5377 15.0882 25.4768C15.0327 25.2235 14.9791 24.9874 14.93 24.7802C14.8974 24.6626 14.8239 24.5603 14.7227 24.4916C13.0664 23.2792 12.1818 21.3584 12.1818 19.2287ZM15.7273 27.0493C15.6874 27.0495 15.6481 27.0584 15.612 27.0752C15.576 27.0921 15.544 27.1166 15.5184 27.147C15.4928 27.1773 15.4742 27.2129 15.4638 27.2512C15.4534 27.2895 15.4515 27.3296 15.4582 27.3687C15.5427 27.8717 15.6055 28.3214 15.6245 28.6326C15.6818 29.5744 16.3791 30.3507 17.3109 30.5507L17.4891 30.5896C18.4849 30.8035 19.5151 30.8035 20.5109 30.5896L20.6891 30.5507C21.6209 30.3507 22.3182 29.5744 22.3755 28.6326C22.3945 28.3223 22.4573 27.8726 22.5427 27.3687C22.5496 27.3294 22.5478 27.2892 22.5374 27.2507C22.527 27.2122 22.5083 27.1765 22.4826 27.146C22.4569 27.1155 22.4248 27.0909 22.3885 27.0741C22.3523 27.0572 22.3127 27.0484 22.2727 27.0484L15.7273 27.0493Z" fill="#FC8900"/>
</svg>
