<svg width="24" height="24" viewBox="0 0 24 24" fill="none" xmlns="http://www.w3.org/2000/svg">
<path fill-rule="evenodd" clip-rule="evenodd" d="M9.5 2C9.22385 2 9 2.22386 9 2.5V4.5C9 4.77614 9.22385 5 9.5 5H10V5.63645C9.7087 5.7394 9.5 6.0172 9.5 6.34375V19.5C9.5 20.8807 10.6193 22 12 22C13.3807 22 14.5 20.8807 14.5 19.5V6.34375C14.5 6.0172 14.2913 5.7394 14 5.63645V5H14.5C14.7761 5 15 4.77614 15 4.5V2.5C15 2.22386 14.7761 2 14.5 2H9.5ZM10.5 6.55105C10.7913 6.4481 11 6.1703 11 5.84375V5H13V5.84375C13 6.1703 13.2087 6.4481 13.5 6.55105V9H10.5V6.55105ZM13.5 12.4927L11.0077 10H10.5V10.5785L13.5 13.5785V12.4927ZM12.4218 10L13.5 11.0784V10.4927L13.0073 10H12.4218ZM13.5 14.9927L10.5 11.9927V13.0785L13.5 16.0785V14.9927ZM13.5 18.5785L10.5 15.5785V14.4927L13.5 17.4927V18.5785ZM13.4374 19.9301L10.5 16.9927V18.0784L13.0207 20.5992C13.2141 20.4196 13.3599 20.1896 13.4374 19.9301ZM12 21C11.1716 21 10.5 20.3285 10.5 19.5V19.4927L12.0073 21H12ZM10 3V4H14V3H10Z" fill="#006A96"/>
<path fill-rule="evenodd" clip-rule="evenodd" d="M13.0073 10L10.5 10.0001V10.5785V11.9928V13.0785V14.4928V15.5785V16.9928V18.0785C10.5 18.0785 10.5 18.9449 10.5 19.5001C10.5 19.8515 10.7876 20.9999 12 20.9999C13.1299 20.9999 13.4374 19.9302 13.4374 19.9302L13.5 18.5785V17.4928V16.0785V14.9928V13.5785V12.4927V11.0784V10.4927L13.0073 10ZM13.0073 10L12.4218 10.0001H11.0077L10.5 10.0001L13.0073 10ZM13.5 12.4927L11.0077 10.0001L10.5 10.0001V10.5785L13.5 13.5785V12.4927ZM12.4218 10.0001L13.5 11.0784V10.4927L13.0073 10L12.4218 10.0001ZM13.5 14.9928L10.5 11.9928V13.0785L13.5 16.0785V14.9928ZM13.5 18.5785L10.5 15.5785V14.4928L13.5 17.4928V18.5785ZM13.4374 19.9302L10.5 16.9928V18.0785L13.0207 20.5992C13.2141 20.4196 13.3599 20.1897 13.4374 19.9302ZM12 20.9999C11.0859 20.9999 10.5 20.2506 10.5 19.5001C10.5 19.4972 10.5 19.4927 10.5 19.4927L12.0073 21.0001L12 20.9999Z" fill="#00C6D7"/>
</svg>
