<svg xmlns="http://www.w3.org/2000/svg" width="719" height="664" fill="none" viewBox="0 0 719 664">
    <path fill="#fff" stroke="#00C6D7" d="M528.5 240c0 24.582-19.705 44.5-44 44.5s-44-19.918-44-44.5 19.705-44.5 44-44.5 44 19.918 44 44.5z"/>
    <path fill="#fff" stroke="#3D3C6F" d="M533.5 619c0 24.582-19.705 44.5-44 44.5s-44-19.918-44-44.5 19.705-44.5 44-44.5 44 19.918 44 44.5z"/>
    <path fill="#747678" stroke="#747678" stroke-linecap="round" stroke-linejoin="round" stroke-width=".25" d="M505.703 217.235h-31.9c-.586 0-1.061.475-1.061 1.061v45.408c0 .586.475 1.061 1.061 1.061h31.9c.586 0 1.061-.475 1.061-1.061v-45.408c0-.586-.475-1.061-1.061-1.061z"/>
    <path fill="#fff" stroke="#747678" stroke-miterlimit="10" d="M481.47 220.44h16.424c.339-.014.669.107.919.336.25.229.398.548.413.886v15.069c-.015.338-.163.657-.413.886-.25.229-.58.35-.919.336H481.47c-.338.014-.669-.107-.918-.336-.25-.229-.398-.548-.414-.886v-15.069c.016-.338.164-.657.414-.886.249-.229.58-.35.918-.336v0z"/>
    <path fill="#fff" stroke="#fff" stroke-miterlimit="10" d="M479.239 242.856h20.912c.265.011.515.126.695.321.18.195.275.453.265.717v.348c.01.265-.085.523-.265.718-.18.194-.43.31-.695.32h-20.912c-.265-.01-.514-.126-.694-.32-.18-.195-.276-.453-.265-.718v-.348c-.011-.264.085-.522.265-.717.18-.195.429-.31.694-.321v0zM479.239 248.773h20.912c.265.011.515.127.695.321.18.195.275.453.265.718v.348c.01.264-.085.522-.265.717-.18.194-.43.31-.695.321h-20.912c-.265-.011-.514-.127-.694-.321-.18-.195-.276-.453-.265-.717v-.348c-.011-.265.085-.523.265-.718.18-.194.429-.31.694-.321v0zM479.365 254.691h20.912c.265.011.515.126.694.321.18.194.276.452.266.717v.348c.01.265-.086.522-.266.717-.179.195-.429.31-.694.321h-20.912c-.265-.011-.515-.126-.695-.321-.18-.195-.275-.452-.265-.717v-.348c-.01-.265.085-.523.265-.717.18-.195.43-.31.695-.321v0z"/>
    <path fill="#747678" stroke="#747678" stroke-miterlimit="10" d="M487.769 234.257c-.128.003-.254-.025-.368-.082-.114-.057-.213-.141-.287-.245l-3.226-4.881c-.047-.072-.078-.154-.09-.239-.013-.085-.007-.172.017-.255.024-.082.066-.159.122-.224.057-.065.127-.117.205-.153l.028-.014c.173-.086.37-.109.558-.064.187.044.353.153.469.307l3.226 4.881c.047.072.078.154.09.239.013.085.007.172-.017.254-.024.083-.066.16-.122.225-.057.065-.127.117-.205.153l-.028.014c-.116.056-.243.085-.372.084h0z"/>
    <path fill="#747678" stroke="#747678" stroke-miterlimit="10" d="M487.768 234.257c-.133 0-.264-.031-.383-.09-.079-.034-.15-.084-.208-.148-.058-.064-.102-.139-.128-.221-.027-.082-.035-.169-.025-.255.011-.085.039-.168.084-.241l.013-.02 6.94-10.079c.118-.152.285-.258.473-.299.188-.042.385-.016.556.072.079.033.15.083.208.147.058.063.102.139.128.221.027.082.035.168.025.254-.01.085-.038.167-.083.241l-.014.021-6.938 10.08c-.074.101-.172.182-.285.237-.113.056-.237.083-.363.08h0z"/>
    <path fill="#747678" stroke="#FFFEFF" stroke-miterlimit="10" stroke-width=".25" d="M467.783 228.267h-3.966c-.714 0-1.293.578-1.293 1.292v23.931c0 .713.579 1.292 1.293 1.292h3.966c.714 0 1.292-.579 1.292-1.292v-23.931c0-.714-.578-1.292-1.292-1.292z"/>
    <path fill="#747678" stroke="#FFFEFF" stroke-miterlimit="10" stroke-width=".5" d="M462.524 253.423h6.55v2.518l-6.595-.015.045-2.503z"/>
    <path stroke="#fff" stroke-miterlimit="10" stroke-width=".5" d="M462.525 232.907h6.55M462.524 231.122h6.55"/>
    <path fill="#747678" stroke="#FFFEFF" stroke-miterlimit="10" stroke-width=".25" d="M465.799 261.409l3.275-5.483-6.595-.013 3.32 5.496z"/>
    <path fill="#fff" d="M515.063 603.95h-33.235c-.535 0-.968.425-.968.95v27.199c0 .525.433.95.968.95h33.235c.535 0 .968-.425.968-.95V604.9c0-.525-.433-.95-.968-.95z"/>
    <path fill="#747678" d="M515.063 604.9v27.2h-33.235v-27.2h33.235zm0-1.9h-33.235c-.514 0-1.006.2-1.37.557-.363.356-.567.839-.567 1.343v27.2c0 .504.204.987.567 1.343.364.357.856.557 1.37.557h33.235c.514 0 1.007-.2 1.37-.557.363-.356.567-.839.567-1.343v-27.2c0-.504-.204-.987-.567-1.343-.363-.357-.856-.557-1.37-.557z"/>
    <path fill="#747678" d="M513.588 605.951h-30.284v25.098h30.284v-25.098z"/>
    <path fill="#fff" d="M512.619 606.901v23.198h-28.346v-23.198h28.346zm1.936-1.9h-32.219v26.998h32.219v-26.998z"/>
    <path stroke="#747678" stroke-linecap="round" stroke-linejoin="round" stroke-width="2" d="M462.399 610.129h13.758M459.937 618.026h17.218M462.399 625.924h13.758"/>
    <path fill="#fff" d="M494.776 625.606l12.541-7.105-12.541-7.107v14.212z"/>
    <path stroke="#fff" stroke-linecap="round" stroke-linejoin="round" stroke-width="2" d="M484.687 618.5h13.759"/>
    <path fill="#fff" stroke="#B02436" d="M530.5 494c0 24.582-19.705 44.5-44 44.5s-44-19.918-44-44.5 19.705-44.5 44-44.5 44 19.918 44 44.5z"/>
    <path fill="#fff" stroke="#FC8900" d="M528.5 108c0 24.582-19.705 44.5-44 44.5s-44-19.918-44-44.5 19.705-44.5 44-44.5 44 19.918 44 44.5z"/>
    <path fill="#fff" stroke="#006A96" d="M530.5 367c0 24.582-19.705 44.5-44 44.5s-44-19.918-44-44.5 19.705-44.5 44-44.5 44 19.918 44 44.5z"/>
    <path fill="#747678" d="M470 107c2.209 0 4-1.567 4-3.5s-1.791-3.5-4-3.5-4 1.567-4 3.5 1.791 3.5 4 3.5z"/>
    <path fill="#747678" fill-rule="evenodd" d="M474.683 108H468.277v.004c-1.889.077-3.099 1.576-3.674 3.382 0 0-3.533 11.699-3.547 11.749-.215.731.206 1.496.942 1.71.735.214 1.506-.205 1.721-.936l3.334-11.314h.735l-4.752 15.928h4.247v11.945c0 .846.617 1.532 1.611 1.532 1.165 0 1.781-.686 1.781-1.532v-11.945h1.233v11.945c0 .846.617 1.532 1.611 1.532 1.164 0 1.781-.686 1.781-1.532v-27.567h.616v10.108c0 .846.69 1.531 1.542 1.531.851 0 1.542-.685 1.542-1.531v-11.027c0-2.368-1.933-3.982-4.317-3.982z" clip-rule="evenodd"/>
    <g fill="#747678" clip-path="url(#clip0)">
        <path d="M502.73 93.304c-.589-.354-1.325-.972-1.948-1.536h.009c.571 0 .965-.085.998-.092.216-.046.384-.2.437-.398.053-.198-.016-.406-.182-.54-.853-.694-1.994-1.98-2.786-2.922l.992.187c.273.059.553-.082.664-.319.11-.239.024-.515-.209-.663-.642-.409-1.859-2.218-2.829-3.83l.66.278c.236.099.522.046.694-.137.173-.182.196-.446.055-.65l-2.347-3.42.335.128c.228.088.492.034.663-.132.167-.168.206-.415.093-.62l-3.395-6.13c-.01-.017-.028-.03-.04-.046-.022-.031-.044-.059-.072-.086-.03-.029-.063-.05-.098-.07-.018-.012-.03-.027-.049-.036-.014-.007-.028-.006-.042-.011-.038-.015-.077-.023-.118-.03-.037-.007-.072-.013-.109-.013-.037 0-.071.006-.108.013-.04.007-.078.015-.117.03-.015.005-.03.004-.044.01-.021.01-.033.027-.051.037-.034.02-.064.043-.093.069-.028.027-.052.054-.074.086-.012.017-.03.028-.04.047l-3.397 6.13c-.112.204-.075.452.094.62.17.167.433.22.662.132l.335-.128-2.348 3.42c-.141.203-.118.468.055.65.171.183.454.234.694.138l.237-.101-.519 1.313c-.723 1.096-1.444 2.054-1.889 2.338-.231.147-.318.425-.209.663.112.238.395.377.665.319l.13-.025-.58 1.466c-.467.496-.938.964-1.344 1.294-.166.135-.237.344-.184.54.053.196.222.352.437.398.012.003.089.018.194.034l-.437 1.107c-.243.186-.482.359-.698.488-.012.007-.016.018-.027.025-.031.022-.056.048-.081.075-.026.027-.052.052-.071.082-.02.03-.03.061-.043.093-.014.032-.027.065-.033.099-.006.034-.003.067-.002.1.002.038.003.073.012.11.003.01 0 .023.005.034.004.014.019.02.025.031.015.036.022.071.044.104.027.038.07.059.104.087.027.023.048.048.079.067.095.056.198.093.311.093l.003.001h.002c.057 0 .115-.008.174-.024 2.232-.639 4.402-.937 6.399-1.04-.034 1.978-.286 5.341-.824 6.154-.152.225-.103.517.111.693.514.421 1.466.912 2.545.912.759 0 1.581-.244 2.354-.926.015-.013.021-.03.034-.045.026-.027.045-.054.064-.084.019-.032.037-.063.049-.098.012-.032.018-.063.022-.096.006-.037.008-.07.005-.108-.003-.032-.009-.062-.018-.095-.01-.038-.024-.074-.043-.11-.007-.014-.009-.03-.018-.044-.538-.812-.79-4.164-.824-6.143 3.773.216 6.335 1.01 6.378 1.023.286.086.594-.029.728-.274.13-.246.04-.546-.211-.696zM486.615 86.338c0-1.277-.538-2.462-1.491-3.38-.09-1.347-.975-2.537-2.289-3.079-.711-2.112-2.803-3.565-5.242-3.565-3.036 0-5.507 2.273-5.507 5.065 0 .03.004.06.006.09-2.392.566-4.092 2.527-4.092 4.837 0 2.66 2.27 4.82 5.118 4.983.487.543 1.08.994 1.759 1.302.067.551.248 2.935-.892 7.103-.045.163-.005.335.107.469.112.132.284.21.466.21h5.103c.183 0 .356-.079.467-.21.113-.134.153-.306.107-.47-1.079-3.95-.974-6.27-.903-6.974.855-.317 1.612-.819 2.194-1.49 2.829-.125 5.089-2.262 5.089-4.89zM486.024 76.99c1.854 0 3.358-1.383 3.358-3.088 0-1.706-1.504-3.088-3.358-3.088-1.855 0-3.358 1.382-3.358 3.088 0 1.705 1.503 3.088 3.358 3.088zM486.024 70.516c.328 0 .593-.244.593-.545v-.426c0-.3-.265-.545-.593-.545-.328 0-.593.244-.593.545v.427c0 .3.265.544.593.544zM485.431 77.833v.427c0 .3.265.545.593.545.328 0 .593-.244.593-.546v-.426c0-.302-.265-.546-.593-.546-.328 0-.593.244-.593.546z"/>
        <path d="M482.583 71.507c.116.107.268.16.42.16.152 0 .304-.053.419-.16.231-.214.231-.559 0-.771l-.327-.302c-.235-.212-.61-.212-.84 0-.231.215-.231.56 0 .772l.328.301zM489.466 76.296c-.231-.213-.608-.213-.839 0-.231.213-.231.558 0 .77l.328.302c.115.106.268.16.419.16.152 0 .304-.054.42-.16.231-.213.231-.558 0-.77l-.328-.302zM481.286 74.447h.464c.328 0 .593-.244.593-.545 0-.302-.265-.546-.593-.546h-.464c-.328 0-.593.245-.593.546 0 .301.267.545.593.545zM489.703 73.902c0 .301.267.545.593.545h.464c.328 0 .593-.244.593-.545 0-.302-.266-.546-.593-.546h-.464c-.326 0-.593.245-.593.546zM482.583 76.295l-.328.301c-.231.213-.231.558 0 .772.115.106.267.16.419.16.151 0 .303-.054.419-.16l.328-.301c.231-.213.231-.558 0-.772-.23-.213-.607-.213-.838 0zM489.047 71.667c.152 0 .304-.053.419-.16l.328-.3c.231-.214.231-.558 0-.771-.231-.213-.608-.213-.839 0l-.329.301c-.232.213-.232.558 0 .77.117.107.268.16.421.16z"/>
    </g>
    <path fill="#747678" d="M499.079 114.712c.228-.076.494-.457.532-.685.038-.533-.038-1.103-.114-1.636-.608-3.043-2.09-5.706-3.762-8.331-1.444.722-2.698 1.597-3.42 3.081-.684 1.446-1.026 3.006-1.178 4.565 0 .191.038.419.152.571 1.634 2.359 5.054 3.462 7.79 2.435z"/>
    <path fill="#747678" d="M486.121 123.157c-.836.685-1.026 1.598-.532 2.549.988 1.865 2.28 3.538 3.838 4.946.57.533 1.216.989 1.862 1.484.076-.495.114-.913.152-1.294.456-2.701 1.672-5.021 3.838-6.695.304-.229.418-.457.456-.837.038-1.294.266-2.549.836-3.729.38-.722.874-1.331 1.672-1.597.836-.267 1.558.152 1.748.989.038.228.076.456.114.646.228 1.484.988 2.093 2.584 2.093.114-1.141.266-2.283.342-3.424.076-1.027.456-1.446 1.444-1.674.57-.114 1.102-.228 1.672-.38 3.724-.381 8.094-2.854 8.512-6.316.114-.989-.266-1.597-1.216-1.864-1.368-.342-2.736-.647-4.066-1.027-.228-.076-3.23-.304-3.42-.495-.38-.342-.646-.875-1.102-1.065-1.254-.57-2.584-1.141-3.914-1.521-1.33-.381-2.698-.609-4.104-.229.57 1.027 1.178 1.979 1.672 3.006 1.178 2.282 2.166 4.641 2.128 7.304 0 .875-.38 1.408-1.216 1.674-1.596.495-3.192.533-4.788.076-1.406-.38-2.584-1.179-3.61-2.206-.038 0-.114.038-.152.038v1.255c.076 1.712-.494 3.196-1.406 4.565-.912 1.522-2.052 2.663-3.344 3.728zm17.442-15.559c.456 0 .874.38.874.875 0 .456-.38.875-.874.875-.456 0-.874-.381-.874-.875.038-.457.418-.875.874-.875z"/>
    <path fill="#747678" d="M501.701 133.696c1.33-.495 3.458-.381 4.826-.761.76-.229 5.472-.533 5.89-1.256.114-.19.038-.913.152-1.103.722-1.103.722-1.103-.152-2.092-.684-.761-6.042-1.56-6.27-2.625-.152-.875-.646-1.484-1.33-1.941-.988-.684-2.128-.989-3.306-1.103-.494-.038-.874-.266-1.178-.685-.57-.723-.874-1.559-.988-2.434-.076-.685-.418-.837-.95-.419-.456.419-.95.951-1.102 1.522-.304 1.065-.38 2.206-.57 3.272-.038.266-.19.646-.418.798-2.584 1.865-3.762 4.452-3.99 7.495 0 .152.114.418.228.457 1.406.608 2.812 1.293 4.256 1.788.988.342 2.052.456 3.078.646h1.33c0-.266-.076-.57 0-.837.114-.266.266-.646.494-.722zm1.482-6.848c.418 0 .798.342.798.799 0 .418-.342.799-.798.799s-.798-.343-.798-.799c0-.457.38-.799.798-.799z"/>
    <path fill="#545454" d="M94.84 295.368V321h-5.507v-10.764h-11.88V321h-5.508v-25.632h5.508v10.368h11.88v-10.368h5.508zm13.511 25.92c-1.944 0-3.648-.384-5.112-1.152-1.44-.768-2.556-1.872-3.348-3.312-.768-1.44-1.152-3.12-1.152-5.04s.384-3.6 1.152-5.04c.792-1.44 1.908-2.544 3.348-3.312 1.464-.768 3.168-1.152 5.112-1.152 1.92 0 3.6.384 5.04 1.152 1.44.768 2.544 1.872 3.312 3.312.792 1.44 1.188 3.12 1.188 5.04s-.396 3.6-1.188 5.04c-.768 1.44-1.872 2.544-3.312 3.312-1.44.768-3.12 1.152-5.04 1.152zm0-4.14c1.344 0 2.364-.444 3.06-1.332.72-.888 1.08-2.232 1.08-4.032 0-1.776-.36-3.108-1.08-3.996-.696-.912-1.716-1.368-3.06-1.368-1.368 0-2.412.456-3.132 1.368-.72.888-1.08 2.22-1.08 3.996 0 3.576 1.404 5.364 4.212 5.364zm42.507-14.4L143.478 321h-4.572l-4.14-10.584-3.96 10.584h-4.608l-7.38-18.252h5.544l4.392 11.772 4.356-11.772h3.708l4.392 11.88 4.392-11.88h5.256zm12.704-7.38h5.616V321h-5.616v-25.632zm17.238 11.448v7.092c0 1.008.264 1.752.792 2.232.528.456 1.212.684 2.052.684.528 0 1.128-.084 1.8-.252v4.212c-.864.336-1.908.504-3.132.504-2.256 0-3.984-.636-5.184-1.908-1.176-1.272-1.764-3.06-1.764-5.364v-7.2h-3.456v-4.068h3.456v-4.284l5.436-1.764v6.048h4.644v4.068H180.8zm55.214-11.448L226.906 321h-4.5l-5.976-16.956L210.418 321h-4.5l-9.108-25.632h5.724l5.904 17.712 6.192-17.712h3.924l6.048 17.964 6.048-17.964h5.364zm9.447 25.92c-1.944 0-3.648-.384-5.112-1.152-1.44-.768-2.556-1.872-3.348-3.312-.768-1.44-1.152-3.12-1.152-5.04s.384-3.6 1.152-5.04c.792-1.44 1.908-2.544 3.348-3.312 1.464-.768 3.168-1.152 5.112-1.152 1.92 0 3.6.384 5.04 1.152 1.44.768 2.544 1.872 3.312 3.312.792 1.44 1.188 3.12 1.188 5.04s-.396 3.6-1.188 5.04c-.768 1.44-1.872 2.544-3.312 3.312-1.44.768-3.12 1.152-5.04 1.152zm0-4.14c1.344 0 2.364-.444 3.06-1.332.72-.888 1.08-2.232 1.08-4.032 0-1.776-.36-3.108-1.08-3.996-.696-.912-1.716-1.368-3.06-1.368-1.368 0-2.412.456-3.132 1.368-.72.888-1.08 2.22-1.08 3.996 0 3.576 1.404 5.364 4.212 5.364zm23.634-14.832c.768 0 1.416.12 1.944.36l-.036 4.968c-.888-.408-1.776-.612-2.664-.612-1.44 0-2.544.396-3.312 1.188-.744.768-1.116 1.848-1.116 3.24V321h-5.436v-13.032c0-1.944-.096-3.684-.288-5.22h5.112l.36 3.132c.456-1.152 1.164-2.028 2.124-2.628.984-.624 2.088-.936 3.312-.936zM285.841 321l-7.164-8.172V321h-5.436v-26.496h5.436v16.092l6.84-7.812h6.516l-7.74 8.748 8.208 9.468h-6.66zm14.845.288c-3.456 0-6.18-.744-8.172-2.232l1.44-3.78c.96.696 2.028 1.236 3.204 1.62 1.176.36 2.376.54 3.6.54.936 0 1.656-.144 2.16-.432.504-.288.756-.708.756-1.26 0-.456-.18-.816-.54-1.08-.36-.264-.996-.492-1.908-.684l-2.988-.684c-1.752-.384-3.048-.996-3.888-1.836-.816-.84-1.224-1.956-1.224-3.348 0-1.128.324-2.136.972-3.024.672-.888 1.596-1.572 2.772-2.052 1.176-.504 2.532-.756 4.068-.756 1.296 0 2.568.204 3.816.612 1.248.384 2.364.936 3.348 1.656l-1.512 3.636c-.936-.648-1.896-1.14-2.88-1.476-.96-.336-1.896-.504-2.808-.504-.888 0-1.584.156-2.088.468-.504.312-.756.744-.756 1.296 0 .408.144.744.432 1.008.312.24.852.444 1.62.612l3.06.684c1.872.432 3.228 1.08 4.068 1.944.84.864 1.26 2.016 1.26 3.456 0 1.728-.696 3.096-2.088 4.104-1.392 1.008-3.3 1.512-5.724 1.512z"/>
    <g filter="url(#filter0_d)">
        <path fill="#F4D020" d="M86.705 107.261c24.451-10.337 35.893-38.538 25.556-62.989-10.337-24.45-38.538-35.892-62.989-25.556-24.45 10.337-35.892 38.538-25.556 62.989 10.337 24.451 38.538 35.893 62.989 25.556z"/>
    </g>
    <path fill="#fff" d="M112.27 73.865c5.999-24.47-8.974-49.17-33.445-55.17-24.47-5.999-49.17 8.975-55.17 33.445-5.998 24.47 8.975 49.171 33.446 55.17 24.47 5.999 49.17-8.975 55.169-33.445z"/>
    <path fill="#212529" fill-rule="evenodd" d="M68.65 88.011l.023.022.048.041v.001l.657-.68c.444-.377 1.036-.886 1.704-1.472 1.434-1.257 3.234-2.881 4.652-4.315 7.018-7.098 11.957-18.909 11.77-28.966-.093-5.043-1.479-9.756-4.669-13.198-2.961-3.196-7.37-5.181-13.398-5.408v-.02c-.29-.005-.578-.004-.86 0-.237-.002-.477-.002-.718.002v.02c-5.685.242-9.844 2.236-12.636 5.425-3.014 3.442-4.319 8.147-4.407 13.178-.175 10.04 4.483 21.845 11.118 28.946 1.34 1.435 3.04 3.06 4.396 4.317.515.478.982.904 1.365 1.25l.177.195.68.745v-.001l.05-.042.048-.04zm-5.175-7.74c-6.284-6.726-10.759-18.048-10.592-27.596.083-4.763 1.319-8.967 3.925-11.945 2.457-2.806 6.236-4.641 11.775-4.738 5.994.063 10.071 1.919 12.705 4.761 2.758 2.977 4.062 7.174 4.15 11.924.176 9.53-4.552 20.845-11.207 27.574-1.366 1.382-3.122 2.968-4.546 4.216-.358.314-.694.605-.996.865-.28-.255-.59-.54-.919-.845-1.346-1.249-3.004-2.834-4.294-4.215z" clip-rule="evenodd"/>
    <circle cx="68.677" cy="51.879" r="12.287" stroke="#212529" stroke-width="1.5"/>
    <path stroke="#212529" stroke-width="1.5" d="M62.4 62.019c0-2.898 1.256-8.692 6.278-8.692 5.022 0 6.277 5.794 6.277 8.692M71.308 47.05c0 .741-.306 1.54-.816 2.15-.51.61-1.16.963-1.814.963-.656 0-1.305-.352-1.815-.962s-.815-1.41-.815-2.151c0-1.453 1.177-2.63 2.63-2.63 1.452 0 2.63 1.177 2.63 2.63z"/>
    <path stroke="#212529" stroke-linecap="round" stroke-linejoin="round" stroke-width="2" d="M56.606 81.333c-6.277 0-10.333 11.59 12.072 11.59s18.349-11.59 12.071-11.59"/>
    <ellipse cx="65" cy="64.5" fill="#fff" rx="41" ry="37.5"/>
    <path fill="#75787B" fill-rule="evenodd" d="M67.993 45c-3.955.001-7.82 1.175-11.109 3.373-3.288 2.199-5.85 5.322-7.363 8.977-1.513 3.654-1.908 7.675-1.136 11.553.772 3.88 2.676 7.442 5.473 10.24 2.797 2.796 6.36 4.7 10.239 5.472 3.879.772 7.9.377 11.553-1.136 3.655-1.513 6.778-4.075 8.976-7.363C86.825 72.828 88 68.962 88 65.007c-.007-5.304-2.118-10.389-5.868-14.139-3.75-3.75-8.835-5.86-14.139-5.868zm0 36.521c-2.197.001-4.373-.438-6.398-1.291-2.025-.853-3.86-2.103-5.394-3.676v-.95c.002-1.98.79-3.877 2.19-5.276s3.299-2.184 5.278-2.184h8.648c1.757.001 3.449.62 4.786 1.738.306.21.596.444.867.699 1.397 1.312 2.183 3.09 2.187 4.947v.891c-.768.74-1.61 1.404-2.515 1.983-1.009.728-2.1 1.342-3.251 1.827-2.025.853-4.2 1.292-6.398 1.292zm.392-30.246c1.552-.002 3.07.457 4.36 1.318 1.291.862 2.297 2.086 2.892 3.52.594 1.433.75 3.01.448 4.533-.302 1.522-1.05 2.92-2.147 4.018-1.097 1.097-2.495 1.844-4.017 2.146-1.523.303-3.1.147-4.534-.448-1.433-.594-2.658-1.6-3.52-2.891-.86-1.291-1.32-2.809-1.318-4.36 0-2.079.826-4.072 2.295-5.541 1.47-1.47 3.463-2.295 5.54-2.295z" clip-rule="evenodd"/>
    <path stroke="#212529" d="M117 62.5L405 62.5M405.5 63L405.5 636"/>
    <path fill="url(#paint0_linear)" d="M404.752 134.503c13.67 0 24.751-11.081 24.751-24.751 0-13.67-11.081-24.752-24.751-24.752C391.082 85 380 96.082 380 109.752c0 13.67 11.082 24.751 24.752 24.751z"/>
    <path fill="#212529" d="M403.717 108.963c0 2.455-.419 4.28-1.257 5.473-.839 1.194-2.15 1.791-3.933 1.791-1.76 0-3.063-.582-3.909-1.745-.846-1.171-1.285-2.917-1.315-5.236v-2.799c0-2.425.419-4.227 1.258-5.405.839-1.179 2.153-1.768 3.944-1.768 1.775 0 3.082.57 3.921 1.711.838 1.133 1.269 2.886 1.291 5.258v2.72zm-2.096-2.867c0-1.776-.249-3.067-.748-3.876-.499-.816-1.288-1.224-2.368-1.224-1.073 0-1.855.405-2.346 1.213-.491.808-.744 2.051-.759 3.728v3.354c0 1.783.256 3.102.77 3.955.521.846 1.307 1.269 2.357 1.269 1.035 0 1.802-.4 2.301-1.201.506-.801.77-2.062.793-3.785v-3.433zM413.293 116h-2.108v-13.972l-4.227 1.552v-1.904l6.006-2.255h.329V116z"/>
    <path fill="#75787B" d="M573.846 102.156h-5.994L566.628 105h-2.826l5.886-12.816h2.268L577.842 105h-2.772l-1.224-2.844zm-.918-2.142l-2.07-4.806-2.07 4.806h4.14zm14.972-8.262V105h-2.682v-1.35c-.276.468-.666.834-1.17 1.098-.504.264-1.074.396-1.71.396-.78 0-1.476-.198-2.088-.594-.612-.408-1.092-.972-1.44-1.692-.336-.732-.504-1.566-.504-2.502 0-.936.168-1.758.504-2.466.348-.72.822-1.272 1.422-1.656.612-.396 1.314-.594 2.106-.594.612 0 1.17.132 1.674.396.504.252.894.606 1.17 1.062v-5.346h2.718zm-4.77 11.322c.672 0 1.188-.228 1.548-.684.36-.468.54-1.134.54-1.998 0-.852-.186-1.506-.558-1.962-.36-.468-.87-.702-1.53-.702-.672 0-1.194.228-1.566.684-.372.456-.558 1.104-.558 1.944 0 .864.186 1.536.558 2.016.372.468.894.702 1.566.702zm16.108-11.322V105h-2.682v-1.35c-.276.468-.666.834-1.17 1.098-.504.264-1.074.396-1.71.396-.78 0-1.476-.198-2.088-.594-.612-.408-1.092-.972-1.44-1.692-.336-.732-.504-1.566-.504-2.502 0-.936.168-1.758.504-2.466.348-.72.822-1.272 1.422-1.656.612-.396 1.314-.594 2.106-.594.612 0 1.17.132 1.674.396.504.252.894.606 1.17 1.062v-5.346h2.718zm-4.77 11.322c.672 0 1.188-.228 1.548-.684.36-.468.54-1.134.54-1.998 0-.852-.186-1.506-.558-1.962-.36-.468-.87-.702-1.53-.702-.672 0-1.194.228-1.566.684-.372.456-.558 1.104-.558 1.944 0 .864.186 1.536.558 2.016.372.468.894.702 1.566.702zm16.688 2.088c-.972 0-1.908-.126-2.808-.378-.888-.264-1.626-.63-2.214-1.098l.9-2.016c1.236.864 2.616 1.296 4.14 1.296.816 0 1.44-.126 1.872-.378.444-.264.666-.63.666-1.098 0-.408-.204-.726-.612-.954-.396-.24-1.098-.468-2.106-.684-1.128-.228-2.028-.504-2.7-.828-.66-.336-1.146-.738-1.458-1.206-.3-.48-.45-1.074-.45-1.782 0-.768.21-1.458.63-2.07.432-.612 1.032-1.086 1.8-1.422.768-.348 1.656-.522 2.664-.522.912 0 1.788.132 2.628.396.84.264 1.512.624 2.016 1.08l-.9 2.016c-1.128-.864-2.37-1.296-3.726-1.296-.72 0-1.296.144-1.728.432-.432.288-.648.678-.648 1.17 0 .288.078.528.234.72.168.192.444.366.828.522.384.144.93.288 1.638.432 1.644.36 2.826.828 3.546 1.404.732.576 1.098 1.362 1.098 2.358 0 1.2-.468 2.154-1.404 2.862-.936.696-2.238 1.044-3.906 1.044zm16.313-9.288V105h-2.682v-1.35c-.276.468-.666.834-1.17 1.098-.504.264-1.074.396-1.71.396-.792 0-1.494-.192-2.106-.576-.6-.384-1.074-.93-1.422-1.638-.336-.72-.504-1.548-.504-2.484 0-.936.168-1.77.504-2.502.348-.732.828-1.296 1.44-1.692.612-.408 1.308-.612 2.088-.612.636 0 1.206.138 1.71.414.504.276.894.648 1.17 1.116v-1.296h2.682zm-4.77 7.2c.672 0 1.188-.228 1.548-.684.36-.456.54-1.116.54-1.98 0-.864-.18-1.524-.54-1.98-.36-.468-.876-.702-1.548-.702s-1.194.24-1.566.72c-.372.48-.558 1.146-.558 1.998 0 .852.18 1.506.54 1.962.372.444.9.666 1.584.666zm18.123-7.434c1.044 0 1.818.318 2.322.954.516.624.774 1.584.774 2.88V105H641.2v-5.436c0-.636-.102-1.092-.306-1.368-.204-.288-.54-.432-1.008-.432-.552 0-.978.192-1.278.576-.3.384-.45.924-.45 1.62V105h-2.718v-5.436c0-.624-.108-1.08-.324-1.368-.204-.288-.534-.432-.99-.432-.552 0-.984.192-1.296.576-.3.384-.45.924-.45 1.62V105h-2.718v-6.516c0-.972-.048-1.842-.144-2.61h2.556l.162 1.368c.276-.516.66-.912 1.152-1.188.504-.276 1.08-.414 1.728-.414 1.356 0 2.256.564 2.7 1.692.3-.516.714-.924 1.242-1.224.54-.312 1.128-.468 1.764-.468zm10.821 0c.78 0 1.476.204 2.088.612.612.396 1.086.96 1.422 1.692.348.732.522 1.566.522 2.502 0 .936-.168 1.764-.504 2.484-.336.708-.81 1.254-1.422 1.638-.612.384-1.314.576-2.106.576-.636 0-1.206-.132-1.71-.396s-.888-.63-1.152-1.098v5.238h-2.718V98.484c0-.972-.048-1.842-.144-2.61h2.556l.18 1.512c.24-.54.624-.966 1.152-1.278.54-.312 1.152-.468 1.836-.468zm-.774 7.434c.672 0 1.188-.222 1.548-.666.36-.456.54-1.11.54-1.962 0-.852-.186-1.518-.558-1.998-.36-.48-.87-.72-1.53-.72-.672 0-1.194.234-1.566.702-.36.456-.54 1.116-.54 1.98 0 .864.18 1.524.54 1.98.372.456.894.684 1.566.684zm6.549-11.322h2.718V105h-2.718V91.752zm13.13 8.91h-6.012c.048.852.27 1.476.666 1.872.396.384.984.576 1.764.576.468 0 .936-.078 1.404-.234.468-.156.9-.384 1.296-.684l.72 1.836c-.432.348-.972.624-1.62.828-.636.192-1.278.288-1.926.288-1.536 0-2.742-.42-3.618-1.26-.876-.852-1.314-2.01-1.314-3.474 0-.924.186-1.746.558-2.466.384-.732.918-1.296 1.602-1.692.684-.408 1.458-.612 2.322-.612 1.284 0 2.298.42 3.042 1.26.744.828 1.116 1.95 1.116 3.366v.396zm-4.086-3.114c-.516 0-.936.15-1.26.45-.312.3-.516.738-.612 1.314h3.618c-.144-1.176-.726-1.764-1.746-1.764zm-96.702 30.614c-.972 0-1.908-.126-2.808-.378-.888-.264-1.626-.63-2.214-1.098l.9-2.016c1.236.864 2.616 1.296 4.14 1.296.816 0 1.44-.126 1.872-.378.444-.264.666-.63.666-1.098 0-.408-.204-.726-.612-.954-.396-.24-1.098-.468-2.106-.684-1.128-.228-2.028-.504-2.7-.828-.66-.336-1.146-.738-1.458-1.206-.3-.48-.45-1.074-.45-1.782 0-.768.21-1.458.63-2.07.432-.612 1.032-1.086 1.8-1.422.768-.348 1.656-.522 2.664-.522.912 0 1.788.132 2.628.396.84.264 1.512.624 2.016 1.08l-.9 2.016c-1.128-.864-2.37-1.296-3.726-1.296-.72 0-1.296.144-1.728.432-.432.288-.648.678-.648 1.17 0 .288.078.528.234.72.168.192.444.366.828.522.384.144.93.288 1.638.432 1.644.36 2.826.828 3.546 1.404.732.576 1.098 1.362 1.098 2.358 0 1.2-.468 2.154-1.404 2.862-.936.696-2.238 1.044-3.906 1.044zm11.524-.018c-.972 0-1.824-.192-2.556-.576-.72-.384-1.278-.936-1.674-1.656-.384-.72-.576-1.56-.576-2.52s.192-1.8.576-2.52c.396-.72.954-1.272 1.674-1.656.732-.384 1.584-.576 2.556-.576.96 0 1.8.192 2.52.576.72.384 1.272.936 1.656 1.656.396.72.594 1.56.594 2.52s-.198 1.8-.594 2.52c-.384.72-.936 1.272-1.656 1.656-.72.384-1.56.576-2.52.576zm0-2.07c.672 0 1.182-.222 1.53-.666.36-.444.54-1.116.54-2.016 0-.888-.18-1.554-.54-1.998-.348-.456-.858-.684-1.53-.684-.684 0-1.206.228-1.566.684-.36.444-.54 1.11-.54 1.998 0 1.788.702 2.682 2.106 2.682zm15.219-7.2V128h-2.646v-1.332c-.288.48-.666.846-1.134 1.098-.468.252-.996.378-1.584.378-1.14 0-1.992-.318-2.556-.954-.564-.636-.846-1.596-.846-2.88v-5.436h2.718v5.49c0 1.104.474 1.656 1.422 1.656.564 0 1.02-.192 1.368-.576.348-.384.522-.888.522-1.512v-5.058h2.736zm7.514-.216c.384 0 .708.06.972.18l-.018 2.484c-.444-.204-.888-.306-1.332-.306-.72 0-1.272.198-1.656.594-.372.384-.558.924-.558 1.62V128h-2.718v-6.516c0-.972-.048-1.842-.144-2.61h2.556l.18 1.566c.228-.576.582-1.014 1.062-1.314.492-.312 1.044-.468 1.656-.468zm6.217 9.486c-1.488 0-2.658-.42-3.51-1.26-.84-.84-1.26-1.986-1.26-3.438 0-.948.204-1.782.612-2.502.408-.732.978-1.296 1.71-1.692.744-.408 1.602-.612 2.574-.612.66 0 1.302.102 1.926.306.624.204 1.122.48 1.494.828l-.72 1.89c-.36-.288-.756-.51-1.188-.666-.432-.168-.852-.252-1.26-.252-.744 0-1.326.228-1.746.684-.408.444-.612 1.098-.612 1.962 0 .876.204 1.542.612 1.998.408.444.99.666 1.746.666.408 0 .828-.078 1.26-.234.432-.168.828-.396 1.188-.684l.72 1.89c-.396.348-.912.624-1.548.828-.636.192-1.302.288-1.998.288zm13.029-4.482h-6.012c.048.852.27 1.476.666 1.872.396.384.984.576 1.764.576.468 0 .936-.078 1.404-.234.468-.156.9-.384 1.296-.684l.72 1.836c-.432.348-.972.624-1.62.828-.636.192-1.278.288-1.926.288-1.536 0-2.742-.42-3.618-1.26-.876-.852-1.314-2.01-1.314-3.474 0-.924.186-1.746.558-2.466.384-.732.918-1.296 1.602-1.692.684-.408 1.458-.612 2.322-.612 1.284 0 2.298.42 3.042 1.26.744.828 1.116 1.95 1.116 3.366v.396zm-4.086-3.114c-.516 0-.936.15-1.26.45-.312.3-.516.738-.612 1.314h3.618c-.144-1.176-.726-1.764-1.746-1.764zM571.29 232.162c-1.296 0-2.43-.27-3.402-.81-.96-.552-1.698-1.32-2.214-2.304-.516-.996-.774-2.154-.774-3.474 0-1.308.258-2.454.774-3.438.516-.996 1.254-1.764 2.214-2.304.972-.54 2.106-.81 3.402-.81.852 0 1.662.132 2.43.396.78.252 1.416.612 1.908 1.08l-.882 2.016c-.576-.432-1.14-.744-1.692-.936-.54-.204-1.11-.306-1.71-.306-1.152 0-2.034.366-2.646 1.098-.612.732-.918 1.8-.918 3.204 0 1.416.306 2.496.918 3.24.612.732 1.494 1.098 2.646 1.098.6 0 1.17-.096 1.71-.288.552-.204 1.116-.522 1.692-.954l.882 2.016c-.492.468-1.128.834-1.908 1.098-.768.252-1.578.378-2.43.378zm10.31-.018c-.972 0-1.824-.192-2.556-.576-.72-.384-1.278-.936-1.674-1.656-.384-.72-.576-1.56-.576-2.52s.192-1.8.576-2.52c.396-.72.954-1.272 1.674-1.656.732-.384 1.584-.576 2.556-.576.96 0 1.8.192 2.52.576.72.384 1.272.936 1.656 1.656.396.72.594 1.56.594 2.52s-.198 1.8-.594 2.52c-.384.72-.936 1.272-1.656 1.656-.72.384-1.56.576-2.52.576zm0-2.07c.672 0 1.182-.222 1.53-.666.36-.444.54-1.116.54-2.016 0-.888-.18-1.554-.54-1.998-.348-.456-.858-.684-1.53-.684-.684 0-1.206.228-1.566.684-.36.444-.54 1.11-.54 1.998 0 1.788.702 2.682 2.106 2.682zm17.668-7.434c1.044 0 1.818.318 2.322.954.516.624.774 1.584.774 2.88V232h-2.718v-5.436c0-.636-.102-1.092-.306-1.368-.204-.288-.54-.432-1.008-.432-.552 0-.978.192-1.278.576-.3.384-.45.924-.45 1.62V232h-2.718v-5.436c0-.624-.108-1.08-.324-1.368-.204-.288-.534-.432-.99-.432-.552 0-.984.192-1.296.576-.3.384-.45.924-.45 1.62V232h-2.718v-6.516c0-.972-.048-1.842-.144-2.61h2.556l.162 1.368c.276-.516.66-.912 1.152-1.188.504-.276 1.08-.414 1.728-.414 1.356 0 2.256.564 2.7 1.692.3-.516.714-.924 1.242-1.224.54-.312 1.128-.468 1.764-.468zm10.82 0c.78 0 1.476.204 2.088.612.612.396 1.086.96 1.422 1.692.348.732.522 1.566.522 2.502 0 .936-.168 1.764-.504 2.484-.336.708-.81 1.254-1.422 1.638-.612.384-1.314.576-2.106.576-.636 0-1.206-.132-1.71-.396s-.888-.63-1.152-1.098v5.238h-2.718v-10.404c0-.972-.048-1.842-.144-2.61h2.556l.18 1.512c.24-.54.624-.966 1.152-1.278.54-.312 1.152-.468 1.836-.468zm-.774 7.434c.672 0 1.188-.222 1.548-.666.36-.456.54-1.11.54-1.962 0-.852-.186-1.518-.558-1.998-.36-.48-.87-.72-1.53-.72-.672 0-1.194.234-1.566.702-.36.456-.54 1.116-.54 1.98 0 .864.18 1.524.54 1.98.372.456.894.684 1.566.684zm6.55-11.322h2.718V232h-2.718v-13.248zm13.129 8.91h-6.012c.048.852.27 1.476.666 1.872.396.384.984.576 1.764.576.468 0 .936-.078 1.404-.234.468-.156.9-.384 1.296-.684l.72 1.836c-.432.348-.972.624-1.62.828-.636.192-1.278.288-1.926.288-1.536 0-2.742-.42-3.618-1.26-.876-.852-1.314-2.01-1.314-3.474 0-.924.186-1.746.558-2.466.384-.732.918-1.296 1.602-1.692.684-.408 1.458-.612 2.322-.612 1.284 0 2.298.42 3.042 1.26.744.828 1.116 1.95 1.116 3.366v.396zm-4.086-3.114c-.516 0-.936.15-1.26.45-.312.3-.516.738-.612 1.314h3.618c-.144-1.176-.726-1.764-1.746-1.764zm9.037.36v3.546c0 .504.132.876.396 1.116.264.228.606.342 1.026.342.264 0 .564-.042.9-.126v2.106c-.432.168-.954.252-1.566.252-1.128 0-1.992-.318-2.592-.954-.588-.636-.882-1.53-.882-2.682v-3.6h-1.728v-2.034h1.728v-2.142l2.718-.882v3.024h2.322v2.034h-2.322zm11.907 2.754h-6.012c.048.852.27 1.476.666 1.872.396.384.984.576 1.764.576.468 0 .936-.078 1.404-.234.468-.156.9-.384 1.296-.684l.72 1.836c-.432.348-.972.624-1.62.828-.636.192-1.278.288-1.926.288-1.536 0-2.742-.42-3.618-1.26-.876-.852-1.314-2.01-1.314-3.474 0-.924.186-1.746.558-2.466.384-.732.918-1.296 1.602-1.692.684-.408 1.458-.612 2.322-.612 1.284 0 2.298.42 3.042 1.26.744.828 1.116 1.95 1.116 3.366v.396zm-4.086-3.114c-.516 0-.936.15-1.26.45-.312.3-.516.738-.612 1.314h3.618c-.144-1.176-.726-1.764-1.746-1.764zm-70.475 30.614c-1.296 0-2.43-.27-3.402-.81-.96-.552-1.698-1.32-2.214-2.304-.516-.996-.774-2.154-.774-3.474 0-1.308.258-2.454.774-3.438.516-.996 1.254-1.764 2.214-2.304.972-.54 2.106-.81 3.402-.81.852 0 1.662.132 2.43.396.78.252 1.416.612 1.908 1.08l-.882 2.016c-.576-.432-1.14-.744-1.692-.936-.54-.204-1.11-.306-1.71-.306-1.152 0-2.034.366-2.646 1.098-.612.732-.918 1.8-.918 3.204 0 1.416.306 2.496.918 3.24.612.732 1.494 1.098 2.646 1.098.6 0 1.17-.096 1.71-.288.552-.204 1.116-.522 1.692-.954l.882 2.016c-.492.468-1.128.834-1.908 1.098-.768.252-1.578.378-2.43.378zm10.31-.018c-.972 0-1.824-.192-2.556-.576-.72-.384-1.278-.936-1.674-1.656-.384-.72-.576-1.56-.576-2.52s.192-1.8.576-2.52c.396-.72.954-1.272 1.674-1.656.732-.384 1.584-.576 2.556-.576.96 0 1.8.192 2.52.576.72.384 1.272.936 1.656 1.656.396.72.594 1.56.594 2.52s-.198 1.8-.594 2.52c-.384.72-.936 1.272-1.656 1.656-.72.384-1.56.576-2.52.576zm0-2.07c.672 0 1.182-.222 1.53-.666.36-.444.54-1.116.54-2.016 0-.888-.18-1.554-.54-1.998-.348-.456-.858-.684-1.53-.684-.684 0-1.206.228-1.566.684-.36.444-.54 1.11-.54 1.998 0 1.788.702 2.682 2.106 2.682zm12.142-7.434c2.16 0 3.24 1.278 3.24 3.834V255h-2.718v-5.4c0-.636-.12-1.098-.36-1.386-.228-.3-.594-.45-1.098-.45-.6 0-1.08.192-1.44.576-.36.384-.54.9-.54 1.548V255h-2.718v-6.516c0-.972-.048-1.842-.144-2.61h2.556l.18 1.44c.324-.54.744-.954 1.26-1.242.528-.288 1.122-.432 1.782-.432zm8.897 9.504c-1.728 0-3.09-.372-4.086-1.116l.72-1.89c.48.348 1.014.618 1.602.81.588.18 1.188.27 1.8.27.468 0 .828-.072 1.08-.216.252-.144.378-.354.378-.63 0-.228-.09-.408-.27-.54-.18-.132-.498-.246-.954-.342l-1.494-.342c-.876-.192-1.524-.498-1.944-.918-.408-.42-.612-.978-.612-1.674 0-.564.162-1.068.486-1.512.336-.444.798-.786 1.386-1.026.588-.252 1.266-.378 2.034-.378.648 0 1.284.102 1.908.306.624.192 1.182.468 1.674.828l-.756 1.818c-.468-.324-.948-.57-1.44-.738-.48-.168-.948-.252-1.404-.252-.444 0-.792.078-1.044.234-.252.156-.378.372-.378.648 0 .204.072.372.216.504.156.12.426.222.81.306l1.53.342c.936.216 1.614.54 2.034.972.42.432.63 1.008.63 1.728 0 .864-.348 1.548-1.044 2.052-.696.504-1.65.756-2.862.756zm13.751-4.482h-6.012c.048.852.27 1.476.666 1.872.396.384.984.576 1.764.576.468 0 .936-.078 1.404-.234.468-.156.9-.384 1.296-.684l.72 1.836c-.432.348-.972.624-1.62.828-.636.192-1.278.288-1.926.288-1.536 0-2.742-.42-3.618-1.26-.876-.852-1.314-2.01-1.314-3.474 0-.924.186-1.746.558-2.466.384-.732.918-1.296 1.602-1.692.684-.408 1.458-.612 2.322-.612 1.284 0 2.298.42 3.042 1.26.744.828 1.116 1.95 1.116 3.366v.396zm-4.086-3.114c-.516 0-.936.15-1.26.45-.312.3-.516.738-.612 1.314h3.618c-.144-1.176-.726-1.764-1.746-1.764zm11.426-1.908c2.16 0 3.24 1.278 3.24 3.834V255h-2.718v-5.4c0-.636-.12-1.098-.36-1.386-.228-.3-.594-.45-1.098-.45-.6 0-1.08.192-1.44.576-.36.384-.54.9-.54 1.548V255h-2.718v-6.516c0-.972-.048-1.842-.144-2.61h2.556l.18 1.44c.324-.54.744-.954 1.26-1.242.528-.288 1.122-.432 1.782-.432zm8.825 2.268v3.546c0 .504.132.876.396 1.116.264.228.606.342 1.026.342.264 0 .564-.042.9-.126v2.106c-.432.168-.954.252-1.566.252-1.128 0-1.992-.318-2.592-.954-.588-.636-.882-1.53-.882-2.682v-3.6h-1.728v-2.034h1.728v-2.142l2.718-.882v3.024h2.322v2.034h-2.322zm8.959-5.724h8.64v2.214h-5.868v2.97h5.508v2.232h-5.508v5.4h-2.772v-12.816zm14.407 12.96c-.972 0-1.824-.192-2.556-.576-.72-.384-1.278-.936-1.674-1.656-.384-.72-.576-1.56-.576-2.52s.192-1.8.576-2.52c.396-.72.954-1.272 1.674-1.656.732-.384 1.584-.576 2.556-.576.96 0 1.8.192 2.52.576.72.384 1.272.936 1.656 1.656.396.72.594 1.56.594 2.52s-.198 1.8-.594 2.52c-.384.72-.936 1.272-1.656 1.656-.72.384-1.56.576-2.52.576zm0-2.07c.672 0 1.182-.222 1.53-.666.36-.444.54-1.116.54-2.016 0-.888-.18-1.554-.54-1.998-.348-.456-.858-.684-1.53-.684-.684 0-1.206.228-1.566.684-.36.444-.54 1.11-.54 1.998 0 1.788.702 2.682 2.106 2.682zm11.817-7.416c.384 0 .708.06.972.18l-.018 2.484c-.444-.204-.888-.306-1.332-.306-.72 0-1.272.198-1.656.594-.372.384-.558.924-.558 1.62V255h-2.718v-6.516c0-.972-.048-1.842-.144-2.61h2.556l.18 1.566c.228-.576.582-1.014 1.062-1.314.492-.312 1.044-.468 1.656-.468zm13.233-.018c1.044 0 1.818.318 2.322.954.516.624.774 1.584.774 2.88V255h-2.718v-5.436c0-.636-.102-1.092-.306-1.368-.204-.288-.54-.432-1.008-.432-.552 0-.978.192-1.278.576-.3.384-.45.924-.45 1.62V255h-2.718v-5.436c0-.624-.108-1.08-.324-1.368-.204-.288-.534-.432-.99-.432-.552 0-.984.192-1.296.576-.3.384-.45.924-.45 1.62V255h-2.718v-6.516c0-.972-.048-1.842-.144-2.61h2.556l.162 1.368c.276-.516.66-.912 1.152-1.188.504-.276 1.08-.414 1.728-.414 1.356 0 2.256.564 2.7 1.692.3-.516.714-.924 1.242-1.224.54-.312 1.128-.468 1.764-.468zM568.23 353.47h-4.014v-2.286h10.872v2.286h-4.014V364h-2.844v-10.53zm15.856 1.404V364h-2.682v-1.35c-.276.468-.666.834-1.17 1.098-.504.264-1.074.396-1.71.396-.792 0-1.494-.192-2.106-.576-.6-.384-1.074-.93-1.422-1.638-.336-.72-.504-1.548-.504-2.484 0-.936.168-1.77.504-2.502.348-.732.828-1.296 1.44-1.692.612-.408 1.308-.612 2.088-.612.636 0 1.206.138 1.71.414.504.276.894.648 1.17 1.116v-1.296h2.682zm-4.77 7.2c.672 0 1.188-.228 1.548-.684.36-.456.54-1.116.54-1.98 0-.864-.18-1.524-.54-1.98-.36-.468-.876-.702-1.548-.702s-1.194.24-1.566.72c-.372.48-.558 1.146-.558 1.998 0 .852.18 1.506.54 1.962.372.444.9.666 1.584.666zM592.58 364l-3.582-4.086V364h-2.718v-13.248h2.718v8.046l3.42-3.906h3.258l-3.87 4.374L595.91 364h-3.33zm12.12-4.338h-6.012c.048.852.27 1.476.666 1.872.396.384.984.576 1.764.576.468 0 .936-.078 1.404-.234.468-.156.9-.384 1.296-.684l.72 1.836c-.432.348-.972.624-1.62.828-.636.192-1.278.288-1.926.288-1.536 0-2.742-.42-3.618-1.26-.876-.852-1.314-2.01-1.314-3.474 0-.924.186-1.746.558-2.466.384-.732.918-1.296 1.602-1.692.684-.408 1.458-.612 2.322-.612 1.284 0 2.298.42 3.042 1.26.744.828 1.116 1.95 1.116 3.366v.396zm-4.086-3.114c-.516 0-.936.15-1.26.45-.312.3-.516.738-.612 1.314h3.618c-.144-1.176-.726-1.764-1.746-1.764zm-30.854 30.614c-.972 0-1.908-.126-2.808-.378-.888-.264-1.626-.63-2.214-1.098l.9-2.016c1.236.864 2.616 1.296 4.14 1.296.816 0 1.44-.126 1.872-.378.444-.264.666-.63.666-1.098 0-.408-.204-.726-.612-.954-.396-.24-1.098-.468-2.106-.684-1.128-.228-2.028-.504-2.7-.828-.66-.336-1.146-.738-1.458-1.206-.3-.48-.45-1.074-.45-1.782 0-.768.21-1.458.63-2.07.432-.612 1.032-1.086 1.8-1.422.768-.348 1.656-.522 2.664-.522.912 0 1.788.132 2.628.396.84.264 1.512.624 2.016 1.08l-.9 2.016c-1.128-.864-2.37-1.296-3.726-1.296-.72 0-1.296.144-1.728.432-.432.288-.648.678-.648 1.17 0 .288.078.528.234.72.168.192.444.366.828.522.384.144.93.288 1.638.432 1.644.36 2.826.828 3.546 1.404.732.576 1.098 1.362 1.098 2.358 0 1.2-.468 2.154-1.404 2.862-.936.696-2.238 1.044-3.906 1.044zm15.88-9.288V387h-2.646v-1.332c-.288.48-.666.846-1.134 1.098-.468.252-.996.378-1.584.378-1.14 0-1.992-.318-2.556-.954-.564-.636-.846-1.596-.846-2.88v-5.436h2.718v5.49c0 1.104.474 1.656 1.422 1.656.564 0 1.02-.192 1.368-.576.348-.384.522-.888.522-1.512v-5.058h2.736zm7.514-.216c.384 0 .708.06.972.18l-.018 2.484c-.444-.204-.888-.306-1.332-.306-.72 0-1.272.198-1.656.594-.372.384-.558.924-.558 1.62V387h-2.718v-6.516c0-.972-.048-1.842-.144-2.61h2.556l.18 1.566c.228-.576.582-1.014 1.062-1.314.492-.312 1.044-.468 1.656-.468zm11.618.234L600.758 387h-2.304l-3.96-9.108h2.844l2.34 5.904 2.412-5.904h2.682zm8.911 4.77h-6.012c.048.852.27 1.476.666 1.872.396.384.984.576 1.764.576.468 0 .936-.078 1.404-.234.468-.156.9-.384 1.296-.684l.72 1.836c-.432.348-.972.624-1.62.828-.636.192-1.278.288-1.926.288-1.536 0-2.742-.42-3.618-1.26-.876-.852-1.314-2.01-1.314-3.474 0-.924.186-1.746.558-2.466.384-.732.918-1.296 1.602-1.692.684-.408 1.458-.612 2.322-.612 1.284 0 2.298.42 3.042 1.26.744.828 1.116 1.95 1.116 3.366v.396zm-4.086-3.114c-.516 0-.936.15-1.26.45-.312.3-.516.738-.612 1.314h3.618c-.144-1.176-.726-1.764-1.746-1.764zm14.616-1.674l-4.212 9.612c-.516 1.164-1.17 2.016-1.962 2.556-.78.552-1.74.906-2.88 1.062l-.63-2.088c.84-.18 1.47-.408 1.89-.684.432-.276.768-.678 1.008-1.206l.27-.594-3.762-8.658h2.844l2.34 5.922 2.412-5.922h2.682zm4.301 9.27c-1.728 0-3.09-.372-4.086-1.116l.72-1.89c.48.348 1.014.618 1.602.81.588.18 1.188.27 1.8.27.468 0 .828-.072 1.08-.216.252-.144.378-.354.378-.63 0-.228-.09-.408-.27-.54-.18-.132-.498-.246-.954-.342l-1.494-.342c-.876-.192-1.524-.498-1.944-.918-.408-.42-.612-.978-.612-1.674 0-.564.162-1.068.486-1.512.336-.444.798-.786 1.386-1.026.588-.252 1.266-.378 2.034-.378.648 0 1.284.102 1.908.306.624.192 1.182.468 1.674.828l-.756 1.818c-.468-.324-.948-.57-1.44-.738-.48-.168-.948-.252-1.404-.252-.444 0-.792.078-1.044.234-.252.156-.378.372-.378.648 0 .204.072.372.216.504.156.12.426.222.81.306l1.53.342c.936.216 1.614.54 2.034.972.42.432.63 1.008.63 1.728 0 .864-.348 1.548-1.044 2.052-.696.504-1.65.756-2.862.756zM571.29 489.162c-1.296 0-2.43-.27-3.402-.81-.96-.552-1.698-1.32-2.214-2.304-.516-.996-.774-2.154-.774-3.474 0-1.308.258-2.454.774-3.438.516-.996 1.254-1.764 2.214-2.304.972-.54 2.106-.81 3.402-.81.852 0 1.662.132 2.43.396.78.252 1.416.612 1.908 1.08l-.882 2.016c-.576-.432-1.14-.744-1.692-.936-.54-.204-1.11-.306-1.71-.306-1.152 0-2.034.366-2.646 1.098-.612.732-.918 1.8-.918 3.204 0 1.416.306 2.496.918 3.24.612.732 1.494 1.098 2.646 1.098.6 0 1.17-.096 1.71-.288.552-.204 1.116-.522 1.692-.954l.882 2.016c-.492.468-1.128.834-1.908 1.098-.768.252-1.578.378-2.43.378zm10.31-.018c-.972 0-1.824-.192-2.556-.576-.72-.384-1.278-.936-1.674-1.656-.384-.72-.576-1.56-.576-2.52s.192-1.8.576-2.52c.396-.72.954-1.272 1.674-1.656.732-.384 1.584-.576 2.556-.576.96 0 1.8.192 2.52.576.72.384 1.272.936 1.656 1.656.396.72.594 1.56.594 2.52s-.198 1.8-.594 2.52c-.384.72-.936 1.272-1.656 1.656-.72.384-1.56.576-2.52.576zm0-2.07c.672 0 1.182-.222 1.53-.666.36-.444.54-1.116.54-2.016 0-.888-.18-1.554-.54-1.998-.348-.456-.858-.684-1.53-.684-.684 0-1.206.228-1.566.684-.36.444-.54 1.11-.54 1.998 0 1.788.702 2.682 2.106 2.682zm6.508-11.322h2.718V489h-2.718v-13.248zm4.939 0h2.718V489h-2.718v-13.248zm13.13 8.91h-6.012c.048.852.27 1.476.666 1.872.396.384.984.576 1.764.576.468 0 .936-.078 1.404-.234.468-.156.9-.384 1.296-.684l.72 1.836c-.432.348-.972.624-1.62.828-.636.192-1.278.288-1.926.288-1.536 0-2.742-.42-3.618-1.26-.876-.852-1.314-2.01-1.314-3.474 0-.924.186-1.746.558-2.466.384-.732.918-1.296 1.602-1.692.684-.408 1.458-.612 2.322-.612 1.284 0 2.298.42 3.042 1.26.744.828 1.116 1.95 1.116 3.366v.396zm-4.086-3.114c-.516 0-.936.15-1.26.45-.312.3-.516.738-.612 1.314h3.618c-.144-1.176-.726-1.764-1.746-1.764zm10.112 7.596c-1.488 0-2.658-.42-3.51-1.26-.84-.84-1.26-1.986-1.26-3.438 0-.948.204-1.782.612-2.502.408-.732.978-1.296 1.71-1.692.744-.408 1.602-.612 2.574-.612.66 0 1.302.102 1.926.306.624.204 1.122.48 1.494.828l-.72 1.89c-.36-.288-.756-.51-1.188-.666-.432-.168-.852-.252-1.26-.252-.744 0-1.326.228-1.746.684-.408.444-.612 1.098-.612 1.962 0 .876.204 1.542.612 1.998.408.444.99.666 1.746.666.408 0 .828-.078 1.26-.234.432-.168.828-.396 1.188-.684l.72 1.89c-.396.348-.912.624-1.548.828-.636.192-1.302.288-1.998.288zm8.346-7.236v3.546c0 .504.132.876.396 1.116.264.228.606.342 1.026.342.264 0 .564-.042.9-.126v2.106c-.432.168-.954.252-1.566.252-1.128 0-1.992-.318-2.592-.954-.588-.636-.882-1.53-.882-2.682v-3.6h-1.728v-2.034h1.728v-2.142l2.718-.882v3.024h2.322v2.034h-2.322zm19.435 7.272c-1.128-.348-2.052-.84-2.772-1.476-1.128.96-2.406 1.44-3.834 1.44-.9 0-1.698-.15-2.394-.45-.684-.3-1.218-.72-1.602-1.26-.384-.552-.576-1.176-.576-1.872 0-.768.204-1.446.612-2.034.408-.588 1.05-1.134 1.926-1.638-.828-.876-1.242-1.776-1.242-2.7 0-.612.156-1.152.468-1.62.312-.48.744-.852 1.296-1.116.564-.264 1.212-.396 1.944-.396 1.02 0 1.836.264 2.448.792.612.516.918 1.212.918 2.088 0 .672-.186 1.272-.558 1.8-.372.528-.954 1.02-1.746 1.476l2.214 2.178c.456-.972.72-2.046.792-3.222h2.25c-.096 1.848-.57 3.45-1.422 4.806.744.636 1.602 1.08 2.574 1.332l-1.296 1.872zm-6.138-11.304c-.396 0-.714.12-.954.36-.24.228-.36.54-.36.936 0 .24.066.48.198.72.144.24.396.552.756.936.552-.3.942-.588 1.17-.864.24-.276.36-.582.36-.918 0-.36-.108-.642-.324-.846-.216-.216-.498-.324-.846-.324zm-2.394 7.524c0 .516.18.924.54 1.224.36.3.846.45 1.458.45.816 0 1.566-.288 2.25-.864l-2.952-2.916c-.444.288-.774.606-.99.954-.204.336-.306.72-.306 1.152zM576.096 512h-2.97l-1.638-4.266c-.132-.336-.336-.57-.612-.702-.264-.132-.6-.198-1.008-.198h-1.818V512h-2.772v-12.816h5.706c1.488 0 2.616.324 3.384.972.768.648 1.152 1.578 1.152 2.79 0 .852-.228 1.584-.684 2.196-.444.612-1.086 1.05-1.926 1.314.756.156 1.302.678 1.638 1.566l1.548 3.978zm-5.526-7.308c.804 0 1.392-.132 1.764-.396.372-.276.558-.702.558-1.278 0-.576-.186-.996-.558-1.26-.372-.276-.96-.414-1.764-.414h-2.556v3.348h2.556zm15.462 2.97h-6.012c.048.852.27 1.476.666 1.872.396.384.984.576 1.764.576.468 0 .936-.078 1.404-.234.468-.156.9-.384 1.296-.684l.72 1.836c-.432.348-.972.624-1.62.828-.636.192-1.278.288-1.926.288-1.536 0-2.742-.42-3.618-1.26-.876-.852-1.314-2.01-1.314-3.474 0-.924.186-1.746.558-2.466.384-.732.918-1.296 1.602-1.692.684-.408 1.458-.612 2.322-.612 1.284 0 2.298.42 3.042 1.26.744.828 1.116 1.95 1.116 3.366v.396zm-4.086-3.114c-.516 0-.936.15-1.26.45-.312.3-.516.738-.612 1.314h3.618c-.144-1.176-.726-1.764-1.746-1.764zm10.113 7.596c-1.488 0-2.658-.42-3.51-1.26-.84-.84-1.26-1.986-1.26-3.438 0-.948.204-1.782.612-2.502.408-.732.978-1.296 1.71-1.692.744-.408 1.602-.612 2.574-.612.66 0 1.302.102 1.926.306.624.204 1.122.48 1.494.828l-.72 1.89c-.36-.288-.756-.51-1.188-.666-.432-.168-.852-.252-1.26-.252-.744 0-1.326.228-1.746.684-.408.444-.612 1.098-.612 1.962 0 .876.204 1.542.612 1.998.408.444.99.666 1.746.666.408 0 .828-.078 1.26-.234.432-.168.828-.396 1.188-.684l.72 1.89c-.396.348-.912.624-1.548.828-.636.192-1.302.288-1.998.288zm9.194 0c-.972 0-1.824-.192-2.556-.576-.72-.384-1.278-.936-1.674-1.656-.384-.72-.576-1.56-.576-2.52s.192-1.8.576-2.52c.396-.72.954-1.272 1.674-1.656.732-.384 1.584-.576 2.556-.576.96 0 1.8.192 2.52.576.72.384 1.272.936 1.656 1.656.396.72.594 1.56.594 2.52s-.198 1.8-.594 2.52c-.384.72-.936 1.272-1.656 1.656-.72.384-1.56.576-2.52.576zm0-2.07c.672 0 1.182-.222 1.53-.666.36-.444.54-1.116.54-2.016 0-.888-.18-1.554-.54-1.998-.348-.456-.858-.684-1.53-.684-.684 0-1.206.228-1.566.684-.36.444-.54 1.11-.54 1.998 0 1.788.702 2.682 2.106 2.682zm11.817-7.416c.384 0 .708.06.972.18l-.018 2.484c-.444-.204-.888-.306-1.332-.306-.72 0-1.272.198-1.656.594-.372.384-.558.924-.558 1.62V512h-2.718v-6.516c0-.972-.048-1.842-.144-2.61h2.556l.18 1.566c.228-.576.582-1.014 1.062-1.314.492-.312 1.044-.468 1.656-.468zm11.041-3.906V512h-2.682v-1.35c-.276.468-.666.834-1.17 1.098-.504.264-1.074.396-1.71.396-.78 0-1.476-.198-2.088-.594-.612-.408-1.092-.972-1.44-1.692-.336-.732-.504-1.566-.504-2.502 0-.936.168-1.758.504-2.466.348-.72.822-1.272 1.422-1.656.612-.396 1.314-.594 2.106-.594.612 0 1.17.132 1.674.396.504.252.894.606 1.17 1.062v-5.346h2.718zm-4.77 11.322c.672 0 1.188-.228 1.548-.684.36-.468.54-1.134.54-1.998 0-.852-.186-1.506-.558-1.962-.36-.468-.87-.702-1.53-.702-.672 0-1.194.228-1.566.684-.372.456-.558 1.104-.558 1.944 0 .864.186 1.536.558 2.016.372.468.894.702 1.566.702zm16.689 2.088c-.972 0-1.908-.126-2.808-.378-.888-.264-1.626-.63-2.214-1.098l.9-2.016c1.236.864 2.616 1.296 4.14 1.296.816 0 1.44-.126 1.872-.378.444-.264.666-.63.666-1.098 0-.408-.204-.726-.612-.954-.396-.24-1.098-.468-2.106-.684-1.128-.228-2.028-.504-2.7-.828-.66-.336-1.146-.738-1.458-1.206-.3-.48-.45-1.074-.45-1.782 0-.768.21-1.458.63-2.07.432-.612 1.032-1.086 1.8-1.422.768-.348 1.656-.522 2.664-.522.912 0 1.788.132 2.628.396.84.264 1.512.624 2.016 1.08l-.9 2.016c-1.128-.864-2.37-1.296-3.726-1.296-.72 0-1.296.144-1.728.432-.432.288-.648.678-.648 1.17 0 .288.078.528.234.72.168.192.444.366.828.522.384.144.93.288 1.638.432 1.644.36 2.826.828 3.546 1.404.732.576 1.098 1.362 1.098 2.358 0 1.2-.468 2.154-1.404 2.862-.936.696-2.238 1.044-3.906 1.044zm16.312-9.288V512h-2.682v-1.35c-.276.468-.666.834-1.17 1.098-.504.264-1.074.396-1.71.396-.792 0-1.494-.192-2.106-.576-.6-.384-1.074-.93-1.422-1.638-.336-.72-.504-1.548-.504-2.484 0-.936.168-1.77.504-2.502.348-.732.828-1.296 1.44-1.692.612-.408 1.308-.612 2.088-.612.636 0 1.206.138 1.71.414.504.276.894.648 1.17 1.116v-1.296h2.682zm-4.77 7.2c.672 0 1.188-.228 1.548-.684.36-.456.54-1.116.54-1.98 0-.864-.18-1.524-.54-1.98-.36-.468-.876-.702-1.548-.702s-1.194.24-1.566.72c-.372.48-.558 1.146-.558 1.998 0 .852.18 1.506.54 1.962.372.444.9.666 1.584.666zm18.124-7.434c1.044 0 1.818.318 2.322.954.516.624.774 1.584.774 2.88V512h-2.718v-5.436c0-.636-.102-1.092-.306-1.368-.204-.288-.54-.432-1.008-.432-.552 0-.978.192-1.278.576-.3.384-.45.924-.45 1.62V512h-2.718v-5.436c0-.624-.108-1.08-.324-1.368-.204-.288-.534-.432-.99-.432-.552 0-.984.192-1.296.576-.3.384-.45.924-.45 1.62V512h-2.718v-6.516c0-.972-.048-1.842-.144-2.61h2.556l.162 1.368c.276-.516.66-.912 1.152-1.188.504-.276 1.08-.414 1.728-.414 1.356 0 2.256.564 2.699 1.692.301-.516.715-.924 1.243-1.224.54-.312 1.128-.468 1.764-.468zm10.82 0c.78 0 1.476.204 2.088.612.612.396 1.086.96 1.422 1.692.348.732.522 1.566.522 2.502 0 .936-.168 1.764-.504 2.484-.336.708-.81 1.254-1.422 1.638-.612.384-1.314.576-2.106.576-.636 0-1.206-.132-1.71-.396s-.888-.63-1.152-1.098v5.238h-2.718v-10.404c0-.972-.048-1.842-.144-2.61h2.556l.18 1.512c.24-.54.624-.966 1.152-1.278.54-.312 1.152-.468 1.836-.468zm-.774 7.434c.672 0 1.188-.222 1.548-.666.36-.456.54-1.11.54-1.962 0-.852-.186-1.518-.558-1.998-.36-.48-.87-.72-1.53-.72-.672 0-1.194.234-1.566.702-.36.456-.54 1.116-.54 1.98 0 .864.18 1.524.54 1.98.372.456.894.684 1.566.684zm6.549-11.322h2.718V512h-2.718v-13.248zm13.13 8.91h-6.012c.048.852.27 1.476.666 1.872.396.384.984.576 1.764.576.468 0 .936-.078 1.404-.234.468-.156.9-.384 1.296-.684l.72 1.836c-.432.348-.972.624-1.62.828-.636.192-1.278.288-1.926.288-1.536 0-2.742-.42-3.618-1.26-.876-.852-1.314-2.01-1.314-3.474 0-.924.186-1.746.558-2.466.384-.732.918-1.296 1.602-1.692.684-.408 1.458-.612 2.322-.612 1.284 0 2.298.42 3.042 1.26.744.828 1.116 1.95 1.116 3.366v.396zm-4.086-3.114c-.516 0-.936.15-1.26.45-.312.3-.516.738-.612 1.314h3.618c-.144-1.176-.726-1.764-1.746-1.764zm8.852 10.728c-.852-1.476-1.458-2.838-1.818-4.086-.36-1.248-.54-2.574-.54-3.978 0-1.404.18-2.748.54-4.032.372-1.284.984-2.616 1.836-3.996h2.16c-.66 1.656-1.116 3.09-1.368 4.302-.24 1.212-.36 2.454-.36 3.726 0 1.26.12 2.496.36 3.708.252 1.212.696 2.664 1.332 4.356h-2.142zm7.235-3.132c-1.728 0-3.09-.372-4.086-1.116l.72-1.89c.48.348 1.014.618 1.602.81.588.18 1.188.27 1.8.27.468 0 .828-.072 1.08-.216.252-.144.378-.354.378-.63 0-.228-.09-.408-.27-.54-.18-.132-.498-.246-.954-.342l-1.494-.342c-.876-.192-1.524-.498-1.944-.918-.408-.42-.612-.978-.612-1.674 0-.564.162-1.068.486-1.512.336-.444.798-.786 1.386-1.026.588-.252 1.266-.378 2.034-.378.648 0 1.284.102 1.908.306.624.192 1.182.468 1.674.828l-.756 1.818c-.468-.324-.948-.57-1.44-.738-.48-.168-.948-.252-1.404-.252-.444 0-.792.078-1.044.234-.252.156-.378.372-.378.648 0 .204.072.372.216.504.156.12.426.222.81.306l1.53.342c.936.216 1.614.54 2.034.972.42.432.63 1.008.63 1.728 0 .864-.348 1.548-1.044 2.052-.696.504-1.65.756-2.862.756zm4.949 3.132c.648-1.68 1.092-3.126 1.332-4.338.252-1.224.378-2.466.378-3.726 0-1.272-.126-2.514-.378-3.726-.24-1.212-.69-2.646-1.35-4.302h2.142c.852 1.38 1.458 2.712 1.818 3.996.372 1.284.558 2.628.558 4.032s-.18 2.73-.54 3.978c-.36 1.248-.966 2.61-1.818 4.086h-2.142zM576.096 614h-2.97l-1.638-4.266c-.132-.336-.336-.57-.612-.702-.264-.132-.6-.198-1.008-.198h-1.818V614h-2.772v-12.816h5.706c1.488 0 2.616.324 3.384.972.768.648 1.152 1.578 1.152 2.79 0 .852-.228 1.584-.684 2.196-.444.612-1.086 1.05-1.926 1.314.756.156 1.302.678 1.638 1.566l1.548 3.978zm-5.526-7.308c.804 0 1.392-.132 1.764-.396.372-.276.558-.702.558-1.278 0-.576-.186-.996-.558-1.26-.372-.276-.96-.414-1.764-.414h-2.556v3.348h2.556zm15.462 2.97h-6.012c.048.852.27 1.476.666 1.872.396.384.984.576 1.764.576.468 0 .936-.078 1.404-.234.468-.156.9-.384 1.296-.684l.72 1.836c-.432.348-.972.624-1.62.828-.636.192-1.278.288-1.926.288-1.536 0-2.742-.42-3.618-1.26-.876-.852-1.314-2.01-1.314-3.474 0-.924.186-1.746.558-2.466.384-.732.918-1.296 1.602-1.692.684-.408 1.458-.612 2.322-.612 1.284 0 2.298.42 3.042 1.26.744.828 1.116 1.95 1.116 3.366v.396zm-4.086-3.114c-.516 0-.936.15-1.26.45-.312.3-.516.738-.612 1.314h3.618c-.144-1.176-.726-1.764-1.746-1.764zm9.037.36v3.546c0 .504.132.876.396 1.116.264.228.606.342 1.026.342.264 0 .564-.042.9-.126v2.106c-.432.168-.954.252-1.566.252-1.128 0-1.992-.318-2.592-.954-.588-.636-.882-1.53-.882-2.682v-3.6h-1.728v-2.034h1.728v-2.142l2.718-.882v3.024h2.322v2.034h-2.322zm12.429-2.034V614h-2.646v-1.332c-.288.48-.666.846-1.134 1.098-.468.252-.996.378-1.584.378-1.14 0-1.992-.318-2.556-.954-.564-.636-.846-1.596-.846-2.88v-5.436h2.718v5.49c0 1.104.474 1.656 1.422 1.656.564 0 1.02-.192 1.368-.576.348-.384.522-.888.522-1.512v-5.058h2.736zm7.514-.216c.384 0 .708.06.972.18l-.018 2.484c-.444-.204-.888-.306-1.332-.306-.72 0-1.272.198-1.656.594-.372.384-.558.924-.558 1.62V614h-2.718v-6.516c0-.972-.048-1.842-.144-2.61h2.556l.18 1.566c.228-.576.582-1.014 1.062-1.314.492-.312 1.044-.468 1.656-.468zm7.706-.018c2.16 0 3.24 1.278 3.24 3.834V614h-2.718v-5.4c0-.636-.12-1.098-.36-1.386-.228-.3-.594-.45-1.098-.45-.6 0-1.08.192-1.44.576-.36.384-.54.9-.54 1.548V614h-2.718v-6.516c0-.972-.048-1.842-.144-2.61h2.556l.18 1.44c.324-.54.744-.954 1.26-1.242.528-.288 1.122-.432 1.782-.432zm-48.872 32.522c-.972 0-1.908-.126-2.808-.378-.888-.264-1.626-.63-2.214-1.098l.9-2.016c1.236.864 2.616 1.296 4.14 1.296.816 0 1.44-.126 1.872-.378.444-.264.666-.63.666-1.098 0-.408-.204-.726-.612-.954-.396-.24-1.098-.468-2.106-.684-1.128-.228-2.028-.504-2.7-.828-.66-.336-1.146-.738-1.458-1.206-.3-.48-.45-1.074-.45-1.782 0-.768.21-1.458.63-2.07.432-.612 1.032-1.086 1.8-1.422.768-.348 1.656-.522 2.664-.522.912 0 1.788.132 2.628.396.84.264 1.512.624 2.016 1.08l-.9 2.016c-1.128-.864-2.37-1.296-3.726-1.296-.72 0-1.296.144-1.728.432-.432.288-.648.678-.648 1.17 0 .288.078.528.234.72.168.192.444.366.828.522.384.144.93.288 1.638.432 1.644.36 2.826.828 3.546 1.404.732.576 1.098 1.362 1.098 2.358 0 1.2-.468 2.154-1.404 2.862-.936.696-2.238 1.044-3.906 1.044zm16.312-9.288V637h-2.682v-1.35c-.276.468-.666.834-1.17 1.098-.504.264-1.074.396-1.71.396-.792 0-1.494-.192-2.106-.576-.6-.384-1.074-.93-1.422-1.638-.336-.72-.504-1.548-.504-2.484 0-.936.168-1.77.504-2.502.348-.732.828-1.296 1.44-1.692.612-.408 1.308-.612 2.088-.612.636 0 1.206.138 1.71.414.504.276.894.648 1.17 1.116v-1.296h2.682zm-4.77 7.2c.672 0 1.188-.228 1.548-.684.36-.456.54-1.116.54-1.98 0-.864-.18-1.524-.54-1.98-.36-.468-.876-.702-1.548-.702s-1.194.24-1.566.72c-.372.48-.558 1.146-.558 1.998 0 .852.18 1.506.54 1.962.372.444.9.666 1.584.666zm18.124-7.434c1.044 0 1.818.318 2.322.954.516.624.774 1.584.774 2.88V637h-2.718v-5.436c0-.636-.102-1.092-.306-1.368-.204-.288-.54-.432-1.008-.432-.552 0-.978.192-1.278.576-.3.384-.45.924-.45 1.62V637h-2.718v-5.436c0-.624-.108-1.08-.324-1.368-.204-.288-.534-.432-.99-.432-.552 0-.984.192-1.296.576-.3.384-.45.924-.45 1.62V637h-2.718v-6.516c0-.972-.048-1.842-.144-2.61h2.556l.162 1.368c.276-.516.66-.912 1.152-1.188.504-.276 1.08-.414 1.728-.414 1.356 0 2.256.564 2.7 1.692.3-.516.714-.924 1.242-1.224.54-.312 1.128-.468 1.764-.468zm10.82 0c.78 0 1.476.204 2.088.612.612.396 1.086.96 1.422 1.692.348.732.522 1.566.522 2.502 0 .936-.168 1.764-.504 2.484-.336.708-.81 1.254-1.422 1.638-.612.384-1.314.576-2.106.576-.636 0-1.206-.132-1.71-.396s-.888-.63-1.152-1.098v5.238h-2.718v-10.404c0-.972-.048-1.842-.144-2.61h2.556l.18 1.512c.24-.54.624-.966 1.152-1.278.54-.312 1.152-.468 1.836-.468zm-.774 7.434c.672 0 1.188-.222 1.548-.666.36-.456.54-1.11.54-1.962 0-.852-.186-1.518-.558-1.998-.36-.48-.87-.72-1.53-.72-.672 0-1.194.234-1.566.702-.36.456-.54 1.116-.54 1.98 0 .864.18 1.524.54 1.98.372.456.894.684 1.566.684zm6.55-11.322h2.718V637h-2.718v-13.248zm13.129 8.91h-6.012c.048.852.27 1.476.666 1.872.396.384.984.576 1.764.576.468 0 .936-.078 1.404-.234.468-.156.9-.384 1.296-.684l.72 1.836c-.432.348-.972.624-1.62.828-.636.192-1.278.288-1.926.288-1.536 0-2.742-.42-3.618-1.26-.876-.852-1.314-2.01-1.314-3.474 0-.924.186-1.746.558-2.466.384-.732.918-1.296 1.602-1.692.684-.408 1.458-.612 2.322-.612 1.284 0 2.298.42 3.042 1.26.744.828 1.116 1.95 1.116 3.366v.396zm-4.086-3.114c-.516 0-.936.15-1.26.45-.312.3-.516.738-.612 1.314h3.618c-.144-1.176-.726-1.764-1.746-1.764zm8.853 10.728c-.852-1.476-1.458-2.838-1.818-4.086-.36-1.248-.54-2.574-.54-3.978 0-1.404.18-2.748.54-4.032.372-1.284.984-2.616 1.836-3.996h2.16c-.66 1.656-1.116 3.09-1.368 4.302-.24 1.212-.36 2.454-.36 3.726 0 1.26.12 2.496.36 3.708.252 1.212.696 2.664 1.332 4.356h-2.142zm7.235-3.132c-1.728 0-3.09-.372-4.086-1.116l.72-1.89c.48.348 1.014.618 1.602.81.588.18 1.188.27 1.799.27.469 0 .829-.072 1.081-.216.252-.144.378-.354.378-.63 0-.228-.09-.408-.27-.54-.18-.132-.498-.246-.954-.342l-1.494-.342c-.876-.192-1.524-.498-1.944-.918-.408-.42-.612-.978-.612-1.674 0-.564.162-1.068.486-1.512.336-.444.798-.786 1.386-1.026.588-.252 1.266-.378 2.034-.378.648 0 1.284.102 1.908.306.624.192 1.182.468 1.674.828l-.756 1.818c-.468-.324-.948-.57-1.44-.738-.48-.168-.948-.252-1.404-.252-.444 0-.792.078-1.044.234-.252.156-.378.372-.378.648 0 .204.072.372.216.504.156.12.426.222.81.306l1.53.342c.936.216 1.614.54 2.034.972.42.432.63 1.008.63 1.728 0 .864-.348 1.548-1.044 2.052-.696.504-1.65.756-2.862.756zm4.948 3.132c.648-1.68 1.092-3.126 1.332-4.338.252-1.224.378-2.466.378-3.726 0-1.272-.126-2.514-.378-3.726-.24-1.212-.69-2.646-1.35-4.302h2.142c.852 1.38 1.458 2.712 1.818 3.996.372 1.284.558 2.628.558 4.032s-.18 2.73-.54 3.978c-.36 1.248-.966 2.61-1.818 4.086h-2.142z"/>
    <path fill="url(#paint1_linear)" d="M404.752 260.503c13.67 0 24.751-11.081 24.751-24.751 0-13.67-11.081-24.752-24.751-24.752-13.67 0-24.752 11.082-24.752 24.752 0 13.67 11.082 24.751 24.752 24.751z"/>
    <path fill="#212529" d="M404.079 236.194c0 2.456-.419 4.28-1.258 5.474-.839 1.193-2.149 1.79-3.932 1.79-1.761 0-3.064-.582-3.91-1.745-.846-1.171-1.284-2.916-1.314-5.235v-2.799c0-2.426.419-4.227 1.258-5.406.838-1.178 2.153-1.768 3.943-1.768 1.775 0 3.082.571 3.921 1.712.839 1.133 1.269 2.885 1.292 5.258v2.719zm-2.097-2.867c0-1.775-.249-3.067-.748-3.875-.498-.816-1.288-1.224-2.368-1.224-1.073 0-1.855.404-2.346 1.212-.491.809-.744 2.051-.759 3.729v3.354c0 1.783.257 3.101.771 3.955.521.846 1.307 1.269 2.357 1.269 1.035 0 1.802-.4 2.3-1.201.506-.801.771-2.063.793-3.785v-3.434zm15.593 9.905h-10.81v-1.508l5.711-6.346c.846-.959 1.428-1.737 1.745-2.334.325-.604.487-1.228.487-1.87 0-.861-.26-1.567-.782-2.119-.521-.551-1.216-.827-2.085-.827-1.042 0-1.854.298-2.436.895-.574.589-.861 1.413-.861 2.47h-2.097c0-1.518.488-2.746 1.462-3.682.982-.937 2.293-1.406 3.932-1.406 1.534 0 2.746.405 3.638 1.213.891.801 1.337 1.87 1.337 3.207 0 1.624-1.035 3.558-3.105 5.802l-4.419 4.793h8.283v1.712z"/>
    <path fill="url(#paint2_linear)" d="M404.752 387.503c13.67 0 24.751-11.081 24.751-24.751 0-13.67-11.081-24.752-24.751-24.752-13.67 0-24.752 11.082-24.752 24.752 0 13.67 11.082 24.751 24.752 24.751z"/>
    <path fill="#212529" d="M403.335 363.658c0 2.455-.419 4.28-1.258 5.473-.838 1.194-2.149 1.791-3.932 1.791-1.76 0-3.063-.582-3.909-1.745-.846-1.171-1.285-2.917-1.315-5.236v-2.799c0-2.425.419-4.227 1.258-5.405.839-1.179 2.153-1.768 3.944-1.768 1.775 0 3.082.57 3.92 1.711.839 1.133 1.27 2.886 1.292 5.258v2.72zm-2.096-2.867c0-1.776-.249-3.067-.748-3.876-.499-.816-1.288-1.224-2.368-1.224-1.073 0-1.855.405-2.346 1.213-.491.808-.744 2.051-.759 3.728v3.354c0 1.783.256 3.102.77 3.955.521.847 1.307 1.27 2.357 1.27 1.035 0 1.802-.401 2.301-1.202.506-.8.77-2.062.793-3.785v-3.433zm7.83.634h1.575c.99-.015 1.768-.275 2.335-.781.566-.507.85-1.19.85-2.052 0-1.934-.963-2.901-2.89-2.901-.906 0-1.632.261-2.176.782-.536.514-.804 1.198-.804 2.051h-2.097c0-1.307.476-2.391 1.428-3.252.96-.869 2.176-1.303 3.649-1.303 1.556 0 2.776.412 3.66 1.235.884.824 1.326 1.968 1.326 3.434 0 .717-.234 1.412-.702 2.085-.461.672-1.092 1.175-1.893 1.507.907.287 1.606.763 2.097 1.428.498.665.748 1.477.748 2.436 0 1.481-.484 2.656-1.451 3.525-.967.868-2.225 1.303-3.774 1.303-1.548 0-2.81-.42-3.784-1.258-.967-.839-1.451-1.945-1.451-3.32h2.108c0 .868.283 1.563.85 2.085.566.521 1.326.782 2.277.782 1.013 0 1.787-.265 2.324-.794.536-.529.804-1.288.804-2.277 0-.96-.295-1.696-.884-2.21s-1.439-.778-2.55-.793h-1.575v-1.712z"/>
    <path fill="url(#paint3_linear)" d="M404.752 514.503c13.67 0 24.751-11.081 24.751-24.751 0-13.67-11.081-24.752-24.751-24.752-13.67 0-24.752 11.082-24.752 24.752 0 13.67 11.082 24.751 24.752 24.751z"/>
    <path fill="#212529" d="M403.77 490.658c0 2.455-.42 4.28-1.258 5.473-.839 1.194-2.149 1.791-3.932 1.791-1.761 0-3.064-.582-3.91-1.745-.846-1.171-1.284-2.917-1.314-5.236v-2.799c0-2.425.419-4.227 1.257-5.405.839-1.179 2.154-1.768 3.944-1.768 1.775 0 3.082.57 3.921 1.711.838 1.133 1.269 2.886 1.292 5.258v2.72zm-2.097-2.867c0-1.776-.249-3.067-.748-3.876-.498-.816-1.288-1.224-2.368-1.224-1.073 0-1.855.405-2.346 1.213-.491.808-.744 2.051-.759 3.728v3.354c0 1.783.257 3.102.771 3.955.521.847 1.307 1.27 2.357 1.27 1.035 0 1.801-.401 2.3-1.202.506-.8.771-2.062.793-3.785v-3.433zm13.633 4.363h2.289v1.711h-2.289v3.83h-2.108v-3.83h-7.513v-1.235l7.388-11.434h2.233v10.958zm-7.241 0h5.133v-8.091l-.249.453-4.884 7.638z"/>
    <path fill="url(#paint4_linear)" d="M404.752 641.503c13.67 0 24.751-11.081 24.751-24.751 0-13.67-11.081-24.752-24.751-24.752-13.67 0-24.752 11.082-24.752 24.752 0 13.67 11.082 24.751 24.752 24.751z"/>
    <path fill="#212529" d="M403.77 618.658c0 2.455-.42 4.28-1.258 5.473-.839 1.194-2.149 1.791-3.932 1.791-1.761 0-3.064-.582-3.91-1.745-.846-1.171-1.284-2.917-1.314-5.236v-2.799c0-2.425.419-4.227 1.257-5.405.839-1.179 2.154-1.768 3.944-1.768 1.775 0 3.082.57 3.921 1.711.838 1.133 1.269 2.886 1.292 5.258v2.72zm-2.097-2.867c0-1.776-.249-3.067-.748-3.876-.498-.816-1.288-1.224-2.368-1.224-1.073 0-1.855.405-2.346 1.213-.491.808-.744 2.051-.759 3.728v3.354c0 1.783.257 3.102.771 3.955.521.847 1.307 1.27 2.357 1.27 1.035 0 1.801-.401 2.3-1.202.506-.8.771-2.062.793-3.785v-3.433zm5.746 1.632l.838-8.227h8.454v1.937h-6.675l-.498 4.499c.808-.476 1.726-.714 2.753-.714 1.504 0 2.697.499 3.581 1.496.884.99 1.326 2.331 1.326 4.023 0 1.7-.461 3.041-1.382 4.023-.914.974-2.195 1.462-3.842 1.462-1.458 0-2.648-.404-3.569-1.213-.922-.808-1.447-1.926-1.576-3.354h1.984c.128.944.464 1.658 1.008 2.142.544.476 1.262.714 2.153.714.975 0 1.738-.333 2.289-.998.559-.664.839-1.582.839-2.753 0-1.103-.302-1.987-.907-2.652-.597-.672-1.394-1.009-2.391-1.009-.914 0-1.632.201-2.153.601l-.555.453-1.677-.43z"/>
    <path fill="#75787B" d="M45.1 170.924V176h-2.323v-5.076l-5.202-7.74h2.646l3.708 5.796 3.726-5.796h2.646l-5.202 7.74zm8.42 5.22c-.924 0-1.74-.192-2.448-.576-.696-.384-1.236-.93-1.62-1.638-.372-.72-.558-1.56-.558-2.52s.186-1.794.558-2.502c.384-.72.924-1.272 1.62-1.656.708-.384 1.524-.576 2.448-.576.912 0 1.716.192 2.412.576.696.384 1.23.936 1.602 1.656.384.708.576 1.542.576 2.502 0 .96-.192 1.8-.576 2.52-.372.708-.906 1.254-1.602 1.638-.696.384-1.5.576-2.412.576zm-.018-1.764c.768 0 1.35-.246 1.746-.738.408-.504.612-1.248.612-2.232 0-.972-.204-1.71-.612-2.214-.408-.516-.984-.774-1.728-.774-.756 0-1.338.258-1.746.774-.408.504-.612 1.242-.612 2.214 0 .984.198 1.728.594 2.232.408.492.99.738 1.746.738zm14.828-7.47V176h-2.196v-1.404c-.288.504-.672.888-1.152 1.152-.48.264-1.032.396-1.656.396-2.22 0-3.33-1.248-3.33-3.744v-5.49h2.232v5.508c0 .66.132 1.146.396 1.458.276.312.696.468 1.26.468.66 0 1.188-.216 1.584-.648.396-.432.594-1.008.594-1.728v-5.058h2.268zm16.058 6.084h-6.264L76.828 176h-2.34l5.796-12.816h1.89L87.988 176h-2.322l-1.278-3.006zm-.774-1.8l-2.358-5.49-2.358 5.49h4.716zm10.494-4.5c.348 0 .648.048.9.144l-.018 2.052c-.384-.156-.78-.234-1.188-.234-.768 0-1.356.222-1.764.666-.396.444-.594 1.032-.594 1.764V176h-2.232v-6.516c0-.96-.048-1.818-.144-2.574h2.106l.18 1.602c.228-.588.588-1.038 1.08-1.35.492-.312 1.05-.468 1.674-.468zm9.933 4.878h-6.264c.048.972.288 1.692.72 2.16.444.456 1.098.684 1.962.684.996 0 1.92-.324 2.772-.972l.648 1.548c-.432.348-.966.63-1.602.846-.624.204-1.26.306-1.908.306-1.488 0-2.658-.42-3.51-1.26-.852-.84-1.278-1.992-1.278-3.456 0-.924.186-1.746.558-2.466.372-.72.894-1.278 1.566-1.674.672-.408 1.434-.612 2.286-.612 1.248 0 2.232.408 2.952 1.224.732.804 1.098 1.914 1.098 3.33v.342zm-3.996-3.276c-.6 0-1.092.18-1.476.54-.372.348-.612.858-.72 1.53h4.23c-.072-.684-.282-1.2-.63-1.548-.336-.348-.804-.522-1.404-.522zm-36.267 17.888V199h-2.304v-5.562h-6.57V199h-2.286v-12.816h2.286v5.364h6.57v-5.364h2.304zm10.574 8.388h-6.264c.048.972.288 1.692.72 2.16.444.456 1.098.684 1.962.684.996 0 1.92-.324 2.772-.972l.648 1.548c-.432.348-.966.63-1.602.846-.624.204-1.26.306-1.908.306-1.488 0-2.658-.42-3.51-1.26-.852-.84-1.278-1.992-1.278-3.456 0-.924.186-1.746.558-2.466.372-.72.894-1.278 1.566-1.674.672-.408 1.434-.612 2.286-.612 1.248 0 2.232.408 2.952 1.224.732.804 1.098 1.914 1.098 3.33v.342zm-3.996-3.276c-.6 0-1.092.18-1.476.54-.372.348-.612.858-.72 1.53h4.23c-.072-.684-.282-1.2-.63-1.548-.336-.348-.804-.522-1.404-.522zm10.797-1.602c.348 0 .648.048.9.144l-.018 2.052c-.384-.156-.78-.234-1.188-.234-.768 0-1.356.222-1.764.666-.396.444-.594 1.032-.594 1.764V199h-2.232v-6.516c0-.96-.048-1.818-.144-2.574h2.106l.18 1.602c.228-.588.588-1.038 1.08-1.35.492-.312 1.05-.468 1.674-.468zm9.933 4.878h-6.264c.048.972.288 1.692.72 2.16.444.456 1.098.684 1.962.684.996 0 1.92-.324 2.772-.972l.648 1.548c-.432.348-.966.63-1.602.846-.624.204-1.26.306-1.908.306-1.488 0-2.658-.42-3.51-1.26-.852-.84-1.278-1.992-1.278-3.456 0-.924.186-1.746.558-2.466.372-.72.894-1.278 1.566-1.674.672-.408 1.434-.612 2.286-.612 1.248 0 2.232.408 2.952 1.224.732.804 1.098 1.914 1.098 3.33v.342zm-3.996-3.276c-.6 0-1.092.18-1.476.54-.372.348-.612.858-.72 1.53h4.23c-.072-.684-.282-1.2-.63-1.548-.336-.348-.804-.522-1.404-.522z"/>
    <path stroke="#212529" stroke-miterlimit="10" d="M66.228 152.42v-22.443"/>
    <path fill="#212529" d="M71.549 131.197L66.227 122l-5.301 9.197h10.623z"/>
    <path stroke="#747678" stroke-linecap="round" stroke-linejoin="round" stroke-width="2" d="M503.895 372.894v3.111c-.003.489-.207.957-.568 1.3-.361.343-.849.535-1.356.531h-23.729c-.507.004-.995-.188-1.356-.531-.361-.343-.565-.811-.568-1.3v-22.579c.003-.489.207-.956.568-1.3.361-.343.849-.534 1.356-.531h23.729c.507-.003.995.188 1.356.531.36.344.565.811.568 1.3"/>
    <path fill="#747678" stroke="#747678" stroke-linecap="round" stroke-linejoin="round" d="M487.334 367.47h-21.507v20.733h21.507V367.47z"/>
    <path fill="#fff" stroke="#fff" stroke-miterlimit="10" d="M472.97 383.543c-.138.001-.275-.03-.398-.09-.083-.034-.157-.085-.217-.149-.061-.064-.106-.14-.134-.222-.027-.082-.036-.169-.025-.255.011-.086.04-.169.087-.243l.013-.019 7.222-10.118c.123-.152.298-.258.493-.3.196-.041.4-.016.578.072.083.034.157.085.217.148.06.064.106.14.133.222.028.082.037.169.026.255-.01.086-.04.168-.086.242l-.015.022-7.219 10.117c-.078.101-.18.183-.298.238-.117.056-.246.083-.377.081v-.001z"/>
    <path fill="#fff" stroke="#fff" stroke-miterlimit="10" d="M479.948 383.543c.138.001.274-.03.398-.09.083-.034.157-.085.217-.149.06-.064.106-.14.133-.222.028-.082.036-.169.026-.255-.011-.086-.041-.169-.087-.243l-.014-.019-7.222-10.118c-.123-.152-.297-.258-.493-.3-.195-.041-.399-.016-.578.072-.082.034-.156.085-.216.148-.061.064-.106.14-.134.222-.027.082-.036.169-.026.255.011.086.04.168.087.242l.014.022 7.22 10.117c.078.101.18.183.297.238.118.056.247.083.378.08h0z"/>
    <path stroke="#fff" stroke-miterlimit="10" d="M499.381 359.517v9.632"/>
    <path fill="#747678" stroke="#747678" stroke-miterlimit="10" d="M498.065 371.536c-.185.004-.367-.035-.532-.115-.165-.079-.308-.196-.415-.341l-4.66-6.802c-.068-.101-.113-.214-.131-.333-.018-.119-.009-.24.026-.355.034-.115.095-.222.176-.312.081-.091.182-.164.295-.213l.041-.02c.249-.12.534-.152.805-.09.272.062.511.214.679.428l4.66 6.802c.068.101.113.214.131.333.018.119.009.24-.026.355-.034.115-.095.222-.176.312-.081.091-.182.164-.295.214l-.041.019c-.168.078-.351.118-.537.118h0z"/>
    <path fill="#747678" stroke="#747678" stroke-miterlimit="10" d="M498.063 371.536c-.192 0-.381-.043-.553-.126-.115-.047-.217-.118-.301-.206-.084-.089-.147-.194-.185-.309-.038-.114-.05-.235-.035-.354.014-.119.056-.234.12-.337l.019-.027 10.026-14.046c.171-.211.413-.359.684-.417.272-.057.556-.022.803.101.114.046.217.117.301.205.084.089.147.193.185.308.038.114.051.234.036.353-.014.12-.055.234-.12.337l-.02.03L499 371.093c-.108.141-.25.254-.413.331-.163.077-.343.116-.524.112v0z"/>
    <g clip-path="url(#clip1)">
        <path stroke="#747678" stroke-linecap="round" stroke-linejoin="round" d="M504.57 492.685h-30.463v9.001h30.463v-9.001z"/>
        <path fill="#fff" d="M470.769 494.644v-15.657c.001-.626.253-1.226.698-1.668.446-.443 1.05-.692 1.68-.694h34.668c.631.002 1.235.251 1.68.694.446.442.697 1.042.699 1.668v27.439c-.002.626-.253 1.225-.699 1.668-.445.442-1.049.692-1.68.694h-18.828l-18.218-14.144zM478.476 474v5.478V474zm8.003 0v5.478V474zm8.004 0v5.478V474zm8.004 0v5.478V474zm-31.718 8.819h39.425z"/>
        <path stroke="#747678" stroke-miterlimit="10" stroke-width="2" d="M470.769 482.819h39.425m-39.425 11.825v-15.657c.001-.626.253-1.226.698-1.668.446-.443 1.05-.692 1.68-.694h34.668c.631.002 1.235.251 1.68.694.446.442.697 1.042.699 1.668v27.439c-.002.626-.253 1.225-.699 1.668-.445.442-1.049.692-1.68.694h-18.828l-18.218-14.144zM478.476 474v5.478V474zm8.003 0v5.478V474zm8.004 0v5.478V474zm8.004 0v5.478V474z"/>
        <path fill="#747678" stroke="#747678" stroke-miterlimit="10" d="M478.476 488.808c.911 0 1.649-.733 1.649-1.638 0-.904-.738-1.637-1.649-1.637s-1.649.733-1.649 1.637c0 .905.738 1.638 1.649 1.638z"/>
        <path stroke="#747678" stroke-linecap="round" stroke-linejoin="round" stroke-width="2" d="M477.026 493.851h25.66M483.65 498.406h19.036M486.479 502.966h16.008"/>
        <path fill="#747678" d="M488.847 504.273c0-2.36-.705-4.668-2.026-6.63-1.32-1.963-3.198-3.493-5.394-4.396-2.197-.903-4.614-1.14-6.946-.679-2.331.46-4.473 1.597-6.154 3.266-1.682 1.669-2.826 3.796-3.29 6.111-.464 2.315-.226 4.714.684 6.895.91 2.181 2.45 4.045 4.427 5.356 1.977 1.311 4.301 2.011 6.679 2.011 1.578 0 3.141-.309 4.6-.908 1.458-.6 2.783-1.479 3.899-2.587 1.117-1.108 2.002-2.424 2.606-3.872.604-1.448.915-3 .915-4.567zm-15.927 2.238l3.907-2.238-3.907 2.238zm3.982-2.265l.025-5.839z"/>
        <path stroke="#fff" stroke-linecap="round" stroke-linejoin="round" stroke-width="2" d="M476.902 504.246l.025-5.839m11.92 5.866c0-2.36-.705-4.668-2.026-6.63-1.32-1.963-3.198-3.493-5.394-4.396-2.197-.903-4.614-1.14-6.946-.679-2.331.46-4.473 1.597-6.154 3.266-1.682 1.669-2.826 3.796-3.29 6.111-.464 2.315-.226 4.714.684 6.895.91 2.181 2.45 4.045 4.427 5.356 1.977 1.311 4.301 2.011 6.679 2.011 1.578 0 3.141-.309 4.6-.908 1.458-.6 2.783-1.479 3.899-2.587 1.117-1.108 2.002-2.424 2.606-3.872.604-1.448.915-3 .915-4.567v0zm-15.927 2.238l3.907-2.238-3.907 2.238z"/>
        <path stroke="#747678" stroke-linecap="round" stroke-linejoin="round" d="M476.933 517.104c7.137 0 12.923-5.745 12.923-12.831 0-7.086-5.786-12.831-12.923-12.831-7.138 0-12.924 5.745-12.924 12.831 0 7.086 5.786 12.831 12.924 12.831z"/>
        <path fill="#747678" stroke="#747678" stroke-miterlimit="10" d="M486.479 488.808c.911 0 1.65-.733 1.65-1.638 0-.904-.739-1.637-1.65-1.637-.911 0-1.649.733-1.649 1.637 0 .905.738 1.638 1.649 1.638zM494.483 488.808c.911 0 1.649-.733 1.649-1.638 0-.904-.738-1.637-1.649-1.637s-1.649.733-1.649 1.637c0 .905.738 1.638 1.649 1.638zM502.487 488.808c.911 0 1.649-.733 1.649-1.638 0-.904-.738-1.637-1.649-1.637s-1.65.733-1.65 1.637c0 .905.739 1.638 1.65 1.638z"/>
    </g>
    <defs>
        <linearGradient id="paint0_linear" x1="404.755" x2="404.755" y1="84.998" y2="134.507" gradientUnits="userSpaceOnUse">
            <stop stop-color="#F1F5F7"/>
            <stop offset="1" stop-color="#D3DCE0"/>
        </linearGradient>
        <linearGradient id="paint1_linear" x1="404.754" x2="404.754" y1="210.995" y2="260.503" gradientUnits="userSpaceOnUse">
            <stop stop-color="#F1F5F7"/>
            <stop offset="1" stop-color="#D3DCE0"/>
        </linearGradient>
        <linearGradient id="paint2_linear" x1="404.749" x2="404.749" y1="337.998" y2="387.506" gradientUnits="userSpaceOnUse">
            <stop stop-color="#F1F5F7"/>
            <stop offset="1" stop-color="#D3DCE0"/>
        </linearGradient>
        <linearGradient id="paint3_linear" x1="404.752" x2="404.752" y1="464.998" y2="514.506" gradientUnits="userSpaceOnUse">
            <stop stop-color="#F1F5F7"/>
            <stop offset="1" stop-color="#D3DCE0"/>
        </linearGradient>
        <linearGradient id="paint4_linear" x1="404.752" x2="404.752" y1="591.998" y2="641.506" gradientUnits="userSpaceOnUse">
            <stop stop-color="#F1F5F7"/>
            <stop offset="1" stop-color="#D3DCE0"/>
        </linearGradient>
        <clipPath id="clip0">
            <path fill="#fff" d="M0 0H35.58V30.106H0z" transform="translate(467.709 69)"/>
        </clipPath>
        <clipPath id="clip1">
            <path fill="#fff" d="M0 0H49V44H0z" transform="translate(463 474)"/>
        </clipPath>
        <filter id="filter0_d" width="133.977" height="133.977" x="0" y="0" color-interpolation-filters="sRGB" filterUnits="userSpaceOnUse">
            <feFlood flood-opacity="0" result="BackgroundImageFix"/>
            <feColorMatrix in="SourceAlpha" values="0 0 0 0 0 0 0 0 0 0 0 0 0 0 0 0 0 0 127 0"/>
            <feOffset dx="-1" dy="4"/>
            <feGaussianBlur stdDeviation="2"/>
            <feColorMatrix values="0 0 0 0 0 0 0 0 0 0 0 0 0 0 0 0 0 0 0.15 0"/>
            <feBlend in2="BackgroundImageFix" result="effect1_dropShadow"/>
            <feBlend in="SourceGraphic" in2="effect1_dropShadow" result="shape"/>
        </filter>
    </defs>
</svg>
